<svg data-name="232531" xmlns="http://www.w3.org/2000/svg" width="45" height="64.921"><g data-name="Group 46"><g data-name="Group 45"><path data-name="Path 75" d="M44.17 15.515l-5-3.765-1.834-5.987a2.083 2.083 0 00-1.959-1.473l-6.261-.106-5-3.766a2.082 2.082 0 00-2.448-.041l-5.13 3.595-6.261-.106a2.079 2.079 0 00-2 1.406l-2.04 5.921-5.127 3.594a2.083 2.083 0 00-.8 2.315l1.837 5.988-2.035 5.922a2.083 2.083 0 00.717 2.341l5 3.765 2.745 7.156v20.564a2.083 2.083 0 002.933 1.9l10.989-4.914 10.989 4.914a2.083 2.083 0 002.933-1.9V42.17l2.341-6.5 5.127-3.594a2.082 2.082 0 00.8-2.315l-1.839-5.984 2.035-5.922a2.083 2.083 0 00-.712-2.34zM32.256 59.626l-8.909-3.982a2.083 2.083 0 00-1.7 0l-8.9 3.982v-17l3.141.053 5 3.765a2.086 2.086 0 002.448.041l5.127-3.594 3.794.064v16.671zm6.414-35.275l1.589 5.187-4.442 3.114a2.083 2.083 0 00-.774 1.028l-1.763 5.131-5.424-.092a2.075 2.075 0 00-1.231.377l-4.442 3.114-4.336-3.262a2.082 2.082 0 00-1.217-.418l-5.424-.092-1.589-5.187a2.082 2.082 0 00-.739-1.054l-4.331-3.262L6.308 23.8a2.083 2.083 0 00.022-1.287L4.74 17.33l4.442-3.114a2.083 2.083 0 00.774-1.028l1.763-5.131 5.424.092a2.1 2.1 0 001.231-.377l4.442-3.114 4.331 3.262a2.083 2.083 0 001.217.418l5.424.092 1.589 5.187a2.082 2.082 0 00.739 1.054l4.335 3.262-1.763 5.131a2.082 2.082 0 00-.017 1.287z"/></g></g><g data-name="Ресурс 2"><g data-name="Слой 1"><path data-name="Path 55" d="M32.996 22.674v-.109a.2.2 0 000-.031 10 10 0 10-1.555 5.576 9.947 9.947 0 001.555-5.365z" fill="none"/><path data-name="Path 56" d="M33 22.565v.109a2.129 2.129 0 01-3.98 1.026l-.037-.069L23 12.75a10 10 0 0110 9.786.2.2 0 010 .029z" fill="#cb0000"/><path data-name="Path 57" d="M33.001 22.75a9.947 9.947 0 01-1.557 5.36 10 10 0 11-8.443-15.36l5.98 10.881.037.069a2.129 2.129 0 003.983-1.026z" fill="none"/><path data-name="Path 58" d="M31.442 28.109H14.559L23 12.75l5.981 10.881.037.069z" fill="none"/><path data-name="Path 59" d="M18.721 25.649l4.28-7.789 4.281 7.789z" fill="#cb0000"/><path data-name="Path 60" d="M32.999 22.643a.207.207 0 010 .031v-.031z" fill="#cb0000"/><path data-name="Path 61" d="M18.322 31.595l-.1-.052a2.129 2.129 0 011.02-3.981h12.499a10 10 0 01-13.384 4.04.153.153 0 01-.035-.007z" fill="#cb0000"/><path data-name="Path 62" d="M17.475 14.42c.031-.02.06-.04.092-.058a2.129 2.129 0 013 2.806l-.038.068-5.96 10.901a10 10 0 012.88-13.7z" fill="#cb0000"/></g></g></svg>