<svg data-name="981388" xmlns="http://www.w3.org/2000/svg" width="45.637" height="63.151"><g data-name="Group 51"><g data-name="Group 50"><path data-name="Path 78" d="M18.124 37.868a1.85 1.85 0 00-2.527.679l-3.913 6.787-1.675-1.675a1.85 1.85 0 00-2.616 2.616l3.381 3.381a1.85 1.85 0 002.911-.384l5.118-8.878a1.85 1.85 0 00-.679-2.526z" fill="#cb0000"/><path data-name="Path 79" d="M43.787 7.524h-7.4V4.278A1.85 1.85 0 0035.3 2.592a31.343 31.343 0 00-24.963 0 1.85 1.85 0 00-1.086 1.685v3.247h-7.4A1.85 1.85 0 000 9.374V61.3a1.85 1.85 0 001.85 1.85h41.936a1.85 1.85 0 001.85-1.85V9.374a1.85 1.85 0 00-1.849-1.85zM27.008 4.009a4.32 4.32 0 01-8.379 0 28.743 28.743 0 018.379 0zM12.951 5.5c.673-.265 1.364-.5 2.067-.7a8.014 8.014 0 0015.6 0c.7.206 1.393.44 2.066.7v7.077H12.951zm28.985 53.947H3.7V11.224h5.55v3.207a1.85 1.85 0 001.85 1.85h23.435a1.85 1.85 0 001.85-1.85v-3.207h5.55z"/><path data-name="Path 80" d="M18.124 21.834a1.85 1.85 0 00-2.527.679L11.684 29.3l-1.675-1.675a1.85 1.85 0 00-2.616 2.616l3.381 3.381a1.85 1.85 0 002.911-.384l5.118-8.878a1.85 1.85 0 00-.679-2.526z" fill="#cb0000"/><path data-name="Path 81" d="M36.386 43.293H24.052a1.85 1.85 0 100 3.7h12.334a1.85 1.85 0 000-3.7z" fill="#cb0000"/><path data-name="Path 82" d="M24.052 27.259a1.85 1.85 0 000 3.7h12.334a1.85 1.85 0 000-3.7z" fill="#cb0000"/></g></g></svg>