<svg data-name="981380" xmlns="http://www.w3.org/2000/svg" width="32.754" height="65"><g data-name="Group 49"><path data-name="Path 77" d="M27.5 32.627v-6.054l5.075-10.917a1.9 1.9 0 00-2.288-2.623l-3.361 1.035a11.137 11.137 0 00-5.966-6.6 5.142 5.142 0 10-9.17 0 11.115 11.115 0 00-5.965 6.6l-3.362-1.035a1.9 1.9 0 00-2.288 2.623L5.25 26.573v6.054a1.9 1.9 0 001.9 1.9h1.383L7.025 52.174h-1.6a1.9 1.9 0 00-1.806 1.3L.6 62.492A1.9 1.9 0 002.411 65h27.932a1.9 1.9 0 001.806-2.508l-3.016-9.014a1.9 1.9 0 00-1.806-1.3h-1.6l-1.508-17.647H25.6a1.9 1.9 0 001.9-1.904zM16.377 3.809a1.333 1.333 0 11-1.333 1.333 1.334 1.334 0 011.333-1.333zm0 6.475a7.322 7.322 0 016.912 4.906l-1.272.392-4.778-2.425a1.9 1.9 0 00-1.724 0l-4.778 2.425-1.271-.391a7.323 7.323 0 016.911-4.908zm9.579 45.7l1.742 5.205H5.056l1.742-5.205zM9.061 30.723v-2.666h14.631v2.666zM21.9 52.178H10.855l1.508-17.647h8.028zM8.373 24.248l-2.935-6.314 4.915 1.513a1.9 1.9 0 001.423-.122l4.6-2.336 4.6 2.336a1.934 1.934 0 001.423.122l4.915-1.513-2.935 6.314z"/></g></svg>