<svg xmlns="http://www.w3.org/2000/svg" width="25.275" height="24.719"><g data-name="Group 148"><path data-name="Path 115" d="M17.319 0a7.956 7.956 0 11-7.956 7.956A7.956 7.956 0 0117.319 0z" fill="#bcbcbc"/><path d="M7.808 17.633L5.876 8.185l-.339-1.654a.886.886 0 00-.867-.708H.886A.886.886 0 000 6.709v.59a.886.886 0 00.886.886h2.579L6.057 20.86a2.067 2.067 0 102.474.316h7.737a2.066 2.066 0 102.347-.384l.2-.9a.886.886 0 00-.864-1.082H8.05l-.242-1.177z" fill="#bcbcbc"/><path d="M17.249 7.886h-3.386 3.386V4.5v3.386h3.386-3.386v3.385z" fill="none" stroke="#fff" stroke-linecap="round"/></g></svg>