<svg preserveAspectRatio="none" xmlns="http://www.w3.org/2000/svg" width="18.897" height="18.575"><g data-name="Group 148"><path data-name="Path 115" d="M12.953 0a5.944 5.944 0 11-5.944 5.944A5.944 5.944 0 0112.953 0z" fill="#bcbcbc"/><path d="M5.833 13.281L4.39 6.223l-.253-1.236a.662.662 0 00-.648-.529H.662A.662.662 0 000 5.12v.438a.662.662 0 00.662.662h1.927l1.937 9.469a1.544 1.544 0 101.849.236h5.78a1.544 1.544 0 101.754-.287l.152-.669a.662.662 0 00-.645-.808h-7.4l-.18-.882z" fill="#bcbcbc"/><path d="M13.221 6.213l-2.126 2.126 2.126-2.126-2.126-2.126 2.126 2.126 2.126-2.126-2.126 2.126 2.126 2.126z" fill="none" stroke="#fff" stroke-linecap="round"/></g></svg>