<svg data-name="Group 64" xmlns="http://www.w3.org/2000/svg" width="29.233" height="26"><path d="M26.926 3.25H7.327L6.884.985A1.219 1.219 0 005.688 0H.609A.609.609 0 000 .609v1.219a.609.609 0 00.609.609h4.075L8.218 20.5a3.25 3.25 0 105.159.625h7.372a3.25 3.25 0 105.065-.718l.053-.242a1.219 1.219 0 00-1.191-1.478H10.347L9.87 16.25h15.865a1.219 1.219 0 001.191-.96l2.3-10.562c.161-.76-1.526-1.478-2.3-1.478zM10.562 23.969a1.219 1.219 0 111.219-1.219 1.22 1.22 0 01-1.219 1.219zm13 0a1.219 1.219 0 111.219-1.219 1.22 1.22 0 01-1.218 1.219zm1.19-10.156H9.394L7.327 3.25h19.6l-2.174 10.563z" fill="#fff"/><path d="M21.428 7.134h-3.75v-3.75a.417.417 0 00-.416-.417h-.834a.417.417 0 00-.417.417v3.75h-3.749a.417.417 0 00-.417.416v.833a.417.417 0 00.417.417h3.75v3.75a.417.417 0 00.416.417h.833a.417.417 0 00.417-.417V8.8h3.75a.417.417 0 00.417-.416v-.833a.417.417 0 00-.417-.417z" fill="#fff"/></svg>