<svg xmlns="http://www.w3.org/2000/svg" width="15.675" height="17.305"><path data-name="Path 1345" d="M7.22 7.718a.61.61 0 00-.863-.863l-3.23 3.23A2.884 2.884 0 107.2 14.164l7.3-7.294a4.026 4.026 0 10-5.7-5.686L1.521 8.463a5.179 5.179 0 107.324 7.324l3.23-3.23a.61.61 0 00-.863-.863l-3.23 3.23a3.96 3.96 0 11-5.6-5.6L9.661 2.05a2.769 2.769 0 011.98-.819 2.806 2.806 0 011.98.819 2.769 2.769 0 01.819 1.98 2.806 2.806 0 01-.819 1.98L6.326 13.3a1.68 1.68 0 01-2.352 0 1.653 1.653 0 010-2.352l3.245-3.23z" fill="#9f9f9f"/></svg>