<svg xmlns="http://www.w3.org/2000/svg" width="18" height="18"><path d="M15.75 0H2.25A2.252 2.252 0 000 2.25v10.125a2.252 2.252 0 002.25 2.25h3.375v2.953a.421.421 0 00.422.422.4.4 0 00.25-.084l4.391-3.291h5.062a2.252 2.252 0 002.25-2.25V2.25A2.252 2.252 0 0015.75 0zm.563 12.375a.564.564 0 01-.562.563h-5.626l-.45.338-2.362 1.771v-2.109H2.25a.564.564 0 01-.562-.562V2.25a.564.564 0 01.563-.562h13.5a.564.564 0 01.563.563zM4.5 6.188a1.125 1.125 0 101.125 1.125A1.124 1.124 0 004.5 6.188zm4.5 0a1.125 1.125 0 101.125 1.125A1.124 1.124 0 009 6.188zm4.5 0a1.125 1.125 0 101.125 1.125A1.124 1.124 0 0013.5 6.188z" fill="#fff"/></svg>