<svg data-name="005-credit-card" xmlns="http://www.w3.org/2000/svg" width="56.982" height="57"><path data-name="Path 47" d="M32.944 16.917a1.113 1.113 0 101.113 1.113 1.113 1.113 0 00-1.113-1.113zm0 0" fill="#cb0000"/><path data-name="Path 48" d="M26.195 38.66a1.114 1.114 0 10-1.575 0 1.115 1.115 0 001.575 0zm0 0"/><path data-name="Path 49" d="M12.82 56.67a1.113 1.113 0 001.571.009l5.4-5.316a3.363 3.363 0 00.792-3.454l1.161-1.119a3.319 3.319 0 012.317-.936h14.8a9.965 9.965 0 006.978-2.836c.077-.075-.588.708 10.094-12.058a4.452 4.452 0 00-6.774-5.778l-6.567 6.75a4.473 4.473 0 00-3.46-1.657H26.72a14.359 14.359 0 00-5.573-1.113 13.769 13.769 0 00-12.548 7.114 3.325 3.325 0 00-2.977.922l-5.295 5.31a1.113 1.113 0 000 1.569zm8.327-25.285a12.15 12.15 0 014.9 1.02 1.111 1.111 0 00.446.094h12.638a2.226 2.226 0 110 4.452H30.05a1.113 1.113 0 000 2.226h9.081a4.445 4.445 0 004.413-5.034c6.353-6.531 7.249-7.448 7.287-7.494a2.227 2.227 0 113.4 2.876l-9.983 11.934a7.75 7.75 0 01-5.395 2.17h-14.8a5.533 5.533 0 00-3.863 1.56l-.946.913-8.719-8.719c2.038-3.823 5.862-6 10.618-6zM7.199 38.771a1.11 1.11 0 011.378-.157c.17.1 9.689 9.646 9.748 9.725a1.117 1.117 0 01-.1 1.444l-4.606 4.535L2.683 43.296zm0 0"/><path data-name="Path 50" d="M17.358 23.594h26.711a3.343 3.343 0 003.339-3.339V3.339A3.343 3.343 0 0044.073 0H17.358a3.343 3.343 0 00-3.339 3.339v16.917a3.343 3.343 0 003.339 3.338zM45.186 8.9H16.249V6.677h28.937zm-1.113 12.466H17.358a1.114 1.114 0 01-1.113-1.113v-9.124h28.937v9.126a1.114 1.114 0 01-1.113 1.113zM17.358 2.226h26.711a1.114 1.114 0 011.113 1.113v1.112H16.249V3.339a1.114 1.114 0 011.109-1.113zm0 0" fill="#cb0000"/><path data-name="Path 51" d="M41.847 16.917h-4.452a1.113 1.113 0 000 2.226h4.452a1.113 1.113 0 100-2.226zm0 0" fill="#cb0000"/></svg>