<svg data-name="040-delivery-truck" xmlns="http://www.w3.org/2000/svg" width="52" height="38.594"><path data-name="Path 29" d="M43.875 30.469a2.031 2.031 0 102.031 2.031 2.031 2.031 0 00-2.031-2.031zm0 0"/><path data-name="Path 30" d="M42.86 22.344a1.016 1.016 0 101.016 1.016 1.016 1.016 0 00-1.016-1.016zm0 0"/><path data-name="Path 31" d="M12.797 30.469a2.031 2.031 0 102.031 2.031 2.031 2.031 0 00-2.031-2.031zm0 0"/><path data-name="Path 32" d="M47.731 18.347l-1.751-7a3.046 3.046 0 00-2.105-5.248H35.75V3.047A3.05 3.05 0 0032.7 0H3.047A3.05 3.05 0 000 3.047v26.406A3.05 3.05 0 003.047 32.5H6.7a6.094 6.094 0 0012.188 0h18.893a6.094 6.094 0 0012.188 0v-.173A3.052 3.052 0 0052 29.453V23.36a5.086 5.086 0 00-4.269-5.013zM44.1 12.188l1.523 6.094h-8.437l2.329-2.329a1.016 1.016 0 00-1.436-1.436l-2.329 2.328v-4.657zm.793-3.047a1.016 1.016 0 01-1.016 1.016H35.75V8.125h8.125a1.017 1.017 0 011.016 1.016zM12.8 36.563a4.063 4.063 0 114.06-4.063 4.067 4.067 0 01-4.06 4.063zm5.745-6.094a6.094 6.094 0 00-11.49 0h-4a1.017 1.017 0 01-1.016-1.016V3.047a1.017 1.017 0 011.008-1.015H32.7a1.017 1.017 0 011.016 1.016v27.421zm25.333 6.094a4.063 4.063 0 114.06-4.063 4.067 4.067 0 01-4.063 4.063zm5.673-6.288a6.094 6.094 0 00-11.418.194H35.75V20.313h11.172a3.052 3.052 0 012.872 2.031h-2.872a1.016 1.016 0 000 2.031h3.047v5.078a1.015 1.015 0 01-.421.822zm0 0"/><path data-name="Path 33" d="M17.875 6.094a9.141 9.141 0 109.141 9.141 9.151 9.151 0 00-9.141-9.141zm0 16.25a7.109 7.109 0 117.109-7.109 7.117 7.117 0 01-7.109 7.109zm0 0" fill="#cb0000"/><path data-name="Path 34" d="M21.937 14.219H18.89v-3.047a1.016 1.016 0 00-2.031 0v4.063a1.016 1.016 0 001.016 1.016h4.063a1.016 1.016 0 000-2.031zm0 0" fill="#cb0000"/></svg>