<svg xmlns="http://www.w3.org/2000/svg" width="24" height="18"><path d="M21.75 0H2.25A2.25 2.25 0 000 2.25v13.5A2.25 2.25 0 002.25 18h19.5A2.25 2.25 0 0024 15.75V2.25A2.25 2.25 0 0021.75 0zm0 2.25v1.913c-1.051.856-2.727 2.187-6.309 4.992-.789.621-2.353 2.113-3.441 2.1-1.088.018-2.652-1.475-3.441-2.1C4.977 6.35 3.3 5.019 2.25 4.163V2.25zm-19.5 13.5v-8.7c1.074.856 2.6 2.056 4.919 3.874 1.025.807 2.819 2.587 4.831 2.576 2 .011 3.774-1.744 4.831-2.576A807.197 807.197 0 0021.75 7.05v8.7z" fill="#fff"/></svg>