<svg xmlns="http://www.w3.org/2000/svg" width="15.333" height="17.889"><path d="M11.073 1.789a20.792 20.792 0 00-1.925 2.1A26.721 26.721 0 005.75 0C2.388 3.186 0 7.335 0 9.839a7.867 7.867 0 007.667 8.05 7.867 7.867 0 007.667-8.05c-.001-1.861-1.782-5.698-4.261-8.05zM7.667 15.972a5.958 5.958 0 01-5.75-6.133c0-1.465 1.437-4.4 3.841-7.1A23.186 23.186 0 017.587 5L9.06 7.064l1.585-1.985c.124-.156.252-.311.383-.463a11.7 11.7 0 012.388 5.219 5.959 5.959 0 01-5.749 6.137zm3.063-7.834l-1.757 2S6.222 6.624 6.014 6.385c-1.453 1.741-2.18 2.759-2.18 3.917a3.686 3.686 0 003.917 3.749 4.013 4.013 0 002.312-.723 3.575 3.575 0 001-4.6q-.15-.287-.335-.6z" fill="#fff"/></svg>