<svg xmlns="http://www.w3.org/2000/svg" xmlns:xlink="http://www.w3.org/1999/xlink" width="55.5" height="74"><defs><linearGradient id="a" x1=".5" x2=".5" y2="1" gradientUnits="objectBoundingBox"><stop offset="0" stop-color="#e43a15"/><stop offset="1" stop-color="#7a2828"/></linearGradient><linearGradient id="b" x1=".5" x2=".5" y2="1" xlink:href="#a"/><linearGradient id="c" x1=".5" x2=".5" y2="1.002" xlink:href="#a"/><linearGradient id="d" x1=".5" x2=".5" y2=".999" xlink:href="#a"/></defs><g data-name="Group 170"><path d="M24.9 72.507C3.9 42.063 0 38.939 0 27.75a27.75 27.75 0 0155.5 0c0 11.189-3.9 14.313-24.9 44.757a3.47 3.47 0 01-5.7 0z" fill="#cb0000"/><g data-name="Слой 3" stroke="#fff"><path data-name="Path 65" d="M47.249 28.351v-.213a.38.38 0 000-.06 19.5 19.5 0 10-3.033 10.873h0a19.4 19.4 0 003.033-10.455z" fill="#fff"/><path data-name="Path 66" d="M84.5 19.137v.213a4.151 4.151 0 01-7.76 2l-.072-.135L65 0a19.5 19.5 0 0119.5 19.082.38.38 0 010 .055z" transform="translate(-37.25 9)" fill="url(#a)"/><path data-name="Path 67" d="M47.247 28.5a19.4 19.4 0 01-3.036 10.45h0A19.5 19.5 0 1127.753 9l11.659 21.216.072.135a4.151 4.151 0 007.763-2z" fill="#fff"/><path data-name="Path 68" d="M44.212 38.948h0-32.92L27.751 9l11.662 21.216.072.135z" fill="none"/><path data-name="Path 69" d="M37.18 48.407l8.345-15.187 8.348 15.187z" transform="translate(-17.775 -14.255)" fill="url(#b)"/><path data-name="Path 70" d="M47.247 28.29a.4.4 0 010 .06v-.06z" fill="#861b2e"/><path data-name="Path 71" d="M29.243 104.145c-.063-.033-.123-.063-.186-.1a4.151 4.151 0 011.989-7.763h24.362a19.5 19.5 0 01-26.1 7.877.3.3 0 01-.065-.014z" transform="translate(-10.614 -58.4)" fill="url(#c)"/><path data-name="Path 72" d="M8.718 9.142c.06-.039.117-.078.18-.114a4.151 4.151 0 015.855 5.472l-.075.132L3.052 35.88a19.5 19.5 0 015.615-26.7z" transform="translate(8.258 3.116)" fill="url(#d)"/></g></g></svg>