<svg xmlns="http://www.w3.org/2000/svg" viewBox="0 0 300 82"><defs><style>.cls-2{fill:#e63323;fill-rule:evenodd}</style></defs><g id="Layer_2" data-name="Layer 2"><g id="Layer_1-2" data-name="Layer 1"><path fill="none" d="M0 0h300v82H0z"/><path class="cls-2" d="M40.82 36.48c-1.59 1-1 2 .27 3.27.39.42 3.29 2.66 4.4 3.47 1.65 1.2 2 .66 5-1 7.67-4.43 11.71-12.27 11.71-19a4 4 0 00-1.23-3.42A12.2 12.2 0 0056 17c-2.07-.63-1.77.63-1.71 1.53.6 6.93-6.88 13.91-13.47 17.95zm4.12-8.34c.55-2.29-1.85-4.17-3.47-5.57-5.28-4.54-13-6.42-19.19-2.73C19 21.79 20.73 24 22.53 26a53.87 53.87 0 008.75 7.6c4.06 2.69 3.58 3 7.49.55 2.33-1.51 5.61-3.91 6.17-6zm16.75 8.61a45.64 45.64 0 01-9.46 8c-2.58 1.58-2.67 2.69-1.35 4.22 3.59 4.13 6.74 10.45 6.74 13.74 0 2.4 1.85 2.55 5.06-2.51a32 32 0 004.07-12.76 22.89 22.89 0 00-1.53-11.41c-1.17-2.48-2.33-.71-3.53.69z"/><path class="cls-2" d="M15.43 19.06c.18-3.33 1.22-5.39-1.68-5.36a13 13 0 00-7.25 2.72 6.52 6.52 0 00-2.66 4.28 14.74 14.74 0 004.31 13.57c7.79 7.78 17.55 13.2 27 18.92a101.45 101.45 0 019.13 5.72c3.42 2.64 7.94 6.38 7.34 11.14-.21 1.56-1.14 2.51.06 2.51s4-2.06 4.13-6c.61-20.2-41.19-31.27-40.38-47.5z"/><path class="cls-2" d="M37.83 59.47C25.84 51.78 14.64 47 4.74 36.17c-1.71-1.88-2.31-3.86-3.38-2a12.67 12.67 0 00-.9 2.48c-4.2 15 21.29 36.69 36.89 39 3.93.58 8.77-1 10.14-4 2.71-6.18-6.49-10.11-9.66-12.18zm7.92-38.55c1.2 1.17 2.56 2.78 3.44.85a10.1 10.1 0 00.79-2.5 8.11 8.11 0 00-1.87-6.87c-9.57-9.22-27-5.93-28.62-.54-.83 2.74-.67 4.9.69 4.21 9.2-4.74 18.6-1.87 25.57 4.85z"/><path d="M85.65 17.26h2.18l8.34 20.41h-2.76l-2.42-6h-8.56l-2.39 6h-2.76zm4.77 12.42l-3.68-9.43L83 29.68zm7.24-10.01a6.23 6.23 0 012.34-1.92 7.74 7.74 0 013.32-.63 7 7 0 014.41 1.23 4.32 4.32 0 011.57 3.59 5.14 5.14 0 01-.87 3 4 4 0 01-2.43 1.63 4.7 4.7 0 013 1.53 4.89 4.89 0 011.15 3.36 6.08 6.08 0 01-2 4.56 7 7 0 01-2.24 1.32 8.26 8.26 0 01-2.82.47A7.61 7.61 0 0199.5 37a5.72 5.72 0 01-2.41-2.36l2.07-1.52a5.11 5.11 0 001.64 1.72 4.4 4.4 0 002.44.64 5.12 5.12 0 001.74-.29 4.23 4.23 0 001.36-.79 3.59 3.59 0 001.24-2.75 3.35 3.35 0 00-1.45-2.86 6.81 6.81 0 00-4-1.05h-1.55v-2.3h1.55a5.79 5.79 0 003.39-.86 2.76 2.76 0 001.24-2.41 2.4 2.4 0 00-1-2.1 4 4 0 00-2.42-.69 5.31 5.31 0 00-2.33.5 3.84 3.84 0 00-1.61 1.42zM120 17.26h2.18l8.34 20.41h-2.76l-2.42-6h-8.56l-2.39 6h-2.76zm4.77 12.42l-3.68-9.43-3.8 9.43zM138.51 23q-.34 4-.86 6.79a20.23 20.23 0 01-1.35 4.62 6.67 6.67 0 01-2 2.66 4.61 4.61 0 01-2.8.85l-.46-2.5a4 4 0 001.15-.22 2.45 2.45 0 001-.67 4.83 4.83 0 00.86-1.37 12.79 12.79 0 00.75-2.25 32 32 0 00.62-3.35c.18-1.32.35-2.87.5-4.67l.46-5.58h10.81v20.36h-2.59V19.56h-5.8zm16.3 10.73l11.81-16.47h2.13v20.41h-2.59V21.49l-11.61 16.18h-2.33V17.26h2.59zm29.66 3.94v-7.91h-4.71l-4.69 7.91h-3l5.05-8.28a5.81 5.81 0 01-1.65-.91 6.26 6.26 0 01-1.31-1.36 6.42 6.42 0 01-.84-1.7 5.85 5.85 0 01-.32-1.92 6 6 0 01.46-2.27 6.64 6.64 0 011.28-2 6.37 6.37 0 012-1.42 5.54 5.54 0 012.48-.55h7.88v20.41zm0-18.11h-5.14a3.17 3.17 0 00-1.42.32 3.73 3.73 0 00-1.18.84 4.2 4.2 0 00-.81 1.25 3.94 3.94 0 00-.3 1.53 4.45 4.45 0 00.26 1.49 4.07 4.07 0 00.72 1.27 3.48 3.48 0 001.1.87 3.17 3.17 0 001.46.33h5.31zm12.88 15.81h.26a4 4 0 001.15-.22 2.55 2.55 0 001-.67 5.31 5.31 0 00.86-1.37 12.08 12.08 0 00.74-2.25 32 32 0 00.62-3.35c.19-1.32.35-2.87.51-4.67l.46-5.58h10.8v18.11h3.17V43h-2.3v-5.33h-15V43h-2.3zm13.83 0V19.56h-5.81l-.29 3.44a47.87 47.87 0 01-1.22 8.12 9.51 9.51 0 01-2.11 4.3zm22.59 0v2.3h-13.85V17.26h13.59v2.3h-11v6.61h9.58v2.16h-9.59v7zm6.15-9.23h2.59l6.7-8.88h3l-7.27 9.86 7.93 10.55h-3l-7.07-9.23h-2.88v9.23h-2.58V17.26h2.58zm23.57 11.67a8.78 8.78 0 01-3.92-.87 9.67 9.67 0 01-3-2.33 10.56 10.56 0 01-2-3.32 11 11 0 01-.69-3.83 10.89 10.89 0 012.76-7.21 9.76 9.76 0 013.07-2.25 8.84 8.84 0 013.84-.84 8.43 8.43 0 013.91.9 10.31 10.31 0 013 2.37 11 11 0 011.95 3.32 10.79 10.79 0 01.69 3.78 10.82 10.82 0 01-2.74 7.2 9.66 9.66 0 01-3.03 2.27 8.71 8.71 0 01-3.84.81zm-7-10.35a9.27 9.27 0 00.5 3 8.45 8.45 0 001.44 2.54 6.85 6.85 0 002.22 1.78 6.22 6.22 0 002.87.66 6 6 0 002.93-.7 7 7 0 002.2-1.84 8 8 0 001.35-2.53 9.15 9.15 0 00.48-2.91 9 9 0 00-.51-3 7.91 7.91 0 00-1.43-2.56 7.33 7.33 0 00-2.22-1.77 6.05 6.05 0 00-2.83-.66 6.12 6.12 0 00-2.93.69 7.16 7.16 0 00-2.2 1.81 8.23 8.23 0 00-1.36 2.56 9 9 0 00-.49 2.93zm20.25 10.21V17.26h8.51a5.62 5.62 0 012.49.56 6 6 0 011.95 1.5 6.92 6.92 0 011.31 2.09 6.37 6.37 0 01.46 2.38 7 7 0 01-.43 2.44 6.88 6.88 0 01-1.22 2.1 5.93 5.93 0 01-1.9 1.46 5.38 5.38 0 01-2.45.55h-6.1v7.33zm2.59-9.67h5.95a3.13 3.13 0 001.45-.33 3.38 3.38 0 001.11-.92 4.36 4.36 0 00.72-1.37 5.15 5.15 0 00.26-1.63 4.55 4.55 0 00-.3-1.67 4.75 4.75 0 00-.81-1.35 3.51 3.51 0 00-1.18-.89 3.17 3.17 0 00-1.42-.32h-5.78zM84.12 51.06h-4.58v9h-1.29V49.91h5.87zm1.57 9.05v-10.2h4.25a2.76 2.76 0 011.25.28 3 3 0 011 .75A3.33 3.33 0 0192.8 52a3 3 0 01.2 1.17 3.6 3.6 0 01-.21 1.22 3.33 3.33 0 01-.61 1 3 3 0 01-.95.73 2.65 2.65 0 01-1.23.28h-3v3.66zM87 55.3h3a1.53 1.53 0 00.72-.17 1.65 1.65 0 00.56-.46 2.31 2.31 0 00.32-.67 2.76 2.76 0 00.13-.82 2.27 2.27 0 00-.15-.83 2.2 2.2 0 00-.41-.68 1.61 1.61 0 00-.59-.44 1.57 1.57 0 00-.71-.16H87zm8.94 4.91a3.48 3.48 0 01-.61-.05 2.07 2.07 0 01-.56-.15V58.9a2.39 2.39 0 00.54.15 3.62 3.62 0 00.54 0 1.35 1.35 0 00.87-.3 3 3 0 00.76-1.19l-3.71-7.69h1.36l3 6.28 2.79-6.28h1.36l-3.59 7.76a10.26 10.26 0 01-.69 1.21 3.75 3.75 0 01-.62.79 1.89 1.89 0 01-.67.45 2.22 2.22 0 01-.77.13zm7.83-10.3h8.14v10.2h-1.3v-9h-5.55v9h-1.29zm10.71 0h8.13v10.2h-1.29v-9h-5.55v9h-1.29zm13.78 0h1.09l4.17 10.2h-1.38l-1.21-3h-4.28l-1.19 3h-1.38zm2.39 6.21l-1.84-4.72-1.9 4.72zm9.35-1.77h1.29l3.35-4.44h1.48l-3.63 4.93 4 5.27H145l-3.53-4.61H140v4.61h-1.3v-10.2h1.3zm11.85 5.83a4.34 4.34 0 01-2-.43 4.87 4.87 0 01-1.52-1.17 5.21 5.21 0 01-1-1.66 5.46 5.46 0 01-.34-1.91 5.35 5.35 0 01.36-1.95 5.5 5.5 0 011-1.66 4.79 4.79 0 011.65-1.14 4.42 4.42 0 011.92-.42 4.21 4.21 0 012 .45 5.14 5.14 0 011.51 1.18 5.48 5.48 0 011 1.67 5.3 5.3 0 01.34 1.88 5.32 5.32 0 01-1.37 3.6 4.75 4.75 0 01-1.52 1.14 4.42 4.42 0 01-2.03.42zm-3.5-5.18a4.46 4.46 0 00.26 1.5 4 4 0 00.71 1.29 3.4 3.4 0 001.1.89 3.14 3.14 0 001.44.33 3.07 3.07 0 001.47-.35 3.63 3.63 0 001.1-.92 4.21 4.21 0 00.69-1.29 4.83 4.83 0 00.23-1.45 4.46 4.46 0 00-.25-1.5 4.12 4.12 0 00-.72-1.28 3.78 3.78 0 00-1.1-.89 3.22 3.22 0 00-2.88 0 3.36 3.36 0 00-1.1.91 3.94 3.94 0 00-.7 1.27 4.63 4.63 0 00-.25 1.49zm19.02 5.11v-7.89L164 58.27h-.74l-3.4-6.05v7.89h-1.3v-10.2h1.37l3.69 6.62 3.71-6.62h1.35v10.2zm3.87-10.2h8.13v10.2h-1.29v-9h-5.55v9h-1.29zm13.76 0h1.09l4.17 10.2h-1.36l-1.21-3h-4.28l-1.19 3h-1.38zm2.39 6.21l-1.84-4.72-1.9 4.72zM200 49.91v10.2h-1.29v-4.64H193v4.64h-1.29v-10.2H193v4.41h5.62v-4.41zm3.82 8.23l5.91-8.23h1.06v10.2h-1.29V52l-5.81 8.09h-1.17V49.91h1.3zm10.84 0l5.9-8.23h1.07v10.2h-1.3V52l-5.8 8.09h-1.17V49.91h1.3zM219.92 47a1.52 1.52 0 01-.63 1.24 3 3 0 01-3.12 0 1.52 1.52 0 01-.62-1.24h.76a.85.85 0 00.41.68 1.71 1.71 0 001 .29 1.58 1.58 0 001-.28 1 1 0 00.46-.69zm7.31 9.09l3.64-2.6v1.06l-2.62 1.84 2.62 1.8v1.06l-3.64-2.5zm3.48 0l3.64-2.6v1.06l-2.62 1.84 2.62 1.8v1.06l-3.64-2.5zm8.91-6.18h1.09l4.17 10.2h-1.38l-1.21-3H238l-1.19 3h-1.38zm2.38 6.21l-1.84-4.72-1.9 4.72zm3.7-5a3.05 3.05 0 011.16-1 3.87 3.87 0 011.66-.31 3.47 3.47 0 012.2.61 2.16 2.16 0 01.79 1.8 2.62 2.62 0 01-.43 1.5 2 2 0 01-1.21.82 2.3 2.3 0 011.52.76A2.45 2.45 0 01252 57a3 3 0 01-.27 1.27 3.07 3.07 0 01-.74 1 3.57 3.57 0 01-1.12.66 4 4 0 01-1.41.23 3.8 3.8 0 01-1.81-.41 2.87 2.87 0 01-1.21-1.18l1-.76a2.6 2.6 0 00.82.86 2.19 2.19 0 001.22.32 2.49 2.49 0 00.87-.15 2.16 2.16 0 00.68-.39 1.83 1.83 0 00.45-.61 1.77 1.77 0 00.17-.77 1.67 1.67 0 00-.73-1.43 3.37 3.37 0 00-2-.52h-.77V54h.77a2.91 2.91 0 001.7-.43 1.4 1.4 0 00.62-1.21 1.21 1.21 0 00-.48-1.05 2 2 0 00-1.22-.34 2.57 2.57 0 00-1.16.25 1.87 1.87 0 00-.81.71zm11.3-1.21h1.1l4.16 10.2h-1.38l-1.2-3h-4.29l-1.19 3h-1.38zm2.39 6.21l-1.89-4.72-1.9 4.72zm6.88-3.37c-.12 1.33-.26 2.46-.43 3.4a10.17 10.17 0 01-.68 2.31 3.32 3.32 0 01-1 1.33 2.32 2.32 0 01-1.4.42l-.23-1.21a1.92 1.92 0 00.58-.11 1.28 1.28 0 00.5-.33 2.84 2.84 0 00.43-.69 6.36 6.36 0 00.37-1.12 14.69 14.69 0 00.31-1.68c.09-.65.18-1.43.25-2.33l.23-2.79h5.41v10.2h-1.3v-9h-2.9zm8.22 5.39l5.91-8.23h1.06v10.2h-1.29V52l-5.81 8.09h-1.16V49.91h1.29zm14.9 1.97v-4H287l-2.35 4h-1.51l2.57-4.11a2.75 2.75 0 01-.82-.45 3.27 3.27 0 01-.66-.68 3.21 3.21 0 01-.42-.85 3.11 3.11 0 01-.15-1 3.05 3.05 0 01.23-1.14 3.11 3.11 0 01.64-1 3.21 3.21 0 011-.71 2.82 2.82 0 011.24-.27h3.94v10.2zm0-9h-2.57a1.57 1.57 0 00-.71.16 1.77 1.77 0 00-.59.42 2.05 2.05 0 00-.4.63 1.91 1.91 0 00-.12.68 2.06 2.06 0 00.13.74 1.92 1.92 0 00.36.64 1.7 1.7 0 00.55.44 1.55 1.55 0 00.72.16h2.66zm7.13 5.64l-3.63 2.5v-1.06l2.61-1.8-2.61-1.84v-1.06l3.63 2.6zm3.48 0l-3.64 2.5v-1.06l2.62-1.8-2.62-1.84v-1.06l3.64 2.6z" fill="#fff"/></g></g></svg>