<svg xmlns="http://www.w3.org/2000/svg" width="24.719" height="28.214"><path data-name="110020" d="M23.649 0H1.07A1.07 1.07 0 000 1.07a6.066 6.066 0 006.056 6.06h1.363v3.45a4.945 4.945 0 003.868 4.82v10.673H7.624a1.07 1.07 0 000 2.14h9.472a1.07 1.07 0 000-2.14H13.43V15.4a4.946 4.946 0 003.867-4.819V7.13h1.359a6.066 6.066 0 006.063-6.06A1.07 1.07 0 0023.649 0zm-4.993 4.989h-1.379a2.122 2.122 0 00-2.12 2.12v3.47a2.8 2.8 0 11-5.594 0v-3.47a2.122 2.122 0 00-2.12-2.12H6.056a3.926 3.926 0 01-3.77-2.849H22.43a3.926 3.926 0 01-3.774 2.849z" fill="#4a4a4a"/></svg>