<svg xmlns="http://www.w3.org/2000/svg" width="27.023" height="27.026"><path data-name="1324633" d="M26.998 10.239A2.621 2.621 0 0025.945 8.5l-3.136-2.308a.8.8 0 00.017-.162v-4.4a.792.792 0 00-.792-.792h-2.936a.792.792 0 00-.792.792v1.254L15.098.523a2.668 2.668 0 00-3.174 0L1.078 8.5a2.629 2.629 0 00-.548 3.7 2.683 2.683 0 002.8.977v13.057a.792.792 0 00.792.792h18.776a.792.792 0 00.792-.792V13.177a2.687 2.687 0 002.808-.977 2.61 2.61 0 00.5-1.962zm-7.1-7.818h1.349V5.04l-1.349-.991zM10.03 25.442H4.914v-1.2h5.115zm0-2.787H4.914v-1.233h5.115zm0-2.817H4.914V18.6h5.115zm5.375 5.474h-3.792V18.6h3.792zm6.7.129h-5.116v-1.2h5.115zm0-2.787h-5.116v-1.232h5.115zm0-2.817h-5.116V18.6h5.115zm0-2.817H4.915v-1.233h17.19zm0-2.817H4.915V12.97h17.19zM6.098 11.387l3.544-2.605a.793.793 0 00-.019.172v2.433zm4.386-3.224l2.4-1.762a1.106 1.106 0 011.214-.03l2.438 1.791zm5.328 1.583v1.637h-4.606V9.746zm1.563-.967l3.549 2.608h-3.526V8.954a.789.789 0 00-.022-.175zm7.852 2.47a1.1 1.1 0 01-1.519.219l-8.61-6.33a2.668 2.668 0 00-3.174 0l-8.61 6.33a1.1 1.1 0 01-1.52-.219 1.038 1.038 0 01-.2-.78 1.048 1.048 0 01.421-.7L12.862 1.8a1.105 1.105 0 011.3 0l2.02 1.485 8.826 6.489a1.049 1.049 0 01.421.7 1.038 1.038 0 01-.2.78zm0 0" fill="#4a4a4a"/></svg>