<svg xmlns="http://www.w3.org/2000/svg" width="31" height="30.879"><g data-name="1324628" fill="#4a4a4a"><path data-name="Path 20" d="M31 15.4a4.867 4.867 0 00-1.426-3.436 2.608 2.608 0 00.16-.24 2.571 2.571 0 00-2.046-3.871 4.856 4.856 0 00-2.6-3.941 3.572 3.572 0 00-.4-1.2A3.432 3.432 0 0021.762.9H21.3a6.665 6.665 0 00-2.479.476 4.826 4.826 0 00-6.714-.025A6.666 6.666 0 009.7.9h-.461a3.432 3.432 0 00-2.924 1.815 3.582 3.582 0 00-.389 1.133 4.858 4.858 0 00-2.735 4 2.578 2.578 0 00-1.829 4.183A4.876 4.876 0 000 15.4a4.825 4.825 0 001.324 3.34 2.532 2.532 0 00-.174.26 2.573 2.573 0 002.03 3.871 4.847 4.847 0 004.791 4.654 2.577 2.577 0 003.9 1.757 4.826 4.826 0 007.154.023q.054.035.11.068a2.569 2.569 0 003.848-1.849 4.842 4.842 0 004.717-4.741 2.574 2.574 0 001.783-3.856A4.872 4.872 0 0031 15.4zm-4.9 5.718a.908.908 0 00-.289.883 3.067 3.067 0 01.075.671 3.015 3.015 0 01-3.706 2.951.908.908 0 00-1.046 1.232.756.756 0 01-1.381.618.908.908 0 00-.8-.522h-.02a.908.908 0 00-.8.486 3.011 3.011 0 01-5.339 0 .908.908 0 00-.8-.485.909.909 0 00-.8.485l-.018.032a.76.76 0 01-1.376-.646.908.908 0 00-1.067-1.2 3.016 3.016 0 01-3.742-2.943 3.071 3.071 0 01.085-.714.908.908 0 00-1.334-1 .757.757 0 01-1.027-1.043.749.749 0 01.377-.321.908.908 0 00.151-1.617 3.038 3.038 0 01.063-5.192.908.908 0 00-.176-1.644.758.758 0 01-.416-1.105.752.752 0 011.008-.284.908.908 0 001.322-.968 3.081 3.081 0 01-.053-.566 3.033 3.033 0 011.183-2.4 3.638 3.638 0 00.216.416l.192.318a3.424 3.424 0 01.466 1.675A3.815 3.815 0 009.8 11.618a1.713 1.713 0 01.066.471 1.643 1.643 0 01-1.34 1.643.908.908 0 00-.734 1.068 3.074 3.074 0 01.059.6c0 .081 0 .167-.012.263a.908.908 0 00.728.968 1.653 1.653 0 011.3 1.636 1.707 1.707 0 01-.225.85.908.908 0 00.226 1.166 3.031 3.031 0 01.715.8.909.909 0 001.065.386 1.7 1.7 0 01.546-.09 1.659 1.659 0 011.574 1.093.908.908 0 001.049.587 2.975 2.975 0 011.023-.043.909.909 0 00.965-.58 1.667 1.667 0 011.562-1.058 1.691 1.691 0 01.714.156.908.908 0 001.169-.374 3.036 3.036 0 01.7-.838.908.908 0 00.2-1.173 1.7 1.7 0 01-.247-.887 1.639 1.639 0 011.443-1.658.908.908 0 00.811-.973 3.078 3.078 0 01-.01-.237 3.08 3.08 0 01.055-.578.908.908 0 00-.819-1.076 1.65 1.65 0 01-1.483-1.651 1.726 1.726 0 01.051-.418 3.8 3.8 0 003-3.445 3.418 3.418 0 01.466-1.675l.192-.318a3.628 3.628 0 00.183-.345 3.032 3.032 0 011.093 2.333 3.078 3.078 0 01-.054.569.908.908 0 001.324.967.749.749 0 01.743.013.76.76 0 01.269 1.039.749.749 0 01-.382.323.908.908 0 00-.128 1.637 3.038 3.038 0 01.016 5.26.908.908 0 00-.012 1.563.762.762 0 01.263 1.035.753.753 0 01-.913.327.909.909 0 00-.914.167zm-6.817-1.7q-.1.107-.187.221a3.514 3.514 0 00-3.678 1.537c-.089 0-.177 0-.266.009a3.508 3.508 0 00-3.4-1.593q-.109-.133-.227-.258a3.539 3.539 0 00.166-1.07 3.5 3.5 0 00-1.844-3.09 3.48 3.48 0 001.844-3.092 3.563 3.563 0 00-.021-.377h.644a4.078 4.078 0 002.806-1.118 3.8 3.8 0 00.771 0 4.077 4.077 0 002.806 1.118h.416a3.556 3.556 0 00-.02.377 3.51 3.51 0 001.846 3.087 3.481 3.481 0 00-1.846 3.095 3.539 3.539 0 00.193 1.154zM15.5 4.917a1.941 1.941 0 11-1.936 1.941A1.941 1.941 0 0115.5 4.917zm7.553.378l-.192.318a5.238 5.238 0 00-.726 2.564A1.952 1.952 0 0120.484 9.9h-1.792a2.267 2.267 0 01-.8-.146 3.753 3.753 0 00.078-5.718 4.868 4.868 0 013.33-1.324h.4a1.613 1.613 0 011.389.868 1.709 1.709 0 01-.035 1.714zM16.269 3.18a3.751 3.751 0 00-1.538 0 6.8 6.8 0 00-.925-.872 3.012 3.012 0 013.347.032 6.775 6.775 0 00-.884.84zm-8.358.4A1.613 1.613 0 019.3 2.713h.4a4.868 4.868 0 013.335 1.32 3.753 3.753 0 00.078 5.718 2.265 2.265 0 01-.8.146h-1.797a1.952 1.952 0 01-1.652-1.719 5.238 5.238 0 00-.726-2.564l-.192-.318a1.71 1.71 0 01-.036-1.714zm0 0"/><path data-name="Path 21" d="M27.533 15.556a1.208 1.208 0 10-1.208 1.212 1.21 1.21 0 001.208-1.212zm0 0"/><path data-name="Path 22" d="M7.322 11.919a1.208 1.208 0 10-1.208 1.212 1.21 1.21 0 001.208-1.212zm0 0"/><path data-name="Path 23" d="M23.259 22.738a1.208 1.208 0 10-1.208 1.212 1.21 1.21 0 001.208-1.212zm0 0"/><path data-name="Path 24" d="M8.857 19.828a1.208 1.208 0 10-1.208 1.212 1.21 1.21 0 001.208-1.212zm0 0"/><path data-name="Path 25" d="M15.069 25.86a1.208 1.208 0 10-1.208 1.212 1.21 1.21 0 001.208-1.212zm0 0"/></g></svg>