<svg xmlns="http://www.w3.org/2000/svg" width="31.25" height="25"><path d="M30.564 14.347L20.6 24.314a2.344 2.344 0 01-3.315 0l-.087-.087 1.1-1.1.087.087a.781.781 0 001.1 0l9.967-9.967a.782.782 0 000-1.1L19.113 1.791a.776.776 0 00-.552-.229h-.955L16.043 0h2.517a2.344 2.344 0 011.657.686l10.346 10.346a2.344 2.344 0 01.001 3.315zM12.31 1.562H2.344a.782.782 0 00-.781.781v9.967a.776.776 0 00.229.552l10.345 10.347a.781.781 0 001.1 0l9.967-9.967a.782.782 0 000-1.1L12.863 1.791a.776.776 0 00-.552-.229M12.31 0a2.344 2.344 0 011.657.686l10.347 10.346a2.344 2.344 0 010 3.315l-9.967 9.967a2.344 2.344 0 01-3.315 0L.686 13.968A2.344 2.344 0 010 12.31V2.344A2.344 2.344 0 012.344 0zM7.031 6.055a.977.977 0 10.977.977.978.978 0 00-.977-.977m0-1.367a2.344 2.344 0 11-2.344 2.343 2.344 2.344 0 012.344-2.344z" fill="#4a4a4a"/></svg>