<svg xmlns="http://www.w3.org/2000/svg" width="32.36" height="29.248"><path data-name="1325596" d="M32.36 9.646a3.427 3.427 0 00-3.423-3.423h-6.092l.76-.217A3.062 3.062 0 0022.764 0h-.582a3.047 3.047 0 00-2.392 1.149L17.113 4.5V.933a.934.934 0 00-1.867 0V4.5L12.57 1.149A3.046 3.046 0 0010.179 0H9.6a3.062 3.062 0 00-.841 6.006l.76.217H3.423A3.422 3.422 0 002.8 13.01v13.438a2.8 2.8 0 002.8 2.8h21.159a2.8 2.8 0 002.8-2.8V13.01a3.427 3.427 0 002.8-3.365zM21.248 2.315a1.189 1.189 0 01.933-.448h.583a1.195 1.195 0 01.328 2.344l-4.356 1.244zM8.4 3.062a1.2 1.2 0 011.2-1.195h.582a1.189 1.189 0 01.933.448l2.512 3.14-4.359-1.244A1.2 1.2 0 018.4 3.062zM4.667 18.669h2.8a1.556 1.556 0 110 3.112h-2.8zm0 7.779v-2.8h2.8a3.423 3.423 0 100-6.845h-2.8v-3.735h8.09v14.313H5.6a.934.934 0 01-.933-.933zm9.957.933V13.068h3.112v14.313zm12.135 0H19.6V13.068h8.09V16.8h-2.8a3.423 3.423 0 100 6.845h2.8v2.8a.934.934 0 01-.933.933zm.933-5.6h-2.8a1.556 1.556 0 010-3.112h2.8zM28.937 11.2H3.423a1.556 1.556 0 010-3.111h25.514a1.556 1.556 0 010 3.111zm0 0" fill="#CB0000"/></svg>