<svg xmlns="http://www.w3.org/2000/svg" width="24" height="30.039"><path data-name="110015" d="M20.632 6.669h-4.754a9.623 9.623 0 01.216-1.111 9.008 9.008 0 01.9-2.236 1.14 1.14 0 00-.842-1.695L3.791.01a1.139 1.139 0 00-1.01 1.875 9.179 9.179 0 012.213 5.924 8.959 8.959 0 01-2.02 5.7 8.9 8.9 0 01-.6.674 1.05 1.05 0 00-.077.086A10.39 10.39 0 005.403 29.9a1.14 1.14 0 00.548.141h8.892a1.138 1.138 0 00.548-.141 10.406 10.406 0 005.322-7.835h2.147a1.139 1.139 0 001.139-1.139V10.037a3.371 3.371 0 00-3.367-3.368zM14.541 27.76H6.254a8.125 8.125 0 01-3.975-6.981 8.021 8.021 0 011.76-5.041c.247-.254.487-.523.71-.8a11.25 11.25 0 002.16-9.944 11.319 11.319 0 00-.915-2.4l8.312 1.089a11.49 11.49 0 00-.42 1.31 11.247 11.247 0 002.159 9.942c.228.282.467.552.711.8a8.026 8.026 0 011.76 5.041 8.124 8.124 0 01-3.975 6.984zm7.18-7.975h-.977a10.432 10.432 0 00-2.247-5.518 1.153 1.153 0 00-.077-.086 8.264 8.264 0 01-.6-.677 8.94 8.94 0 01-1.947-4.555h4.762a1.09 1.09 0 011.091 1.088z" fill="#CB0000"/></svg>