<svg xmlns="http://www.w3.org/2000/svg" width="30" height="25.962"><g data-name="1325593" fill="#CB0000"><path data-name="Path 18" d="M28.706 13.094a30.142 30.142 0 01-9.589 3.046 28.256 28.256 0 01-8.232 0 30.142 30.142 0 01-9.586-3.046.865.865 0 00-.858 1.5 29.608 29.608 0 007.042 2.648l-.493.854a2.85 2.85 0 00-3.722 2.124.851.851 0 00-.014.093l-.127 1.361a2.665 2.665 0 004.195 2.422l1.115-.791a.825.825 0 00.074-.058 2.851 2.851 0 00-.022-4.285l.77-1.334q.669.127 1.376.23a30.793 30.793 0 003.5.305v1.22a2.85 2.85 0 00-2.161 3.7.865.865 0 00.034.087l.571 1.242a2.665 2.665 0 004.843 0l.57-1.242a.925.925 0 00.035-.087 2.851 2.851 0 00-2.161-3.7v-1.22a30.794 30.794 0 003.5-.305q.707-.1 1.377-.23l.77 1.334a2.851 2.851 0 00-.022 4.285.859.859 0 00.074.058l1.115.791a2.665 2.665 0 004.195-2.422l-.127-1.361a.909.909 0 00-.014-.093 2.851 2.851 0 00-3.722-2.124l-.493-.854a29.615 29.615 0 007.047-2.641.865.865 0 00-.858-1.5zM7.589 21.67a1.113 1.113 0 01-.2.251l-1.071.759a.934.934 0 01-1.471-.849l.122-1.307a1.12 1.12 0 011.649-.706l.558.322a1.13 1.13 0 01.41 1.53zm8.853.508a1.123 1.123 0 01-.045.316l-.548 1.193a.934.934 0 01-1.7 0l-.548-1.193a1.12 1.12 0 011.075-1.436h.644a1.121 1.121 0 011.122 1.12zm6.378-2.038l.558-.322a1.12 1.12 0 011.649.706l.122 1.307a.934.934 0 01-1.471.849l-1.071-.759a1.12 1.12 0 01.213-1.781zm0 0"/><path data-name="Path 19" d="M.436 1.617a29.6 29.6 0 007.047 2.641l-.493.854a2.85 2.85 0 00-3.722 2.123.846.846 0 00-.014.093l-.127 1.361a2.665 2.665 0 004.195 2.422l1.115-.79a.827.827 0 00.074-.059 2.85 2.85 0 00-.022-4.285l.77-1.333q.669.126 1.376.23a30.741 30.741 0 003.5.305v1.22a2.85 2.85 0 00-2.161 3.7.845.845 0 00.034.087l.571 1.242a2.665 2.665 0 004.843 0l.57-1.242a.9.9 0 00.035-.087 2.851 2.851 0 00-2.161-3.7v-1.22a30.742 30.742 0 003.5-.305q.707-.1 1.377-.23l.77 1.333a2.85 2.85 0 00-.022 4.285.862.862 0 00.074.059l1.115.79a2.665 2.665 0 004.193-2.422l-.127-1.361a.9.9 0 00-.014-.093 2.851 2.851 0 00-3.722-2.124l-.493-.854a29.591 29.591 0 007.047-2.641.865.865 0 00-.858-1.5 30.147 30.147 0 01-9.59 3.046 28.756 28.756 0 01-4.116.3 28.758 28.758 0 01-4.116-.3A30.141 30.141 0 011.298.114a.865.865 0 00-.858 1.5zm22.385 5.542l.558-.322a1.12 1.12 0 011.649.706l.122 1.307a.934.934 0 01-1.471.849l-1.071-.759a1.12 1.12 0 01.213-1.781zm-7.5.918a1.12 1.12 0 011.077 1.436l-.548 1.193a.934.934 0 01-1.7 0l-.548-1.193a1.12 1.12 0 011.076-1.436zm-7.732.612a1.108 1.108 0 01-.2.251l-1.068.759A.934.934 0 014.85 8.85l.122-1.307a1.12 1.12 0 011.649-.706l.558.322a1.13 1.13 0 01.41 1.53zm0 0"/></g></svg>