<svg xmlns="http://www.w3.org/2000/svg" width="20" height="30.214"><path data-name="110026" d="M18.981 6.668H11.02V2.039h1.432a1.02 1.02 0 100-2.039H10a1.019 1.019 0 00-1.019 1.019v5.649H1.019A1.019 1.019 0 000 7.687v3.823a1.019 1.019 0 001.019 1.019h1.438l1.131 16.734a1.019 1.019 0 001.017.951h10.79a1.019 1.019 0 001.017-.951l1.131-16.733h1.438A1.019 1.019 0 0020 11.511V7.687a1.019 1.019 0 00-1.019-1.019zm-4.539 21.507H5.558L4.501 12.53h11zm3.519-17.684H2.039V8.707h15.922v1.784z" fill="#4a4a4a"/></svg>