<svg xmlns="http://www.w3.org/2000/svg" width="20.74" height="20.735"><path d="M10.375 5.051a5.316 5.316 0 105.316 5.316 5.308 5.308 0 00-5.316-5.316zm0 8.773a3.456 3.456 0 113.456-3.456 3.463 3.463 0 01-3.456 3.456zm6.774-8.99a1.24 1.24 0 11-1.24-1.24 1.237 1.237 0 011.237 1.24zm3.521 1.259a6.137 6.137 0 00-1.675-4.345A6.177 6.177 0 0014.648.075c-1.712-.1-6.843-.1-8.555 0a6.168 6.168 0 00-4.345 1.67A6.157 6.157 0 00.075 6.088c-.1 1.712-.1 6.843 0 8.555a6.137 6.137 0 001.675 4.345 6.185 6.185 0 004.345 1.675c1.712.1 6.843.1 8.555 0a6.137 6.137 0 004.345-1.675 6.177 6.177 0 001.675-4.345c.095-1.712.095-6.838-.003-8.55zM18.456 16.48a3.5 3.5 0 01-1.971 1.971c-1.365.541-4.6.416-6.112.416s-4.752.12-6.112-.416A3.5 3.5 0 012.29 16.48c-.542-1.365-.415-4.605-.415-6.112s-.12-4.752.416-6.112A3.5 3.5 0 014.26 2.285c1.365-.541 4.6-.416 6.112-.416s4.752-.12 6.112.416a3.5 3.5 0 011.971 1.971c.541 1.365.416 4.6.416 6.112s.126 4.752-.415 6.112z" fill="#fff"/></svg>