<svg xmlns="http://www.w3.org/2000/svg" width="191.212" height="95"><path data-name="Intersection 2" d="M167.155 95a118.462 118.462 0 00-.355-95h15.533a133.884 133.884 0 01.332 95zm-93.493 0l-.178-.176a25.58 25.58 0 1136.205 0l-.178.176zm9.945-26.2a11.255 11.255 0 007.979 19.234 11.114 11.114 0 007.979-3.275 11.255 11.255 0 00-7.979-19.234 11.113 11.113 0 00-7.979 3.275zM7.091 95a7.153 7.153 0 011.6-7.68L96.075 0h10.936a7.155 7.155 0 01-.417 9.67L21.262 95zM7.5 36.942A25.589 25.589 0 017.5.737Q7.88.36 8.271 0h34.662q.394.36.776.737a25.589 25.589 0 010 36.205 25.59 25.59 0 01-36.206 0zM17.627 10.86a11.367 11.367 0 00-3.275 7.979 11.113 11.113 0 003.275 7.979 11.363 11.363 0 007.98 3.275A11.183 11.183 0 0036.861 18.84a11.114 11.114 0 00-3.275-7.979 11.363 11.363 0 00-7.979-3.275 11.115 11.115 0 00-7.98 3.274z" fill="#ebebeb" opacity=".5"/></svg>