<svg xmlns="http://www.w3.org/2000/svg" width="75.217" height="75.217"><path data-name="Path 235" d="M44.954 67.871a1.469 1.469 0 101.469-1.469 1.47 1.47 0 00-1.469 1.469zm0 0" fill="#cb0000"/><path data-name="Path 236" d="M40.547 66.402H28.794a1.469 1.469 0 100 2.938h11.753a1.469 1.469 0 100-2.938zm0 0" fill="#cb0000"/><path data-name="Path 237" d="M75.212 42.506q0-.059-.012-.115c0-.017 0-.034-.007-.05a1.66 1.66 0 00-.034-.147.144.144 0 010-.015 1.513 1.513 0 00-.061-.164v-.007L63.747 16.485l5.163-5.163a1.469 1.469 0 00-2.077-2.077l-5.219 5.219-16.749-5.988a7.345 7.345 0 10-14.514 0L13.6 14.463 8.384 9.245a1.469 1.469 0 10-2.077 2.077l5.162 5.163L.127 42.006v.007a1.427 1.427 0 00-.061.164.1.1 0 010 .014c-.014.048-.025.1-.034.147 0 .017-.005.034-.007.05-.006.038-.01.076-.012.115v.098a13.222 13.222 0 1026.443 0v-.098q0-.059-.012-.115c0-.017 0-.034-.007-.05a1.66 1.66 0 00-.034-.147.143.143 0 010-.015 1.513 1.513 0 00-.061-.164v-.007l-11.109-25 16.169-5.78A7.388 7.388 0 0033.2 13.22V52.7a10.373 10.373 0 00-2.865 2.019 10.213 10.213 0 00-2.914 5.881 13.241 13.241 0 00-11.849 13.148 1.469 1.469 0 001.469 1.469h41.135a1.469 1.469 0 001.469-1.469A13.241 13.241 0 0047.8 60.6a10.212 10.212 0 00-2.916-5.874 10.351 10.351 0 00-2.868-2.026V13.22a7.391 7.391 0 001.825-1.99l16.169 5.78-11.109 25v.007a1.512 1.512 0 00-.061.164.143.143 0 010 .015c-.014.048-.025.1-.034.147 0 .017-.005.033-.007.05q-.009.057-.012.115v.098a13.222 13.222 0 1026.443 0v-.098zm-37.6 9.206a10.344 10.344 0 00-1.469.106V14.541a7.307 7.307 0 002.938 0v37.277a10.344 10.344 0 00-1.473-.107zm0-48.774a4.408 4.408 0 11-4.128 5.956 4.41 4.41 0 014.128-5.955zM20.494 49.875a10.283 10.283 0 01-17.449-5.8H23.4a10.207 10.207 0 01-2.907 5.8zm-5.8-8.74v-4.408a1.469 1.469 0 00-2.938 0v4.407H3.729l9.492-21.357 9.492 21.357zM56.6 72.279H18.615a10.3 10.3 0 0110.179-8.814h17.629A10.3 10.3 0 0156.6 72.279zM44.807 60.526H30.41a7.3 7.3 0 012-3.726 7.412 7.412 0 012.745-1.734 7.352 7.352 0 019.648 5.459zM62 19.777l9.492 21.357h-8.028v-4.407a1.469 1.469 0 10-2.938 0v4.407H52.5zm7.272 30.1a10.283 10.283 0 01-17.449-5.8h20.351a10.207 10.207 0 01-2.907 5.8zm0 0"/></svg>