<svg xmlns="http://www.w3.org/2000/svg" width="16" height="14"><path d="M4.667 5.75v2.5a.75.75 0 01-.75.75H.75A.75.75 0 010 8.25v-2.5A.75.75 0 01.75 5h3.167a.75.75 0 01.75.75zM0 10.75v2.5a.75.75 0 00.75.75h3.167a.75.75 0 00.75-.75v-2.5a.75.75 0 00-.75-.75H.75a.75.75 0 00-.75.75zM3.917 0H.75A.75.75 0 000 .75v2.5A.75.75 0 00.75 4h3.167a.75.75 0 00.75-.75V.75a.75.75 0 00-.75-.75zm2.5 14h8.833a.75.75 0 00.75-.75v-2.5a.75.75 0 00-.75-.75H6.417a.75.75 0 00-.75.75v2.5a.75.75 0 00.75.75zM5.667.75v2.5a.75.75 0 00.75.75h8.833a.75.75 0 00.75-.75V.75a.75.75 0 00-.75-.75H6.417a.75.75 0 00-.75.75zM6.417 9h8.833a.75.75 0 00.75-.75v-2.5a.75.75 0 00-.75-.75H6.417a.75.75 0 00-.75.75v2.5a.75.75 0 00.75.75z"/></svg>