<svg xmlns="http://www.w3.org/2000/svg" width="17.231" height="14"><path d="M4.308 2.288V.942a.538.538 0 01.538-.538h11.846a.538.538 0 01.538.538v1.346a.538.538 0 01-.538.538H4.846a.538.538 0 01-.538-.538zm.538 5.923h11.846a.538.538 0 00.538-.538V6.327a.538.538 0 00-.538-.538H4.846a.538.538 0 00-.538.538v1.346a.538.538 0 00.538.539zm0 5.385h11.846a.538.538 0 00.538-.538v-1.346a.538.538 0 00-.538-.538H4.846a.538.538 0 00-.538.538v1.346a.538.538 0 00.538.542zM.538 3.231h2.154a.538.538 0 00.538-.538V.538A.538.538 0 002.692 0H.538A.538.538 0 000 .538v2.154a.538.538 0 00.538.539zm0 5.385h2.154a.538.538 0 00.538-.538V5.923a.538.538 0 00-.538-.538H.538A.538.538 0 000 5.923v2.154a.538.538 0 00.538.538zm0 5.384h2.154a.538.538 0 00.538-.538v-2.154a.538.538 0 00-.538-.538H.538a.538.538 0 00-.538.538v2.154A.538.538 0 00.538 14z"/></svg>