<svg xmlns="http://www.w3.org/2000/svg" xmlns:xlink="http://www.w3.org/1999/xlink" width="170" height="47"><defs><linearGradient id="a" x1=".669" y1=".192" x2=".263" y2=".776" gradientUnits="objectBoundingBox"><stop offset="0" stop-color="#c32e45"/><stop offset="1" stop-color="#700e19"/></linearGradient><linearGradient id="b" x1=".5" y1="0" x2=".5" y2="1" xlink:href="#a"/><linearGradient id="c" x1=".5" y1="0" x2=".5" y2="1" xlink:href="#a"/><linearGradient id="d" x1=".833" y1=".01" x2="-.098" y2=".904" xlink:href="#a"/></defs><g data-name="Ресурс 1"><g data-name="Слой 1"><g data-name="Group 62"><g data-name="Group 58"><path data-name="Path 91" d="M46.943 23.322v-.255a.477.477 0 000-.075 23.465 23.465 0 10-3.648 13.106 23.419 23.419 0 003.651-12.6c.001-.056.001-.12-.003-.176z" fill="#fff"/><path data-name="Path 92" d="M86.018 23.041v.259a5 5 0 01-9.34 2.409l-.086-.161L62.55 0a23.469 23.469 0 0123.465 22.967.476.476 0 01.003.074z" transform="translate(-39.076)" fill="url(#a)"/><path data-name="Path 93" d="M46.946 23.5a23.419 23.419 0 01-3.651 12.6A23.48 23.48 0 1123.474 0l14.054 25.571.086.162a5 5 0 009.34-2.412 1.389 1.389 0 00-.008.179z" fill="#fff"/><path data-name="Path 94" d="M43.291 36.054H3.661L23.474 0l14.042 25.543.086.161z" fill="none"/><path data-name="Path 95" d="M35.78 50.252L45.826 31.97l10.049 18.282z" transform="translate(-22.351 -19.952)" fill="url(#b)"/><path data-name="Path 96" d="M28.7 102.128c-.075-.041-.15-.079-.225-.124a5 5 0 012.394-9.344h29.337a23.476 23.476 0 01-31.439 9.509z" transform="translate(-16.209 -57.838)" fill="url(#c)"/><path data-name="Path 97" d="M10.5 8.992c.075-.045.143-.094.218-.135a5 5 0 017.043 6.582l-.09.161-14 25.566a23.476 23.476 0 016.757-32.133z" transform="translate(.006 -5.07)" fill="url(#d)"/></g><g data-name="Group 61"><g data-name="Group 59" fill="#010101"><path data-name="Path 98" d="M54.775 26.349a4.349 4.349 0 01-1.373-.158.664.664 0 01-.432-.7c0-.244.173-.492.522-.751a3.216 3.216 0 00.514-.375 1.178 1.178 0 00.244-.424l.889-2.792c.221-.683.458-1.366.72-2.049s.563-1.411.882-2.191.627-1.471.889-2.068.608-1.373 1.032-2.334a41.681 41.681 0 011.854-3.753 1.471 1.471 0 01.675-.724 3.2 3.2 0 011.126-.154 2.533 2.533 0 011.426.293 3 3 0 01.822 1.235l5.11 11.988.878 2.6a1.422 1.422 0 00.263.458 2.754 2.754 0 00.492.349.818.818 0 01.465.717c0 .57-.424.856-1.268.856h-4.218a3.587 3.587 0 01-1.1-.143.615.615 0 01-.424-.683.653.653 0 01.131-.428 1.978 1.978 0 01.428-.3 3 3 0 00.4-.255.353.353 0 00.116-.281 4.091 4.091 0 00-.173-.788c-.113-.405-.255-.882-.428-1.426s-.311-.957-.4-1.216l-.12-.4h-7c-.068.236-.188.608-.375 1.126s-.319.942-.42 1.317a3.588 3.588 0 00-.15.9.822.822 0 00.158.552 1.775 1.775 0 00.488.375 2.6 2.6 0 01.488.375.649.649 0 01.158.469.623.623 0 01-.465.649 5.077 5.077 0 01-1.463.154zm9.239-7.974l-.131-.4-2.672-6.233-2.792 6.634z"/><path data-name="Path 99" d="M83.588 16.255a9.077 9.077 0 012.758.623 4.454 4.454 0 011.929 1.463 3.933 3.933 0 01.713 2.413 5.13 5.13 0 01-.514 2.252 5.8 5.8 0 01-1.561 1.906 7.6 7.6 0 01-2.533 1.321 11.07 11.07 0 01-3.415.488 11.3 11.3 0 01-4.766-.949 7.7 7.7 0 01-2.049-1.5 2.762 2.762 0 01-.927-1.955 1.478 1.478 0 01.345-.957 1.1 1.1 0 01.886-.42 1.7 1.7 0 011.388.927c.4.6.69 1.013.878 1.246a3.947 3.947 0 00.829.724 5.711 5.711 0 003.193.9 4.263 4.263 0 001.854-.42 3.7 3.7 0 001.441-1.175 2.908 2.908 0 00.548-1.726 3.835 3.835 0 00-.514-2.041 3.122 3.122 0 00-1.448-1.246 5.347 5.347 0 00-2.179-.414h-2.252a1.126 1.126 0 01-.837-.315 1 1 0 01-.311-.728.968.968 0 01.293-.7 1.073 1.073 0 01.807-.3h2.3a3.238 3.238 0 002.394-.916 3.13 3.13 0 00.919-2.327 2.5 2.5 0 00-.469-1.452 3.343 3.343 0 00-1.193-1.073 3.04 3.04 0 00-1.445-.375 4.627 4.627 0 00-2.251.469 3.989 3.989 0 00-1.366 1.227c-.349.5-.638.927-.863 1.265a.987.987 0 01-.781.5c-.612 0-.916-.341-.916-1.024a9.453 9.453 0 01.173-2.252 1.291 1.291 0 01.668-.732 11.351 11.351 0 012.754-.949 14.031 14.031 0 013-.341 12.95 12.95 0 013.779.492 5.254 5.254 0 012.5 1.542 3.929 3.929 0 01.893 2.627 2.942 2.942 0 01-.615 1.752 4.878 4.878 0 01-1.689 1.433 6.034 6.034 0 01-2.348.717z"/><path data-name="Path 100" d="M92.738 26.349a4.349 4.349 0 01-1.373-.158.664.664 0 01-.42-.7c0-.244.173-.492.522-.751a3.216 3.216 0 00.514-.375 1.179 1.179 0 00.244-.424l.889-2.792c.221-.683.458-1.366.72-2.049s.544-1.411.863-2.191.627-1.471.889-2.068.608-1.373 1.032-2.334a41.685 41.685 0 011.854-3.753 1.471 1.471 0 01.675-.724 3.186 3.186 0 011.126-.154 2.533 2.533 0 011.426.293 3 3 0 01.829 1.235l5.107 11.986.878 2.6a1.422 1.422 0 00.263.458 2.754 2.754 0 00.492.349.818.818 0 01.465.717c0 .57-.424.856-1.268.856h-4.218a3.587 3.587 0 01-1.1-.143.615.615 0 01-.424-.683.653.653 0 01.131-.428 1.978 1.978 0 01.428-.3 3 3 0 00.4-.255.349.349 0 00.113-.281 3.973 3.973 0 00-.169-.788c-.113-.405-.255-.882-.428-1.426s-.311-.957-.4-1.216l-.12-.4h-7c-.068.236-.188.608-.375 1.126s-.319.942-.42 1.317a3.621 3.621 0 00-.154.9.822.822 0 00.161.552 1.775 1.775 0 00.488.375 2.6 2.6 0 01.488.375.649.649 0 01.158.469.623.623 0 01-.465.649 5.077 5.077 0 01-1.463.154zm9.239-7.974l-.131-.4-2.672-6.233-2.792 6.634z"/><path data-name="Path 101" d="M116.431 10.694a.582.582 0 00-.128-.409 2.627 2.627 0 00-.42-.341 1.733 1.733 0 01-.447-.42 1.062 1.062 0 01-.15-.612c0-.559.465-.841 1.4-.841h10.56c.822 0 1.231.281 1.231.841a.634.634 0 01-.139.454 2.709 2.709 0 01-.469.353l-.27.158a.634.634 0 00-.375.42 3.981 3.981 0 00-.079.946v11.936a3.853 3.853 0 00.079.931.675.675 0 00.375.435l.27.158a2.251 2.251 0 01.462.334.645.645 0 01.146.458c0 .57-.409.856-1.231.856h-4.743c-.814 0-1.22-.285-1.22-.856a.645.645 0 01.135-.45 2.207 2.207 0 01.462-.341l.27-.158a.676.676 0 00.375-.435 3.853 3.853 0 00.079-.931V11.415a1.7 1.7 0 00-.334-1.216 2.2 2.2 0 00-1.434-.323h-.5a1.831 1.831 0 00-1.441.848 12.448 12.448 0 00-1.28 2.188q-.856 1.779-1.621 3.824a38.653 38.653 0 00-1.242 3.846 11.363 11.363 0 00-.488 2.792 1.043 1.043 0 00.229.72 2.671 2.671 0 00.672.473 3.722 3.722 0 01.657.42.728.728 0 01.221.582c0 .518-.477.781-1.426.781h-2.856c-.916 0-1.377-.278-1.377-.829a1.186 1.186 0 01.514-.878 2.447 2.447 0 00.6-.63 4.706 4.706 0 00.33-.908q.326-1.227.751-2.54t.946-2.694c.341-.923.668-1.764.987-2.525s.683-1.6 1.1-2.529a9.311 9.311 0 00.819-2.123z"/><path data-name="Path 102" d="M136.894 23.178a3.589 3.589 0 00.086.931.709.709 0 00.375.435l.27.158a2.094 2.094 0 01.458.334.661.661 0 01.139.458c0 .57-.405.856-1.22.856h-4.754c-.818 0-1.231-.285-1.231-.856a.646.646 0 01.139-.443 2.188 2.188 0 01.473-.349l.266-.158a.675.675 0 00.375-.435 3.853 3.853 0 00.079-.931V11.241a3.753 3.753 0 00-.083-.946.709.709 0 00-.375-.432l-.266-.146a2.9 2.9 0 01-.477-.375.645.645 0 01-.135-.443c0-.559.413-.841 1.231-.841h4.743c.814 0 1.22.281 1.22.841a.649.649 0 01-.135.454 2.458 2.458 0 01-.462.353l-.27.146a.668.668 0 00-.375.428 3.753 3.753 0 00-.086.949v8.256l7.438-7.505v-.751a3.534 3.534 0 00-.086-.946.69.69 0 00-.375-.432l-.27-.146a2.824 2.824 0 01-.473-.375.645.645 0 01-.124-.443c0-.559.409-.841 1.22-.841h4.743c.814 0 1.22.281 1.22.841a.649.649 0 01-.135.454 2.338 2.338 0 01-.462.353l-.27.146a.668.668 0 00-.375.428 3.755 3.755 0 00-.086.949v11.961a3.587 3.587 0 00.086.931.709.709 0 00.375.435l.27.158a2.094 2.094 0 01.458.334.679.679 0 01.139.458c0 .57-.405.856-1.22.856h-4.721c-.811 0-1.22-.285-1.22-.856a.645.645 0 01.135-.45 2.208 2.208 0 01.462-.341l.27-.158a.675.675 0 00.375-.435 3.853 3.853 0 00.079-.931v-8.572l-7.437 7.505z"/><path data-name="Path 103" d="M164.118 18.728l-2.462-.4a14.415 14.415 0 00-1.291 1.767 21.115 21.115 0 00-1.268 2.315 4.733 4.733 0 00-.537 1.745.477.477 0 00.124.353 2.17 2.17 0 00.394.293 1.936 1.936 0 01.409.319.563.563 0 01.146.4.642.642 0 01-.413.683 3.332 3.332 0 01-1.084.146h-4.9c-.867 0-1.3-.244-1.3-.751a.533.533 0 01.135-.42 3.32 3.32 0 01.473-.323 2.15 2.15 0 00.709-.574 5.5 5.5 0 00.488-.953 19.21 19.21 0 013.475-6.094 8.052 8.052 0 01-2.743-2 4.188 4.188 0 01-1.051-2.826 3.9 3.9 0 01.634-2.158 4.154 4.154 0 011.7-1.5 9.669 9.669 0 014.128-.672l8.89.026c.822 0 1.231.281 1.231.841a.645.645 0 01-.135.45 2.309 2.309 0 01-.462.353l-.281.146a.7.7 0 00-.375.435 3.534 3.534 0 00-.086.946v11.9a3.855 3.855 0 00.079.931.675.675 0 00.375.435l.281.158a2.323 2.323 0 01.45.334.646.646 0 01.146.458c0 .57-.409.856-1.231.856h-4.756q-1.216 0-1.216-.856a.645.645 0 01.131-.45 2.15 2.15 0 01.465-.341l.266-.158a.675.675 0 00.375-.435 3.854 3.854 0 00.083-.931zm.026-6.755a2.456 2.456 0 00-.375-1.644 2.616 2.616 0 00-1.854-.488 4.259 4.259 0 00-2.6.75 2.675 2.675 0 00-1.017 2.3 3.073 3.073 0 001.82 2.908 9.156 9.156 0 004.019.983z"/></g><g data-name="Group 60" fill="#08080d"><path data-name="Path 104" d="M58.128 38.628h-4.469a1.014 1.014 0 01-.2 0c-.105-.038-.158-.135-.158-.3s.079-.206.236-.27a.491.491 0 00.251-.064.341.341 0 00.184-.319v-4.349a.375.375 0 00-.124-.263.435.435 0 00-.311-.116.552.552 0 01-.2-.12.252.252 0 01-.038-.146q0-.225.113-.27a.567.567 0 01.206-.049h1.674c.229 0 .341.105.341.3a.2.2 0 01-.064.173.856.856 0 01-.2.109.484.484 0 00-.27.09.311.311 0 00-.139.278v4.36c0 .248.135.375.409.375h2.578a.552.552 0 00.315-.071.338.338 0 00.109-.3v-4.347a.323.323 0 00-.146-.293.537.537 0 00-.278-.09c-.15-.064-.225-.154-.225-.274a.3.3 0 01.079-.248.375.375 0 01.24-.064h1.636c.221 0 .334.105.334.308a.206.206 0 01-.056.158.716.716 0 01-.176.113 2.742 2.742 0 01-.244.1.293.293 0 00-.173.278v4.357a.334.334 0 00.236.3c.1.045.2.09.3.131a.75.75 0 01.191.439 2.629 2.629 0 01.06.462.27.27 0 01-.071.18.233.233 0 01-.18.086.315.315 0 01-.2-.068l-.154-.116a2.293 2.293 0 00-.645-.375 2.6 2.6 0 00-.771-.085z"/><path data-name="Path 105" d="M62.571 38.628a.75.75 0 01-.251-.026.274.274 0 01-.064-.454.6.6 0 01.251-.105.544.544 0 00.244-.105.345.345 0 00.086-.27v-4.316a.375.375 0 00-.1-.274.338.338 0 00-.218-.12.435.435 0 01-.255-.068.251.251 0 01-.1-.229q0-.191.1-.236a.751.751 0 01.323-.049h3.145a4.684 4.684 0 01.7.045 1.82 1.82 0 01.589.218 1.445 1.445 0 01.488.465 1.126 1.126 0 01.191.645 1.235 1.235 0 01-.375.874 2.95 2.95 0 01-.833.567 2.567 2.567 0 011.148.57 1.5 1.5 0 01.514 1.126 1.373 1.373 0 01-.221.751 1.876 1.876 0 01-.6.574 2.431 2.431 0 01-.792.315 4.435 4.435 0 01-.931.086zm1.257-3.377c.548-.105.931-.184 1.152-.236a3.5 3.5 0 001.021-.375 1.711 1.711 0 00.439-.4.751.751 0 00.15-.45.687.687 0 00-.529-.7 3.752 3.752 0 00-1.069-.105h-.6a.991.991 0 00-.458.086.176.176 0 00-.079.124.807.807 0 00-.026.218v1.839zm0 2.221v.3a.221.221 0 00.128.184 1.572 1.572 0 00.375.06h.57a6.309 6.309 0 00.8-.045 2.274 2.274 0 00.668-.191 1.013 1.013 0 00.675-.912 1.077 1.077 0 00-.492-.9 2.687 2.687 0 00-1.084-.409l-1.651.375z"/><path data-name="Path 106" d="M71.611 36.293l-.266.026a1.992 1.992 0 00.751 1.272 2.3 2.3 0 001.441.469 2.353 2.353 0 001.268-.341l1.006-.751a.259.259 0 01.173.068.206.206 0 01.079.169.878.878 0 01-.3.567 2.626 2.626 0 01-.529.447 3.377 3.377 0 01-.9.45 3.231 3.231 0 01-1 .154 3.122 3.122 0 01-2.221-.844 2.837 2.837 0 01-.9-2.165 3.485 3.485 0 013.5-3.516 2.469 2.469 0 011.347.345 1.876 1.876 0 01.589.578 1.37 1.37 0 01.233.751 1.561 1.561 0 01-.492 1.126 3 3 0 01-1.1.66 6.829 6.829 0 01-1.321.345c-.307.059-.758.119-1.358.19zm-.345-.574a9.607 9.607 0 002.2-.394c.908-.311 1.362-.784 1.362-1.43a.889.889 0 00-.33-.751 1.381 1.381 0 00-.848-.251 2.131 2.131 0 00-1.8.859 3.22 3.22 0 00-.58 1.967z"/><path data-name="Path 107" d="M81.263 37.636a.375.375 0 00.131.3.413.413 0 00.263.105.375.375 0 01.244.075.263.263 0 01.1.229.229.229 0 01-.12.214.619.619 0 01-.289.064h-1.655a1.272 1.272 0 01-.3-.026c-.075 0-.113-.105-.113-.255a.244.244 0 01.124-.233.48.48 0 01.206-.068.375.375 0 00.409-.42v-4.2a.92.92 0 00-.038-.375c-.026-.034-.116-.053-.266-.053a2.9 2.9 0 00-.811.094 1.921 1.921 0 00-.683.375.921.921 0 01-.12.105.3.3 0 01-.21.094c-.184 0-.278-.1-.278-.293a2.046 2.046 0 01.068-.529q.116-.462.375-.462h4.878c.143 0 .255.1.338.289a1.722 1.722 0 01.128.7.274.274 0 01-.075.18.225.225 0 01-.176.086.345.345 0 01-.214-.075 1.745 1.745 0 01-.131-.113 1.779 1.779 0 00-.7-.375 3.831 3.831 0 00-.792-.071c-.158 0-.251 0-.278.06a1.155 1.155 0 00-.038.417z"/><path data-name="Path 108" d="M87.409 32.972a.645.645 0 00-.135.041.375.375 0 00-.169.334v1.355a8.676 8.676 0 011.25.086 4.128 4.128 0 011.126.349 2.826 2.826 0 01.953.7 1.662 1.662 0 01.435 1.126 1.433 1.433 0 01-.938 1.388 2.585 2.585 0 01-.75.229 5.85 5.85 0 01-.9.06h-2.462a.668.668 0 01-.27-.053.218.218 0 01-.124-.225.244.244 0 01.071-.18.75.75 0 01.338-.124c.176-.034.263-.165.263-.375v-4.354a.323.323 0 00-.105-.27.529.529 0 00-.236-.113.552.552 0 01-.233-.105.255.255 0 01-.1-.2c0-.116.034-.191.105-.225a.589.589 0 01.278-.056h1.535a.6.6 0 01.323.068.244.244 0 01.1.214.266.266 0 01-.131.251.987.987 0 01-.224.079zm2.379 3.884a1.319 1.319 0 00-.927-1.2 4.2 4.2 0 00-1.756-.345v2.432a.285.285 0 00.15.165.751.751 0 00.338.086h.45a3.816 3.816 0 00.672-.049 1.5 1.5 0 00.529-.191 1.013 1.013 0 00.544-.9zm2.961-3.542v4.36a.319.319 0 00.139.281.5.5 0 00.27.09 1.043 1.043 0 01.2.105.21.21 0 01.068.173.285.285 0 01-.094.225.375.375 0 01-.251.079h-1.692a.375.375 0 01-.225-.06c-.053-.038-.079-.124-.079-.255s.079-.2.236-.266a.48.48 0 00.251-.064.345.345 0 00.188-.319v-4.338a.353.353 0 00-.128-.263.435.435 0 00-.311-.116.525.525 0 01-.2-.12.251.251 0 01-.041-.146q0-.225.113-.27a.567.567 0 01.206-.049h1.677c.229 0 .345.105.345.3a.2.2 0 01-.068.173.856.856 0 01-.2.109.5.5 0 00-.27.09.311.311 0 00-.134.281z"/><path data-name="Path 109" d="M104.377 32.298a3.208 3.208 0 012.312.938 3.047 3.047 0 01.964 2.282 3.164 3.164 0 01-.964 2.36 3.25 3.25 0 01-2.379.953 3.107 3.107 0 01-2.293-.957 3.163 3.163 0 01-.94-2.319 3.122 3.122 0 01.979-2.308 3.2 3.2 0 012.321-.949zm-.053 5.884a2.045 2.045 0 001.719-.859 2.462 2.462 0 00.417-.829 3.583 3.583 0 00.139-.987 2.785 2.785 0 00-.57-1.794 2.045 2.045 0 00-1.677-.751 1.974 1.974 0 00-1.681.829 3.047 3.047 0 00-.54 1.846 2.833 2.833 0 00.54 1.782 1.97 1.97 0 001.655.747z"/><path data-name="Path 110" d="M112.87 37.636a.375.375 0 00.131.3.413.413 0 00.263.105.375.375 0 01.244.075.263.263 0 01.1.229.229.229 0 01-.12.214.619.619 0 01-.289.064h-1.655a1.272 1.272 0 01-.3-.026c-.075 0-.113-.105-.113-.255a.244.244 0 01.124-.233.48.48 0 01.206-.068.375.375 0 00.409-.42v-4.2a.92.92 0 00-.038-.375c-.026-.034-.116-.053-.266-.053a2.9 2.9 0 00-.811.094 1.921 1.921 0 00-.683.375.921.921 0 01-.12.105.3.3 0 01-.21.094c-.184 0-.278-.1-.278-.293a2.045 2.045 0 01.068-.529q.116-.462.375-.462h4.878c.143 0 .255.1.338.289a1.789 1.789 0 01.128.7.274.274 0 01-.075.18.229.229 0 01-.176.086.345.345 0 01-.214-.075 1.745 1.745 0 01-.131-.113 1.779 1.779 0 00-.7-.375 3.831 3.831 0 00-.792-.071c-.158 0-.251 0-.278.06a1.156 1.156 0 00-.038.417z"/><path data-name="Path 111" d="M123.195 36.132q.608-1.734 1.295-3.343.78-1.812 1.546-3.216c.176-.315.281-.507.319-.567.139-.221.255-.33.341-.33s.2.079.319.236a5.321 5.321 0 01.424.664 28.381 28.381 0 011.584 3.2q.724 1.7 1.257 3.377l.514 1.43a.856.856 0 00.161.278 1.351 1.351 0 00.3.2.5.5 0 01.2.128.416.416 0 01.022.165c0 .131-.045.214-.143.244a1.336 1.336 0 01-.375.045h-1.64a.908.908 0 01-.353-.053c-.083-.034-.124-.12-.124-.251s.113-.244.338-.338.338-.21.338-.353a8.337 8.337 0 00-.338-1.16 10.338 10.338 0 00-.458-1.242h-4.3c-.12.353-.244.705-.375 1.058a3.984 3.984 0 00-.24 1.017.713.713 0 00.353.668q.349.2.349.349a.24.24 0 01-.124.244.863.863 0 01-.375.06h-1.315a1.261 1.261 0 01-.432-.064.251.251 0 01-.169-.278.4.4 0 01.214-.319 2.03 2.03 0 00.278-.218.886.886 0 00.131-.285zm1.441-1.58h3.873q-.439-1.175-.859-2.116a24.216 24.216 0 00-1.126-2.2 23.858 23.858 0 00-1.069 2.173 32.78 32.78 0 00-.821 2.139z"/><path data-name="Path 112" d="M144.342 37.75a.278.278 0 00.259.293.777.777 0 01.3.094.811.811 0 01.191.443 2.629 2.629 0 01.06.458.27.27 0 01-.071.18.233.233 0 01-.18.086.334.334 0 01-.206-.068l-.15-.124a2.142 2.142 0 00-.649-.375 2.327 2.327 0 00-.777-.113h-2.724a2.548 2.548 0 00-.822.12 2.086 2.086 0 00-.634.375 1.953 1.953 0 01-.165.131.315.315 0 01-.2.068.229.229 0 01-.218-.1.375.375 0 01-.06-.191 2.207 2.207 0 01.09-.717.33.33 0 01.319-.251.409.409 0 00.435-.33c.255-.867.533-1.662.826-2.394a16.029 16.029 0 01.987-2.019.24.24 0 000-.206.221.221 0 00-.236-.139.413.413 0 01-.24-.071.27.27 0 01-.105-.233c0-.124.038-.2.113-.233a.867.867 0 01.311-.045h3.809a.619.619 0 01.289.06.221.221 0 01.094.221.266.266 0 01-.068.2.7.7 0 01-.2.128l-.259.1a.3.3 0 00-.12.266zm-4 .3h2.657a.337.337 0 00.375-.375v-4.361a.263.263 0 00-.12-.251.469.469 0 00-.236-.064h-.874a.3.3 0 00-.161.049 1.271 1.271 0 00-.214.233 9.889 9.889 0 00-1.242 2.48 7.039 7.039 0 00-.529 2.068.188.188 0 00.1.184.48.48 0 00.24.029z"/><path data-name="Path 113" d="M150.533 32.297a3.208 3.208 0 012.312.938 3.047 3.047 0 01.964 2.282 3.163 3.163 0 01-.964 2.36 3.257 3.257 0 01-2.379.953 3.107 3.107 0 01-2.293-.957 3.163 3.163 0 01-.94-2.319 3.122 3.122 0 01.979-2.308 3.2 3.2 0 012.321-.949zm-.053 5.884a2.049 2.049 0 001.719-.859 2.462 2.462 0 00.417-.829 3.579 3.579 0 00.135-.987 2.781 2.781 0 00-.567-1.794 2.045 2.045 0 00-1.677-.751 1.97 1.97 0 00-1.681.829 3.047 3.047 0 00-.54 1.846 2.833 2.833 0 00.54 1.782 1.97 1.97 0 001.655.747z"/><path data-name="Path 114" d="M167.687 37.705v-3.228l-2.128-.375a10.638 10.638 0 00-1.246 1.7 4.529 4.529 0 00-.814 1.8.469.469 0 00.323.413c.214.105.323.218.323.341a.21.21 0 01-.15.225 1.126 1.126 0 01-.375.053h-1.955a1.092 1.092 0 01-.33-.038c-.079-.026-.12-.1-.12-.225a.24.24 0 01.105-.214l.274-.116a1 1 0 00.375-.293 2.514 2.514 0 00.263-.477q.518-1.126.912-1.824a10.34 10.34 0 011.163-1.666 4.657 4.657 0 01-1.5-.976 2.278 2.278 0 01-.675-1.629 2 2 0 01.259-1 2.1 2.1 0 01.705-.751 2.672 2.672 0 01.9-.375 5.677 5.677 0 011.088-.09h4.094a.874.874 0 01.349.053c.086.034.128.116.128.251a.263.263 0 01-.116.236.619.619 0 01-.2.079l-.259.068c-.143.053-.218.135-.218.251v7.325a1.577 1.577 0 00.056.555c.034.071.169.143.409.225a1.126 1.126 0 01.251.124.244.244 0 01.079.206.251.251 0 01-.1.218.675.675 0 01-.375.071h-1.771a1.3 1.3 0 01-.375-.038c-.071-.026-.109-.113-.109-.251a.263.263 0 01.105-.225 2.225 2.225 0 00.236-.12 2.6 2.6 0 00.27-.1.2.2 0 00.149-.183zm0-3.914v-3.16a3.675 3.675 0 00-.026-.537.4.4 0 00-.191-.278 1.126 1.126 0 00-.514-.143 7.07 7.07 0 00-.694-.034 3.8 3.8 0 00-2.18.488 1.392 1.392 0 00-.582 1.2q0 1.253 1.557 1.876a14.158 14.158 0 002.631.589z"/></g></g></g></g></g></svg>