<svg xmlns="http://www.w3.org/2000/svg" xmlns:xlink="http://www.w3.org/1999/xlink" width="180.47" height="55"><defs><linearGradient id="a" x1=".669" y1=".192" x2=".263" y2=".776" gradientUnits="objectBoundingBox"><stop offset="0" stop-color="#eacda3"/><stop offset="1" stop-color="#d6ae7b"/></linearGradient><linearGradient id="b" x1=".884" y1=".244" x2=".365" y2="1.232" xlink:href="#a"/><linearGradient id="c" x1=".648" y1="-.571" x2=".299" y2="1.135" xlink:href="#a"/><linearGradient id="d" x1=".832" y1=".01" x2="-.098" y2=".904" xlink:href="#a"/></defs><g data-name="Group 57"><g data-name="Ресурс 3"><g data-name="Слой 4"><path data-name="Path 83" d="M55 27.288v-.3a.536.536 0 000-.085 27.5 27.5 0 10-4.277 15.334A27.352 27.352 0 0055 27.496z" fill="#fff"/><path data-name="Path 84" d="M92.577 27.068v.3A5.872 5.872 0 0181.6 30.2l-.1-.191L65 0a27.578 27.578 0 0127.577 26.989.539.539 0 010 .078z" transform="translate(-37.582)" fill="url(#a)"/><path data-name="Path 85" d="M54.995 27.5a27.352 27.352 0 01-4.281 14.738A27.5 27.5 0 1127.503 0l16.443 29.92.1.19a5.855 5.855 0 0010.948-2.822z" fill="#fff"/><path data-name="Path 86" d="M50.702 42.358H4.301L27.499 0l16.438 30.008.1.191z" fill="none"/><path data-name="Path 87" d="M37.18 54.7l11.8-21.48L60.79 54.7z" transform="translate(-21.484 -19.194)" fill="url(#b)"/><path data-name="Path 88" d="M54.995 27.204a.569.569 0 010 .085v-.3z" fill="#861b2e"/><path data-name="Path 89" d="M30.192 107.4c-.089-.047-.174-.089-.263-.144a5.872 5.872 0 012.813-10.98H67.2a27.577 27.577 0 01-36.91 11.145.424.424 0 01-.098-.021z" transform="translate(-15.676 -55.594)" fill="url(#c)"/><path data-name="Path 90" d="M12.334 9.447c.085-.055.165-.11.255-.161a5.872 5.872 0 018.282 7.738l-.106.187L4.319 47.265a27.577 27.577 0 017.943-37.759z" transform="translate(.007 -4.84)" fill="url(#d)"/></g></g><text transform="translate(73.47 29)" fill="#fff" font-size="26" font-family="ProximaNova-Bold, Proxima Nova" font-weight="700"><tspan x="0" y="0">АЗАЛИЯ</tspan></text><text data-name="цветы от А до Я" transform="translate(72.987 47.162)" fill="#fff" font-size="15" font-family="ProximaNova-Light, Proxima Nova" font-weight="300"><tspan x="0" y="0">цветы от А до Я</tspan></text></g></svg>