<svg xmlns="http://www.w3.org/2000/svg" width="55.5" height="74"><g transform="translate(-932 -3896)"><path d="M956.9 3968.507c-21-30.444-24.9-33.568-24.9-44.757a27.75 27.75 0 0155.5 0c0 11.189-3.9 14.313-24.9 44.757a3.47 3.47 0 01-5.7 0z" fill="#cb0000"/><circle data-name="Ellipse 98" cx="21.086" cy="21.086" r="21.086" transform="translate(938.664 3901.414)" fill="#fff"/><g data-name="Group 455" fill="#bb2026" fill-rule="evenodd"><path data-name="Path 989" d="M963.389 3920.096c-.78.489-.47.978.132 1.6.193.205 1.621 1.311 2.167 1.712.809.589.978.325 2.446-.514a11.229 11.229 0 005.757-9.323 1.95 1.95 0 00-.6-1.678 5.948 5.948 0 00-2.419-1.4c-1.017-.308-.868.308-.839.751.277 3.432-3.404 6.867-6.644 8.852zm1.443-3.976c.223-.912-.734-1.663-1.384-2.223-2.106-1.812-5.2-2.563-7.657-1.091-1.308.78-.616 1.665.105 2.472a21.308 21.308 0 003.489 3.033c1.619 1.076 1.428 1.193 2.988.22.927-.6 2.238-1.56 2.446-2.414zm8.821 4.109a22.593 22.593 0 01-4.647 3.947c-1.267.78-1.311 1.323-.663 2.074 1.768 2.032 3.314 5.136 3.314 6.76 0 1.179.912 1.252 2.49-1.237a15.655 15.655 0 002-6.273 11.331 11.331 0 00-.751-5.61c-.572-1.223-1.147-.352-1.736.34z"/><path data-name="Path 990" d="M950.903 3911.527c.088-1.629.6-2.651-.824-2.636a6.389 6.389 0 00-3.563 1.34 3.213 3.213 0 00-1.313 2.113 7.256 7.256 0 002.121 6.667c3.83 3.822 8.626 6.486 13.272 9.3a50.764 50.764 0 014.493 2.812c1.678 1.3 3.913 3.138 3.607 5.478-.1.765-.56 1.237.029 1.237a2.907 2.907 0 002.032-2.935c.304-9.948-20.254-15.392-19.854-23.376z"/><path data-name="Path 991" d="M962.02 3931.079c-6.07-3.5-11.675-5.581-16.786-10.69-.883-.883-1.223-1.839-1.712-.883a6.155 6.155 0 00-.379 1.235c-1.712 7.479 11.3 17.537 19.012 18.3 1.942.191 4.285-.677 4.891-2.2 1.188-3.1-3.404-4.818-5.026-5.762zm4.006-18.42c.56.56 1.193 1.34 1.575.384a5.048 5.048 0 00.333-1.237 4.176 4.176 0 00-.915-3.358c-4.446-4.446-12.353-2.666-13.059 0-.355 1.355-.264 2.416.352 2.062 4.16-2.415 8.486-1.089 11.714 2.149z"/></g></g></svg>