<svg xmlns="http://www.w3.org/2000/svg" width="22.5" height="15"><path d="M21.563 0H4.375a1.878 1.878 0 00-1.768 1.25H.938A.937.937 0 000 2.188v10.625A2.187 2.187 0 002.188 15h19.375a.937.937 0 00.938-.937V.938A.938.938 0 0021.563 0zM1.875 12.813V3.125H2.5v9.688a.313.313 0 11-.625 0zm18.75.313H4.352a2.2 2.2 0 00.023-.312V1.875h16.25zM6.719 8.438h5.313a.469.469 0 00.469-.469v-3.75a.469.469 0 00-.469-.469H6.719a.469.469 0 00-.469.469v3.75a.469.469 0 00.469.469zm1.094-3.125h3.125v1.563H7.813zM6.25 10.781v-.937a.469.469 0 01.469-.469h5.313a.469.469 0 01.469.469v.938a.469.469 0 01-.469.469H6.719a.469.469 0 01-.469-.47zm7.5 0v-.937a.469.469 0 01.469-.469h4.063a.469.469 0 01.469.469v.938a.469.469 0 01-.469.469h-4.063a.469.469 0 01-.469-.47zm0-5.625v-.937a.469.469 0 01.469-.469h4.063a.469.469 0 01.469.469v.938a.469.469 0 01-.469.469h-4.063a.469.469 0 01-.469-.47zm0 2.813v-.937a.469.469 0 01.469-.469h4.063a.469.469 0 01.469.469v.938a.469.469 0 01-.469.469h-4.063a.469.469 0 01-.469-.47z" fill="#fff"/></svg>