<svg xmlns="http://www.w3.org/2000/svg" width="20" height="20"><path data-name="poll" d="M17.857 0H2.143A2.143 2.143 0 000 2.143v15.714A2.143 2.143 0 002.143 20h15.714A2.143 2.143 0 0020 17.857V2.143A2.143 2.143 0 0017.857 0zm0 17.857H2.143V2.143h15.714zm-12.5-2.143h.714A.714.714 0 006.786 15V9.286a.714.714 0 00-.714-.714h-.715a.714.714 0 00-.714.714V15a.714.714 0 00.714.714zm4.286 0h.714a.714.714 0 00.714-.714V5a.714.714 0 00-.714-.714h-.714A.714.714 0 008.929 5v10a.714.714 0 00.714.714zm4.286 0h.714a.714.714 0 00.714-.714v-2.857a.714.714 0 00-.714-.714h-.714a.714.714 0 00-.714.714V15a.714.714 0 00.714.714z" fill="#1c1c1c"/></svg>