<svg xmlns="http://www.w3.org/2000/svg" width="16.55" height="15"><path d="M15.954 5.091a5.14 5.14 0 01.6 2.449 5.205 5.205 0 01-5.223 5.133H6.207v1.535a.776.776 0 01-1.324.565L2.3 12.187a.776.776 0 010-1.1l2.586-2.586a.776.776 0 011.324.549v1.552h5.136a3.127 3.127 0 003.136-3.069 3.085 3.085 0 00-.3-1.359.775.775 0 01.155-.882l.384-.381a.775.775 0 011.233.18zM2.069 7.468a3.127 3.127 0 013.139-3.071h5.136v1.536a.776.776 0 001.324.565l2.586-2.586a.776.776 0 000-1.1L11.669.233a.776.776 0 00-1.324.566v1.534H5.224A5.205 5.205 0 000 7.461 5.139 5.139 0 00.6 9.91a.774.774 0 001.231.18l.384-.381a.775.775 0 00.155-.882 3.085 3.085 0 01-.301-1.359z"/></svg>