<svg xmlns="http://www.w3.org/2000/svg" width="12.708" height="12.402"><path d="M12.708 9.378a2.879 2.879 0 00-3.042-2.952 2.884 2.884 0 00-3.06 2.952 2.93 2.93 0 003.06 3.024 2.926 2.926 0 003.042-3.024zM10.836.216h-1.35L1.8 12.222h1.368zM8.244 9.378A1.416 1.416 0 019.666 7.83a1.426 1.426 0 011.422 1.548 1.434 1.434 0 01-1.422 1.6 1.425 1.425 0 01-1.422-1.6zM6.102 2.97A2.893 2.893 0 003.06 0 2.908 2.908 0 000 2.97a2.941 2.941 0 003.06 3.024A2.926 2.926 0 006.102 2.97zm-4.482 0a1.426 1.426 0 011.44-1.566A1.413 1.413 0 014.482 2.97a1.434 1.434 0 01-1.422 1.6 1.447 1.447 0 01-1.44-1.6z" fill="#fff"/></svg>