<svg xmlns="http://www.w3.org/2000/svg" width="36.572" height="36.579"><g data-name="Group 357" opacity=".05" fill="#1c1c1c"><path d="M36.075 31.626l-7.122-7.125a1.713 1.713 0 00-1.214-.5h-1.165A14.852 14.852 0 1024 26.575v1.164a1.713 1.713 0 00.5 1.214l7.122 7.122a1.707 1.707 0 002.422 0l2.022-2.022a1.723 1.723 0 00.009-2.427zm-21.216-7.625A9.144 9.144 0 1124 14.86a9.139 9.139 0 01-9.141 9.141z"/><path data-name="Path 212" d="M13.836 17.984a2.268 2.268 0 01-.6-1.591 2.176 2.176 0 01.419-1.301 3.055 3.055 0 01.9-.868 4.969 4.969 0 00.9-.687 1.127 1.127 0 00.416-.8.916.916 0 00-.352-.741 1.64 1.64 0 00-1.051-.284 2.823 2.823 0 00-2.223 1.12l-1.464-1.645a4.954 4.954 0 013.959-1.753 4.367 4.367 0 012.747.786 2.494 2.494 0 011.012 2.07 2.73 2.73 0 01-.307 1.3 3.024 3.024 0 01-.75.94q-.443.362-.895.669a3.768 3.768 0 00-.759.669 1.179 1.179 0 00-.307.777.967.967 0 00.325.759zm1.9 3.452a1.44 1.44 0 01-2.061 0 1.408 1.408 0 01-.434-1.03 1.408 1.408 0 01.432-1.031 1.44 1.44 0 012.061 0 1.408 1.408 0 01.434 1.03 1.408 1.408 0 01-.434 1.031z"/></g></svg>