<svg xmlns="http://www.w3.org/2000/svg" width="71.051" height="71.065"><g data-name="search (1)"><path data-name="Path 238" d="M12.492 13.88a1.388 1.388 0 10-1.388-1.388 1.389 1.389 0 001.388 1.388zm0 0" fill="#cb0000"/><path data-name="Path 239" d="M19.432 37.476h13.88a4.169 4.169 0 004.164-4.164V16.656a1.388 1.388 0 00-1.388-1.388H16.656a1.388 1.388 0 00-1.388 1.388v16.656a4.169 4.169 0 004.164 4.164zm-1.388-19.432H34.7v15.268a1.39 1.39 0 01-1.388 1.388h-13.88a1.39 1.39 0 01-1.388-1.388zm0 0"/><path data-name="Path 240" d="M26.212 29.148h.319a5.4 5.4 0 005.393-5.393v-1.547a1.388 1.388 0 00-2.776 0v1.547a2.62 2.62 0 01-2.617 2.617h-.319a2.619 2.619 0 01-2.616-2.617v-1.547a1.388 1.388 0 00-2.776 0v1.547a5.4 5.4 0 005.392 5.393zm0 0" fill="#cb0000"/><path data-name="Path 241" d="M52.8 26.269a26.4 26.4 0 10-10.91 21.35l4.281 4.281-.981.971a1.388 1.388 0 00-.01 1.964l14.077 14.2a6.944 6.944 0 0010.563-.884 7.156 7.156 0 00-.955-9.136L55 45.031a1.388 1.388 0 00-2.074.115c-.061.067-.256.271-.858.878l-4.3-4.295a26.428 26.428 0 005.032-15.46zm-4.658 23.678l-4.084-4.084a26.588 26.588 0 001.963-1.963l4.09 4.089-1.969 1.958zM2.776 26.269a23.624 23.624 0 1123.651 23.6 23.6 23.6 0 01-23.651-23.6zm51.255 21.724L66.9 60.972a4.364 4.364 0 01.67 5.556 4.166 4.166 0 01-6.344.547L48.13 53.868c1.665-1.648 4.262-4.223 5.9-5.875zm0 0"/><path data-name="Path 242" d="M36.549 44.46zm0 0"/><path data-name="Path 243" d="M47.235 26.972a20.83 20.83 0 00-21.1-21.521 20.472 20.472 0 00-9.761 2.581 1.388 1.388 0 101.309 2.449 17.5 17.5 0 018.5-2.254 18.069 18.069 0 11-15.642 9.481 1.388 1.388 0 10-2.439-1.319 20.807 20.807 0 00-1.237 2.749 20.187 20.187 0 00-.754 2.57 20.82 20.82 0 1041.125 5.26zm0 0" fill="#000a0a"/></g></svg>