<svg data-name="041-shield" xmlns="http://www.w3.org/2000/svg" width="44" height="53.638"><path data-name="Path 35" d="M21.99 30.595a1.048 1.048 0 10-1.048-1.048 1.048 1.048 0 001.048 1.048zm0 0"/><path data-name="Path 36" d="M21.391 53.443a1.047 1.047 0 001.218 0c10.674-7.624 21.39-10.97 21.39-26.657V7.364a1.048 1.048 0 00-.96-1.044l-2.723-.228A39.927 39.927 0 0122.555.159a1.048 1.048 0 00-1.111 0A39.936 39.936 0 013.683 6.093L.96 6.32a1.048 1.048 0 00-.961 1.044v19.422c0 16.13 12.222 20.108 21.391 26.657zM2.099 8.327l1.758-.146a42.024 42.024 0 0018.142-5.904 42.022 42.022 0 0018.142 5.9l1.763.147v18.462c0 14.146-9.426 17.181-19.906 24.523-9.199-6.385-19.899-10.008-19.899-24.523zm0 0"/><path data-name="Path 37" d="M21.385 45.829a1.04 1.04 0 001.221-.027c9.484-6.564 15.1-8.724 15.1-19.014V13.047a1.048 1.048 0 00-.892-1.036 46.16 46.16 0 01-14.329-4.638 1.066 1.066 0 00-1.007.023 46.131 46.131 0 01-14.3 4.614 1.047 1.047 0 00-.892 1.036v13.74c0 10.387 6.155 12.936 15.1 19.041zm-13-31.889a48.194 48.194 0 0012.561-3.947v15.36a1.05 1.05 0 002.1 0V9.986a48.231 48.231 0 0012.582 3.957v12.843c0 8.516-3.989 10.373-12.582 16.184v-9.236a1.05 1.05 0 00-2.1 0v9.268c-8.033-5.345-12.561-7.629-12.561-16.216zm0 0" fill="#cb0000"/></svg>