<svg xmlns="http://www.w3.org/2000/svg" width="22.5" height="20"><path fill="#fff" d="M21.562 2.5H5.636L5.3.757A.938.938 0 004.375 0H.469A.469.469 0 000 .469v.938a.469.469 0 00.469.469H3.6L6.322 15.77a2.5 2.5 0 103.968.48h5.67a2.5 2.5 0 103.9-.552l.04-.186a.938.938 0 00-.916-1.137H7.959L7.593 12.5H19.8a.937.937 0 00.916-.738l1.766-8.125a.937.937 0 00-.92-1.137zM8.125 18.438a.938.938 0 11.938-.937.939.939 0 01-.938.937zm10 0a.938.938 0 11.938-.937.939.939 0 01-.938.937zm.916-7.812H7.226L6 4.375h14.4l-1.359 6.25z"/></svg>