<svg xmlns="http://www.w3.org/2000/svg" width="81.718" height="75.95"><path data-name="Path 244" d="M36.767 50.494a1.6 1.6 0 10-2.258 0 1.6 1.6 0 002.258 0zm0 0" fill="#cb0000"/><path data-name="Path 245" d="M37.345 12.932v3.192a9.577 9.577 0 0019.153 0v-3.192a1.6 1.6 0 000-3.192h-3.192a1.6 1.6 0 000 3.192v3.192a6.385 6.385 0 01-12.769 0v-3.192a1.6 1.6 0 000-3.192h-3.192a1.6 1.6 0 000 3.192zm0 0" fill="#cb0000"/><path data-name="Path 246" d="M18.549 75.483a1.6 1.6 0 002.256 0l4.9-4.9a7.389 7.389 0 002.143-5.989l1.758-1.7a7.405 7.405 0 015.162-2.085h21.016A14.283 14.283 0 0065.8 56.74a1.5 1.5 0 00.113-.122l14.3-17.17a6.385 6.385 0 00-9.713-8.285l-1.544 1.6V1.6a1.6 1.6 0 00-1.6-1.6H26.335a1.6 1.6 0 00-1.6 1.6v35.76A19.2 19.2 0 0011.016 48.1 7.371 7.371 0 005.4 50.264L.47 55.166a1.6 1.6 0 000 2.261zM65.76 3.192v32.869l-4.62 4.776a6.413 6.413 0 00-4.958-2.371H37.677a.881.881 0 01-.325-.069 20.625 20.625 0 00-7.824-1.527c-.534 0-1.067.019-1.6.054V3.192zm-39.2 37.08a18.135 18.135 0 019.589 1.084 4.061 4.061 0 001.524.3h18.51a3.192 3.192 0 010 6.384H42.3a1.6 1.6 0 100 3.192h13.883a6.391 6.391 0 006.384-6.384 6.456 6.456 0 00-.057-.838c.333-.341 9.98-10.319 10.314-10.665.024-.026.049-.052.071-.079a3.195 3.195 0 114.872 4.134l-14.25 17.109a11.106 11.106 0 01-7.733 3.11H34.769a10.58 10.58 0 00-7.378 2.981l-.7.68a7.43 7.43 0 00-.98-1.208l-9.8-9.8a7.453 7.453 0 00-1.761-1.3 15.98 15.98 0 0112.421-8.693zM7.651 52.524a4.232 4.232 0 016 0l9.8 9.8a4.234 4.234 0 010 6L19.676 72.1 3.857 56.3zm0 0"/></svg>