<svg xmlns="http://www.w3.org/2000/svg" width="16" height="14"><path d="M4.667.75v2.5a.75.75 0 01-.75.75H.75A.75.75 0 010 3.25V.75A.75.75 0 01.75 0h3.167a.75.75 0 01.75.75zm5.667 7.5v-2.5a.75.75 0 00-.75-.75H6.417a.75.75 0 00-.75.75v2.5a.75.75 0 00.75.75h3.166a.75.75 0 00.75-.75zm1-7.5v2.5a.75.75 0 00.75.75h3.166a.75.75 0 00.75-.75V.75a.75.75 0 00-.75-.75h-3.167a.75.75 0 00-.75.75zm-1 2.5V.75a.75.75 0 00-.75-.75H6.417a.75.75 0 00-.75.75v2.5a.75.75 0 00.75.75h3.166a.75.75 0 00.75-.75zM3.917 5H.75a.75.75 0 00-.75.75v2.5A.75.75 0 00.75 9h3.167a.75.75 0 00.75-.75v-2.5a.75.75 0 00-.75-.75zM0 10.75v2.5a.75.75 0 00.75.75h3.167a.75.75 0 00.75-.75v-2.5a.75.75 0 00-.75-.75H.75a.75.75 0 00-.75.75zM12.083 9h3.167a.75.75 0 00.75-.75v-2.5a.75.75 0 00-.75-.75h-3.167a.75.75 0 00-.75.75v2.5a.75.75 0 00.75.75zm0 5h3.167a.75.75 0 00.75-.75v-2.5a.75.75 0 00-.75-.75h-3.167a.75.75 0 00-.75.75v2.5a.75.75 0 00.75.75zm-6.416-3.25v2.5a.75.75 0 00.75.75h3.166a.75.75 0 00.75-.75v-2.5a.75.75 0 00-.75-.75H6.417a.75.75 0 00-.75.75z"/></svg>