<svg xmlns="http://www.w3.org/2000/svg" width="179.735" height="16"><g data-name="Group 77" fill="#efcb3b"><path d="M7.461.557l-2.04 4.137-4.565.666A1 1 0 00.3 7.065l3.3 3.218-.781 4.546a1 1 0 001.45 1.053l4.084-2.147 4.084 2.147a1 1 0 001.45-1.053l-.781-4.546 3.3-3.218a1 1 0 00-.553-1.706L11.3 4.694 9.255.557a1 1 0 00-1.794 0z"/><path data-name="star" d="M48.931.557l-2.04 4.137-4.565.666a1 1 0 00-.556 1.705l3.3 3.218-.781 4.546a1 1 0 001.45 1.053l4.084-2.147 4.084 2.147a1 1 0 001.45-1.053l-.781-4.546 3.3-3.218a1 1 0 00-.553-1.706l-4.553-.665L50.725.557a1 1 0 00-1.794 0zm40.04 0l-2.04 4.137-4.565.666a1 1 0 00-.556 1.705l3.3 3.218-.781 4.546a1 1 0 001.45 1.053l4.084-2.147 4.084 2.147a1 1 0 001.45-1.053l-.781-4.546 3.3-3.218a1 1 0 00-.553-1.706l-4.553-.665L90.765.557a1 1 0 00-1.794 0zm41.469 0l-2.04 4.137-4.565.666a1 1 0 00-.556 1.705l3.3 3.218-.781 4.546a1 1 0 001.45 1.053l4.084-2.147 4.084 2.147a1 1 0 001.45-1.053l-.781-4.546 3.3-3.218a1 1 0 00-.553-1.706l-4.553-.665-2.045-4.137a1 1 0 00-1.794 0zm40.04 0l-2.04 4.137-4.565.666a1 1 0 00-.556 1.705l3.3 3.218-.781 4.546a1 1 0 001.45 1.053l4.084-2.147 4.084 2.147a1 1 0 001.45-1.053l-.781-4.546 3.3-3.218a1 1 0 00-.553-1.706l-4.553-.665-2.045-4.137a1 1 0 00-1.794 0z"/></g></svg>