<svg xmlns="http://www.w3.org/2000/svg" width="55.554" height="55.554"><g data-name="Group 169"><path d="M53.665 17.851c-.165-.137-1.5-1.215-3.319-2.676v-4.759a5.208 5.208 0 00-5.208-5.208h-7.176C35.507 3.13 31.875 0 27.777 0s-7.693 3.106-10.183 5.208h-7.178a5.208 5.208 0 00-5.208 5.208v4.758A1423.942 1423.942 0 001.9 17.839 5.208 5.208 0 000 21.861v28.485a5.208 5.208 0 005.208 5.208h45.138a5.208 5.208 0 005.208-5.208V21.865a5.205 5.205 0 00-1.889-4.014zm-43.249-7.435h34.722v17C41.2 30.6 36.6 34.323 35.742 35c-1.97 1.574-5.4 4.925-7.965 4.925s-6.061-3.4-7.965-4.925c-.857-.681-5.461-4.41-9.4-7.592zm39.93 39.279a.652.652 0 01-.651.651H5.859a.652.652 0 01-.651-.651V29.9c4.227 3.416 10.411 8.425 11.356 9.177 2.393 1.912 6.5 6.061 11.213 6.061 4.688 0 8.75-4.093 11.213-6.061.977-.776 7.144-5.771 11.356-9.175z" fill="#4a4a4a"/><g data-name="Ресурс 2"><g data-name="Слой 1"><path data-name="Path 55" d="M36.304 27.311v-.092a.163.163 0 000-.026 8.374 8.374 0 10-1.3 4.67 8.331 8.331 0 001.3-4.49z" fill="none"/><path data-name="Path 56" d="M36.303 27.22v.091a1.783 1.783 0 01-3.333.859l-.031-.058L27.929 19a8.375 8.375 0 018.374 8.2.163.163 0 010 .02z" fill="#4a4a4a"/><path data-name="Path 57" d="M36.303 27.374a8.331 8.331 0 01-1.3 4.489A8.374 8.374 0 1127.929 19l5.009 9.113.031.058a1.783 1.783 0 003.334-.859z" fill="none"/><path data-name="Path 58" d="M35 31.863H20.86L27.93 19l5.009 9.113.031.058z" fill="none"/><path data-name="Path 59" d="M24.345 29.803l3.584-6.523 3.585 6.523z" fill="#4a4a4a"/><path data-name="Path 60" d="M36.303 27.286a.173.173 0 010 .026v-.026z" fill="#4a4a4a"/><path data-name="Path 61" d="M24.012 34.782c-.027-.014-.053-.027-.08-.044a1.783 1.783 0 01.854-3.334H35.25a8.374 8.374 0 01-11.209 3.383.129.129 0 01-.029-.005z" fill="#4a4a4a"/><path data-name="Path 62" d="M23.302 20.399l.077-.049a1.783 1.783 0 012.515 2.35l-.033.057-4.993 9.126a8.374 8.374 0 012.412-11.466z" fill="#4a4a4a"/></g></g></g></svg>