<svg data-name="003-tag" xmlns="http://www.w3.org/2000/svg" width="56.5" height="56.5"><path data-name="Path 41" d="M19.621 22.834a1.1 1.1 0 10-1.56 0 1.1 1.1 0 001.56 0zm0 0"/><path data-name="Path 42" d="M30.545 24.395a3.31 3.31 0 10-4.682 0 3.314 3.314 0 004.682 0zm-3.122-3.121a1.1 1.1 0 110 1.56 1.1 1.1 0 010-1.561zm0 0" fill="#cb0000"/><path data-name="Path 43" d="M25.864 32.196a3.311 3.311 0 104.682 0 3.309 3.309 0 00-4.682 0zm3.122 3.122a1.1 1.1 0 110-1.561 1.1 1.1 0 01-.001 1.562zm0 0" fill="#cb0000"/><path data-name="Path 44" d="M19.319 30.073a1.1 1.1 0 001.3.866l15.606-3.122a1.103 1.103 0 10-.433-2.164l-15.606 3.122a1.1 1.1 0 00-.867 1.298zm0 0" fill="#cb0000"/><path data-name="Path 45" d="M33.546 6.243a1.1 1.1 0 00-.78.323L21.182 18.151a1.105 1.105 0 001.564 1.561l10.8-10.806 14.047 14.046-24.774 24.773L8.774 33.681l7.727-7.727a1.103 1.103 0 00-1.561-1.56l-8.507 8.507a1.1 1.1 0 000 1.56l15.606 15.608a1.1 1.1 0 001.56 0l26.335-26.337a1.1 1.1 0 000-1.561L34.328 6.569a1.1 1.1 0 00-.78-.323zm0 0"/><path data-name="Path 46" d="M54.616.324L49.879 5.06a7.8 7.8 0 00-9.32-.086L36.68.981 36.669.97a3.308 3.308 0 00-4.683 0L.971 32.121a3.31 3.31 0 000 4.683l4.377 4.376a7.84 7.84 0 009.973 9.973l4.38 4.376a3.309 3.309 0 004.68 0L55.53 24.513a3.308 3.308 0 000-4.681l-.011-.011-3.992-3.879a7.782 7.782 0 00-.087-9.321l4.736-4.736a1.103 1.103 0 00-1.56-1.561zm-5.383 14.9a1.1 1.1 0 00.011 1.572l4.73 4.6a1.1 1.1 0 010 1.554L22.819 53.968a1.1 1.1 0 01-1.561 0l-4.894-4.894a1.1 1.1 0 00-1.249-.219 5.629 5.629 0 01-7.471-7.47 1.1 1.1 0 00-.219-1.249l-4.893-4.894a1.106 1.106 0 010-1.563L33.548 2.531a1.1 1.1 0 011.555 0l4.6 4.73a1.1 1.1 0 001.572.012 5.555 5.555 0 017.026-.631L46.679 8.26a3.308 3.308 0 101.562 1.559L49.859 8.2a5.547 5.547 0 01-.626 7.027zm-3.2-4.761a1.1 1.1 0 11-1.561 0 1.1 1.1 0 011.561.004zm0 0"/></svg>