<svg data-name="046-telephone" xmlns="http://www.w3.org/2000/svg" width="53.463" height="53.52"><path data-name="Path 38" d="M24.301 40.803a1.045 1.045 0 101.478 0 1.045 1.045 0 00-1.478 0zm0 0" fill="#cb0000"/><path data-name="Path 39" d="M51.107 38.985l-7.936-6.748a1.071 1.071 0 00-.116-.085 5.2 5.2 0 00-6.5.713l-4.327 4.327a1.043 1.043 0 01-1.139.227 28.356 28.356 0 01-11.93-9.043 21.042 21.042 0 01-3.254-5.785 1.039 1.039 0 00-.063-.216 1.04 1.04 0 01.227-1.138l4.33-4.328a5.194 5.194 0 00.713-6.5l-.033-.049-5.735-7.966a5.226 5.226 0 00-8.088-.863l-.867.869-3.095 3.093c-3.689 3.689-4.295 9.233-1.745 16.032 2.182 5.824 6.55 12.2 12.3 17.948C19.734 45.359 26.281 49.808 32.283 52c5.94 2.17 12.259 2.438 16.731-2.035l2.917-2.917a5.227 5.227 0 00-.825-8.064zm-9.231-5.106l7.929 6.743a1.029 1.029 0 00.116.085 3.137 3.137 0 01.533 4.864l-.216.217-13.526-10.126 1.319-1.319a3.116 3.116 0 013.844-.464zM13.599 3.543l.033.049 5.729 7.961a3.116 3.116 0 01-.443 3.877l-1.28 1.28-9.15-13.455.245-.245a3.136 3.136 0 014.864.534zm19.4 46.494c-5.721-2.09-12-6.367-17.672-12.037-5.543-5.543-9.741-11.653-11.821-17.2C1.945 16.625.899 10.845 4.772 6.972l2.212-2.213 9.15 13.455-1.543 1.544a3.123 3.123 0 00-.716 3.328 23.216 23.216 0 003.38 6.235A30.662 30.662 0 0030.289 39.35a3.127 3.127 0 003.416-.68l1.514-1.515 13.524 10.126-1.207 1.207c-4.153 4.153-10.2 3.135-14.536 1.55zm0 0"/><path data-name="Path 40" d="M22.343 38.305c-1.1-.968-3.014-2.633-4.02-3.668a68.718 68.718 0 01-6.592-7.826 1.045 1.045 0 00-1.718 1.191 70.792 70.792 0 006.812 8.093c1.062 1.093 2.988 2.773 4.14 3.782a1.045 1.045 0 101.378-1.572zm0 0" fill="#cb0000"/></svg>