<svg xmlns="http://www.w3.org/2000/svg" width="13.125" height="15"><path data-name="user" d="M9.188 8.906c-.841 0-1.245.469-2.625.469s-1.781-.469-2.625-.469A3.939 3.939 0 000 12.844v.75A1.407 1.407 0 001.406 15h10.313a1.407 1.407 0 001.406-1.406v-.75a3.939 3.939 0 00-3.937-3.938zm2.531 4.688H1.406v-.75a2.536 2.536 0 012.531-2.531 11.471 11.471 0 002.625.469 11.36 11.36 0 002.625-.469 2.536 2.536 0 012.531 2.531zM6.563 8.438a4.219 4.219 0 10-4.219-4.219 4.22 4.22 0 004.219 4.219zm0-7.031A2.813 2.813 0 113.75 4.219a2.817 2.817 0 012.813-2.813z"/></svg>