<svg xmlns="http://www.w3.org/2000/svg" width="27.925" height="16.588"><path d="M27.288 1.125C27.48.477 27.288 0 26.365 0h-3.053a1.311 1.311 0 00-1.327.866 25.584 25.584 0 01-3.753 6.247c-.71.71-1.037.938-1.426.938-.192 0-.487-.228-.487-.876v-6.05c0-.778-.218-1.125-.861-1.125h-4.8a.737.737 0 00-.778.7c0 .736 1.1.907 1.213 2.981v4.5c0 .985-.176 1.166-.565 1.166-1.037 0-3.556-3.8-5.049-8.159C5.179.343 4.879.001 4.1.001H1.047C.176.001 0 .411 0 .867c0 .809 1.037 4.826 4.826 10.135 2.525 3.624 6.081 5.588 9.316 5.588 1.944 0 2.182-.435 2.182-1.187 0-3.463-.176-3.789.8-3.789.451 0 1.229.228 3.043 1.975 2.074 2.074 2.416 3 3.577 3H26.8c.871 0 1.312-.435 1.058-1.3-.581-1.809-4.5-5.531-4.681-5.78-.451-.581-.321-.84 0-1.358 0-.002 3.723-5.251 4.111-7.026z" fill="#EFCB3B"/></svg>