<svg xmlns="http://www.w3.org/2000/svg" width="60.281" height="60.281"><path data-name="Path 228" d="M24.724 36.734a1.177 1.177 0 101.177 1.177 1.178 1.178 0 00-1.177-1.177zm0 0" fill="#cb0000"/><path data-name="Path 229" d="M24.724 43.798a1.177 1.177 0 101.177 1.177 1.178 1.178 0 00-1.177-1.177zm0 0" fill="#cb0000"/><path data-name="Path 230" d="M44.976 36.734H29.434a1.177 1.177 0 000 2.355h15.541a1.177 1.177 0 000-2.355zm0 0" fill="#1c1c1c"/><path data-name="Path 231" d="M44.976 43.798H29.434a1.177 1.177 0 000 2.355h15.541a1.177 1.177 0 000-2.355zm0 0" fill="#1c1c1c"/><path data-name="Path 232" d="M3.532 57.141V59.1a1.177 1.177 0 002.355 0v-1.959l.471-.628a15.4 15.4 0 003.061-9.183v-33.2H10.6a1.178 1.178 0 011.177 1.177v10.831a1.177 1.177 0 002.355 0V15.306a3.536 3.536 0 00-3.532-3.532H9.419V9.419a4.672 4.672 0 00-1.177-3.113V3.532a3.532 3.532 0 10-7.064 0v2.775A4.708 4.708 0 000 9.419V47.33a15.4 15.4 0 003.061 9.183zm3.532-10.988H2.355V14.128h4.709zM2.355 11.774V9.419a2.355 2.355 0 014.709 0v2.355zm2.354-9.419a1.178 1.178 0 011.178 1.177V4.86a4.677 4.677 0 00-2.355 0V3.532a1.178 1.178 0 011.177-1.177zm2.3 46.153a13.049 13.049 0 01-2.3 6.269 13.05 13.05 0 01-2.3-6.269zm0 0" fill="#1c1c1c"/><path data-name="Path 233" d="M60.282 19.077v-5.891a4.715 4.715 0 00-4.708-4.709h-33.2a5.893 5.893 0 00-5.887 5.887v36.5h-3.532a1.177 1.177 0 00-1.181 1.176 8.251 8.251 0 008.242 8.242h27.315a6.007 6.007 0 005.887-6.139V20.251h5.887a1.177 1.177 0 001.177-1.177zM20.016 57.93a5.9 5.9 0 01-5.769-4.709h27.2v1.177a5.858 5.858 0 001.18 3.532zm30.847-44.74v40.956a3.642 3.642 0 01-3.532 3.784 3.536 3.536 0 01-3.532-3.532v-2.355a1.177 1.177 0 00-1.177-1.177H18.838v-36.5a3.546 3.546 0 013.532-3.544h29.122a4.75 4.75 0 00-.63 2.367zm7.064 4.709h-4.709v-4.713a2.355 2.355 0 014.709 0zm0 0" fill="#1c1c1c"/><path data-name="Path 234" d="M31.95 29.946c.671.567 1.365 1.153 2.1 1.791a1.178 1.178 0 001.542 0c.736-.638 1.43-1.224 2.1-1.79 3.748-3.163 6.455-5.448 6.455-8.8a5.378 5.378 0 00-5.253-5.6 4.946 4.946 0 00-4.075 2.142 4.947 4.947 0 00-4.072-2.148 5.377 5.377 0 00-5.252 5.6c0 3.355 2.708 5.64 6.455 8.8zm-1.2-12.05c2.15 0 2.912 2.565 2.943 2.674a1.176 1.176 0 001.128.855h.006a1.181 1.181 0 001.132-.855c.031-.109.793-2.674 2.942-2.674a3.02 3.02 0 012.9 3.247c0 2.261-2.115 4.046-5.62 7-.439.371-.889.75-1.354 1.147-.466-.4-.915-.777-1.354-1.148-3.5-2.957-5.619-4.742-5.619-7a3.019 3.019 0 012.893-3.246zm0 0" fill="#cb0000"/></svg>