<svg id="_232531" data-name="232531" xmlns="http://www.w3.org/2000/svg" width="45" height="64.921" viewBox="0 0 45 64.921">
  <g id="Group_46" data-name="Group 46">
    <g id="Group_45" data-name="Group 45" transform="translate(0)">
      <path id="Path_75" data-name="Path 75" d="M122.723,15.515l-5-3.765-1.834-5.987A2.083,2.083,0,0,0,113.93,4.29l-6.261-.106-5-3.766a2.082,2.082,0,0,0-2.448-.041L95.091,3.972,88.83,3.866a2.079,2.079,0,0,0-2,1.406L84.79,11.193l-5.127,3.594a2.083,2.083,0,0,0-.8,2.315L80.7,23.09l-2.035,5.922a2.083,2.083,0,0,0,.717,2.341l5,3.765,2.745,7.156V62.838a2.083,2.083,0,0,0,2.933,1.9l10.989-4.914,10.989,4.914a2.083,2.083,0,0,0,2.933-1.9V42.17l2.341-6.5,5.127-3.594a2.082,2.082,0,0,0,.8-2.315L121.4,23.777l2.035-5.922A2.083,2.083,0,0,0,122.723,15.515ZM110.809,59.626,101.9,55.644a2.083,2.083,0,0,0-1.7,0L91.3,59.626v-17l3.141.053,5,3.765a2.086,2.086,0,0,0,2.448.041l5.127-3.594,3.794.064V59.626Zm6.414-35.275,1.589,5.187-4.442,3.114a2.083,2.083,0,0,0-.774,1.028l-1.763,5.131-5.424-.092a2.075,2.075,0,0,0-1.231.377l-4.442,3.114L96.4,38.948a2.082,2.082,0,0,0-1.217-.418l-5.424-.092-1.589-5.187a2.082,2.082,0,0,0-.739-1.054L83.1,28.935,84.861,23.8a2.083,2.083,0,0,0,.022-1.287L83.293,17.33l4.442-3.114a2.083,2.083,0,0,0,.774-1.028l1.763-5.131,5.424.092a2.1,2.1,0,0,0,1.231-.377l4.442-3.114L105.7,7.92a2.083,2.083,0,0,0,1.217.418l5.424.092,1.589,5.187a2.082,2.082,0,0,0,.739,1.054l4.335,3.262-1.763,5.131A2.082,2.082,0,0,0,117.224,24.351Z" transform="translate(-78.553 0)"/>
    </g>
  </g>
  <g id="Ресурс_2" data-name="Ресурс 2" transform="translate(13 12.75)">
    <g id="Слой_1" data-name="Слой 1">
      <path id="Path_55" data-name="Path 55" d="M20,9.929V9.82a.2.2,0,0,0,0-.031,10,10,0,1,0-1.555,5.576h0A9.947,9.947,0,0,0,20,10Z" transform="translate(-0.004 -0.005)" fill="none"/>
      <path id="Path_56" data-name="Path 56" d="M75,9.815v.109a2.129,2.129,0,0,1-3.98,1.026l-.037-.069L65,0A10,10,0,0,1,75,9.786.2.2,0,0,1,75,9.815Z" transform="translate(-55)" fill="#cb0000"/>
      <path id="Path_57" data-name="Path 57" d="M20,10a9.947,9.947,0,0,1-1.557,5.36h0A10,10,0,1,1,10,0L15.98,10.881l.037.069A2.129,2.129,0,0,0,20,9.924Z" transform="translate(0.001)" fill="none"/>
      <path id="Path_58" data-name="Path 58" d="M27.013,15.359v0H10.13L18.571,0l5.981,10.881.037.069Z" transform="translate(-8.571)" fill="none"/>
      <path id="Path_59" data-name="Path 59" d="M37.18,41.009l4.28-7.789,4.281,7.789Z" transform="translate(-31.459 -28.11)" fill="#cb0000"/>
      <path id="Path_60" data-name="Path 60" d="M130,63.878a.207.207,0,0,1,0,.031v-.031Z" transform="translate(-110.001 -53.985)" fill="#cb0000"/>
      <path id="Path_61" data-name="Path 61" d="M28.127,100.314c-.032-.017-.063-.032-.1-.052a2.129,2.129,0,0,1,1.02-3.981H41.546a10,10,0,0,1-13.384,4.04A.153.153,0,0,1,28.127,100.314Z" transform="translate(-22.805 -81.469)" fill="#cb0000"/>
      <path id="Path_62" data-name="Path 62" d="M4.468,8.783c.031-.02.06-.04.092-.058a2.129,2.129,0,0,1,3,2.806l-.038.068L1.562,22.5A10,10,0,0,1,4.442,8.8Z" transform="translate(0.007 -7.113)" fill="#cb0000"/>
    </g>
  </g>
</svg>
