<svg id="_981388" data-name="981388" xmlns="http://www.w3.org/2000/svg" width="45.637" height="63.151" viewBox="0 0 45.637 63.151">
  <g id="Group_51" data-name="Group 51">
    <g id="Group_50" data-name="Group 50">
      <path id="Path_78" data-name="Path 78" d="M137.822,305.256a1.85,1.85,0,0,0-2.527.679l-3.913,6.787-1.675-1.675a1.85,1.85,0,0,0-2.616,2.616l3.381,3.381a1.85,1.85,0,0,0,2.911-.384l5.118-8.878A1.85,1.85,0,0,0,137.822,305.256Z" transform="translate(-119.698 -267.388)" fill="#cb0000"/>
      <path id="Path_79" data-name="Path 79" d="M114.787,7.524h-7.4V4.278A1.85,1.85,0,0,0,106.3,2.592a31.343,31.343,0,0,0-24.963,0,1.85,1.85,0,0,0-1.086,1.685V7.524h-7.4A1.85,1.85,0,0,0,71,9.374V61.3a1.85,1.85,0,0,0,1.85,1.85h41.936a1.85,1.85,0,0,0,1.85-1.85V9.374A1.85,1.85,0,0,0,114.787,7.524ZM98.008,4.009a4.32,4.32,0,0,1-8.379,0A28.743,28.743,0,0,1,98.008,4.009ZM83.951,5.5c.673-.265,1.364-.5,2.067-.7a8.014,8.014,0,0,0,15.6,0c.7.206,1.393.44,2.066.7v7.077H83.951Zm28.985,53.947H74.7V11.224h5.55v3.207a1.85,1.85,0,0,0,1.85,1.85h23.435a1.85,1.85,0,0,0,1.85-1.85V11.224h5.55Z" transform="translate(-71)"/>
      <path id="Path_80" data-name="Path 80" d="M137.822,175.257a1.85,1.85,0,0,0-2.527.679l-3.913,6.787-1.675-1.675a1.85,1.85,0,0,0-2.616,2.616l3.381,3.381a1.85,1.85,0,0,0,2.911-.384l5.118-8.878A1.85,1.85,0,0,0,137.822,175.257Z" transform="translate(-119.698 -153.423)" fill="#cb0000"/>
      <path id="Path_81" data-name="Path 81" d="M265.184,351H252.85a1.85,1.85,0,1,0,0,3.7h12.334a1.85,1.85,0,0,0,0-3.7Z" transform="translate(-228.798 -307.707)" fill="#cb0000"/>
      <path id="Path_82" data-name="Path 82" d="M252.85,221a1.85,1.85,0,0,0,0,3.7h12.334a1.85,1.85,0,0,0,0-3.7Z" transform="translate(-228.798 -193.741)" fill="#cb0000"/>
    </g>
  </g>
</svg>
