<svg id="_981380" data-name="981380" xmlns="http://www.w3.org/2000/svg" width="32.754" height="65" viewBox="0 0 32.754 65">
  <g id="Group_49" data-name="Group 49">
    <path id="Path_77" data-name="Path 77" d="M154.5,32.627V26.573l5.075-10.917a1.9,1.9,0,0,0-2.288-2.623l-3.361,1.035a11.137,11.137,0,0,0-5.966-6.6,5.142,5.142,0,1,0-9.17,0,11.115,11.115,0,0,0-5.965,6.6l-3.362-1.035a1.9,1.9,0,0,0-2.288,2.623l5.075,10.917v6.054a1.9,1.9,0,0,0,1.9,1.9h1.383l-1.508,17.647h-1.6a1.9,1.9,0,0,0-1.806,1.3L127.6,62.492A1.9,1.9,0,0,0,129.411,65h27.932a1.9,1.9,0,0,0,1.806-2.508l-3.016-9.014a1.9,1.9,0,0,0-1.806-1.3h-1.6l-1.508-17.647H152.6A1.9,1.9,0,0,0,154.5,32.627ZM143.377,3.809a1.333,1.333,0,1,1-1.333,1.333A1.334,1.334,0,0,1,143.377,3.809Zm0,6.475a7.322,7.322,0,0,1,6.912,4.906l-1.272.392-4.778-2.425a1.9,1.9,0,0,0-1.724,0l-4.778,2.425-1.271-.391A7.323,7.323,0,0,1,143.377,10.283Zm9.579,45.7,1.742,5.205H132.056l1.742-5.205ZM136.061,30.723V28.057h14.631v2.666ZM148.9,52.178H137.855l1.508-17.647h8.028Zm-13.527-27.93-2.935-6.314,4.915,1.513a1.9,1.9,0,0,0,1.423-.122l4.6-2.336,4.6,2.336a1.934,1.934,0,0,0,1.423.122l4.915-1.513-2.935,6.314Z" transform="translate(-127 0)"/>
  </g>
</svg>
