<svg  id="Group_64" data-name="Group 64" xmlns="http://www.w3.org/2000/svg" width="29.233" height="26" viewBox="0 0 29.233 26">
  <path id="shopping-cart" d="M26.926,3.25H7.327L6.884.985A1.219,1.219,0,0,0,5.688,0H.609A.609.609,0,0,0,0,.609V1.828a.609.609,0,0,0,.609.609H4.684L8.218,20.5a3.25,3.25,0,1,0,5.159.625h7.372a3.25,3.25,0,1,0,5.065-.718l.053-.242a1.219,1.219,0,0,0-1.191-1.478H10.347L9.87,16.25H25.735a1.219,1.219,0,0,0,1.191-.96l2.3-10.562C29.387,3.968,27.7,3.25,26.926,3.25ZM10.562,23.969a1.219,1.219,0,1,1,1.219-1.219A1.22,1.22,0,0,1,10.562,23.969Zm13,0a1.219,1.219,0,1,1,1.219-1.219A1.22,1.22,0,0,1,23.563,23.969Zm1.19-10.156H9.394L7.327,3.25h19.6L24.753,13.813Z" fill="#fff"/>
  <path id="plus" d="M9.583,68.167H5.833v-3.75A.417.417,0,0,0,5.417,64H4.583a.417.417,0,0,0-.417.417v3.75H.417A.417.417,0,0,0,0,68.583v.833a.417.417,0,0,0,.417.417h3.75v3.75A.417.417,0,0,0,4.583,74h.833a.417.417,0,0,0,.417-.417v-3.75h3.75A.417.417,0,0,0,10,69.417v-.833A.417.417,0,0,0,9.583,68.167Z" transform="translate(11.845 -61.033)" fill="#fff"/>
</svg>
