<svg xmlns="http://www.w3.org/2000/svg" width="15.675" height="17.305" viewBox="0 0 15.675 17.305">
  <g id="clip" transform="translate(-71.9 2.65)">
    <path id="Path_1345" data-name="Path 1345" d="M19.12,14.068a.61.61,0,0,0-.863-.863l-3.23,3.23A2.884,2.884,0,1,0,19.1,20.514L26.4,13.22a4.026,4.026,0,1,0-5.7-5.686l-7.279,7.279a5.179,5.179,0,1,0,7.324,7.324l3.23-3.23a.61.61,0,0,0-.863-.863l-3.23,3.23a3.958,3.958,0,1,1-5.6-5.6L21.561,8.4a2.769,2.769,0,0,1,1.98-.819,2.806,2.806,0,0,1,1.98.819,2.769,2.769,0,0,1,.819,1.98,2.806,2.806,0,0,1-.819,1.98L18.226,19.65a1.68,1.68,0,0,1-2.352,0,1.653,1.653,0,0,1,0-2.352l3.245-3.23Z" transform="translate(60 -9)" fill="#9f9f9f"/>
  </g>
</svg>
