<svg xmlns="http://www.w3.org/2000/svg" width="18" height="18" viewBox="0 0 18 18">
  <path id="comment-alt-dots" d="M15.75,0H2.25A2.252,2.252,0,0,0,0,2.25V12.375a2.252,2.252,0,0,0,2.25,2.25H5.625v2.953A.421.421,0,0,0,6.047,18a.4.4,0,0,0,.25-.084l4.391-3.291H15.75A2.252,2.252,0,0,0,18,12.375V2.25A2.252,2.252,0,0,0,15.75,0Zm.563,12.375a.564.564,0,0,1-.562.563H10.125l-.45.338L7.313,15.047V12.938H2.25a.564.564,0,0,1-.562-.562V2.25a.564.564,0,0,1,.563-.562h13.5a.564.564,0,0,1,.563.563ZM4.5,6.188A1.125,1.125,0,1,0,5.625,7.313,1.124,1.124,0,0,0,4.5,6.188Zm4.5,0a1.125,1.125,0,1,0,1.125,1.125A1.124,1.124,0,0,0,9,6.188Zm4.5,0a1.125,1.125,0,1,0,1.125,1.125A1.124,1.124,0,0,0,13.5,6.188Z" fill="#fff"/>
</svg>
