<svg id="_005-credit-card" data-name="005-credit-card" xmlns="http://www.w3.org/2000/svg" width="56.982" height="57" viewBox="0 0 56.982 57">
  <path id="Path_47" data-name="Path 47" d="M287.535,151.957a1.113,1.113,0,1,0,1.113,1.113A1.113,1.113,0,0,0,287.535,151.957Zm0,0" transform="translate(-254.591 -135.04)" fill="#cb0000"/>
  <path id="Path_48" data-name="Path 48" d="M220.625,332.094a1.114,1.114,0,1,0-1.575,0A1.115,1.115,0,0,0,220.625,332.094Zm0,0" transform="translate(-194.43 -293.434)"/>
  <path id="Path_49" data-name="Path 49" d="M13.321,245.352a1.113,1.113,0,0,0,1.571.009l5.4-5.316a3.363,3.363,0,0,0,.792-3.454l1.161-1.119a3.319,3.319,0,0,1,2.317-.936h14.8A9.965,9.965,0,0,0,46.34,231.7c.077-.075-.588.708,10.094-12.058a4.452,4.452,0,0,0-6.774-5.778l-6.567,6.75a4.473,4.473,0,0,0-3.46-1.657H27.221a14.359,14.359,0,0,0-5.573-1.113A13.769,13.769,0,0,0,9.1,224.958a3.325,3.325,0,0,0-2.977.922l-5.295,5.31a1.113,1.113,0,0,0,0,1.569Zm8.327-25.285a12.15,12.15,0,0,1,4.9,1.02,1.111,1.111,0,0,0,.446.094H39.632a2.226,2.226,0,1,1,0,4.452H30.551a1.113,1.113,0,0,0,0,2.226h9.081a4.445,4.445,0,0,0,4.413-5.034c6.353-6.531,7.249-7.448,7.287-7.494a2.226,2.226,0,1,1,3.4,2.876l-9.983,11.934a7.75,7.75,0,0,1-5.395,2.17h-14.8a5.533,5.533,0,0,0-3.863,1.56l-.946.913-8.719-8.719c2.038-3.823,5.862-6,10.618-6ZM7.7,227.453a1.11,1.11,0,0,1,1.378-.157c.17.1,9.689,9.646,9.748,9.725a1.117,1.117,0,0,1-.1,1.444L14.12,243,3.184,231.978Zm0,0" transform="translate(-0.501 -188.682)"/>
  <path id="Path_50" data-name="Path 50" d="M129.8,23.594h26.711a3.343,3.343,0,0,0,3.339-3.339V3.339A3.343,3.343,0,0,0,156.515,0H129.8a3.343,3.343,0,0,0-3.339,3.339V20.256A3.343,3.343,0,0,0,129.8,23.594ZM157.628,8.9H128.691V6.677h28.937Zm-1.113,12.466H129.8a1.114,1.114,0,0,1-1.113-1.113V11.129h28.937v9.126a1.114,1.114,0,0,1-1.113,1.113ZM129.8,2.226h26.711a1.114,1.114,0,0,1,1.113,1.113V4.451H128.691V3.339A1.114,1.114,0,0,1,129.8,2.226Zm0,0" transform="translate(-112.442 0)" fill="#cb0000"/>
  <path id="Path_51" data-name="Path 51" d="M331.975,151.957h-4.452a1.113,1.113,0,0,0,0,2.226h4.452a1.113,1.113,0,1,0,0-2.226Zm0,0" transform="translate(-290.128 -135.04)" fill="#cb0000"/>
</svg>
