<svg id="_040-delivery-truck" data-name="040-delivery-truck" xmlns="http://www.w3.org/2000/svg" width="52" height="38.594" viewBox="0 0 52 38.594">
  <path id="Path_29" data-name="Path 29" d="M414.031,300a2.031,2.031,0,1,0,2.031,2.031A2.031,2.031,0,0,0,414.031,300Zm0,0" transform="translate(-370.156 -269.531)"/>
  <path id="Path_30" data-name="Path 30" d="M413.016,220a1.016,1.016,0,1,0,1.016,1.016A1.016,1.016,0,0,0,413.016,220Zm0,0" transform="translate(-370.156 -197.656)"/>
  <path id="Path_31" data-name="Path 31" d="M108.031,300a2.031,2.031,0,1,0,2.031,2.031A2.031,2.031,0,0,0,108.031,300Zm0,0" transform="translate(-95.234 -269.531)"/>
  <path id="Path_32" data-name="Path 32" d="M47.731,18.347l-1.751-7a3.046,3.046,0,0,0-2.105-5.248H35.75V3.047A3.05,3.05,0,0,0,32.7,0H3.047A3.05,3.05,0,0,0,0,3.047V29.453A3.05,3.05,0,0,0,3.047,32.5H6.7a6.094,6.094,0,0,0,12.188,0H37.781a6.094,6.094,0,0,0,12.188,0c0-.058,0-.115,0-.173A3.052,3.052,0,0,0,52,29.453V23.36a5.086,5.086,0,0,0-4.269-5.013ZM44.1,12.188l1.523,6.094H37.186l2.329-2.329a1.016,1.016,0,0,0-1.436-1.436L35.75,16.845V12.188Zm.793-3.047a1.016,1.016,0,0,1-1.016,1.016H35.75V8.125h8.125A1.017,1.017,0,0,1,44.891,9.141ZM12.8,36.563A4.063,4.063,0,1,1,16.86,32.5,4.067,4.067,0,0,1,12.8,36.563Zm5.745-6.094a6.094,6.094,0,0,0-11.49,0h-4a1.017,1.017,0,0,1-1.016-1.016V3.047A1.017,1.017,0,0,1,3.047,2.032H32.7a1.017,1.017,0,0,1,1.016,1.016V30.469Zm25.333,6.094A4.063,4.063,0,1,1,47.938,32.5,4.067,4.067,0,0,1,43.875,36.563Zm5.673-6.288a6.094,6.094,0,0,0-11.418.194H35.75V20.313H46.922a3.052,3.052,0,0,1,2.872,2.031H46.922a1.016,1.016,0,0,0,0,2.031h3.047v5.078a1.015,1.015,0,0,1-.421.822Zm0,0" transform="translate(0 0)"/>
  <path id="Path_33" data-name="Path 33" d="M95.141,60a9.141,9.141,0,1,0,9.141,9.141A9.151,9.151,0,0,0,95.141,60Zm0,16.25a7.109,7.109,0,1,1,7.109-7.109A7.117,7.117,0,0,1,95.141,76.25Zm0,0" transform="translate(-77.266 -53.906)" fill="#cb0000"/>
  <path id="Path_34" data-name="Path 34" d="M171.078,104.063h-3.047v-3.047a1.016,1.016,0,0,0-2.031,0v4.063a1.016,1.016,0,0,0,1.016,1.016h4.063a1.016,1.016,0,0,0,0-2.031Zm0,0" transform="translate(-149.141 -89.844)" fill="#cb0000"/>
</svg>
