<svg xmlns="http://www.w3.org/2000/svg" width="15" height="15" viewBox="0 0 15 15">
  <g id="Group_346" data-name="Group 346" transform="translate(-1281 -974)">
    <circle id="Ellipse_43" data-name="Ellipse 43" cx="7.5" cy="7.5" r="7.5" transform="translate(1281 974)" fill="#fff"/>
    <path id="check" d="M36.316,80.028l-5.753,5.753-2.114-2.114a.262.262,0,0,0-.371,0l-.619.619a.262.262,0,0,0,0,.371l2.918,2.918a.262.262,0,0,0,.371,0l6.557-6.557a.262.262,0,0,0,0-.371l-.619-.619A.262.262,0,0,0,36.316,80.028Z" transform="translate(1256.617 898.048)" fill="#526356"/>
  </g>
</svg>
