<svg xmlns="http://www.w3.org/2000/svg" width="20.736" height="20.736" viewBox="0 0 20.736 20.736">
  <path id="facebook" d="M20.736,33.143V51.588a1.143,1.143,0,0,1-1.143,1.143H14.307V44.705H17l.4-3.129H14.3v-2c0-.907.25-1.523,1.551-1.523H17.51v-2.8a22.276,22.276,0,0,0-2.416-.125,3.773,3.773,0,0,0-4.027,4.138v2.31h-2.7v3.129h2.7v8.03H1.143A1.146,1.146,0,0,1,0,51.592V33.143A1.146,1.146,0,0,1,1.143,32H19.588A1.147,1.147,0,0,1,20.736,33.143Z" transform="translate(0 -32)" fill="#EFCB3B"/>
</svg>
