<svg xmlns="http://www.w3.org/2000/svg" width="15.333" height="17.889" viewBox="0 0 15.333 17.889">
  <path id="fire" d="M11.073,33.789a20.792,20.792,0,0,0-1.925,2.1A26.721,26.721,0,0,0,5.75,32C2.388,35.186,0,39.335,0,41.839a7.867,7.867,0,0,0,7.667,8.05,7.867,7.867,0,0,0,7.667-8.05C15.333,39.978,13.552,36.141,11.073,33.789ZM7.667,47.972a5.958,5.958,0,0,1-5.75-6.133c0-1.465,1.437-4.4,3.841-7.1A23.186,23.186,0,0,1,7.587,37L9.06,39.064l1.585-1.985c.124-.156.252-.311.383-.463a11.7,11.7,0,0,1,2.388,5.219A5.959,5.959,0,0,1,7.667,47.972Zm3.063-7.834-1.757,2s-2.751-3.514-2.959-3.753c-1.453,1.741-2.18,2.759-2.18,3.917a3.686,3.686,0,0,0,3.917,3.749,4.013,4.013,0,0,0,2.312-.723,3.575,3.575,0,0,0,1-4.6q-.15-.287-.335-.6Z" transform="translate(0 -32)" fill="#fff"/>
</svg>
