<svg xmlns="http://www.w3.org/2000/svg" xmlns:xlink="http://www.w3.org/1999/xlink" width="55.5" height="74" viewBox="0 0 55.5 74">
  <defs>
    <linearGradient id="linear-gradient" x1="0.5" x2="0.5" y2="1" gradientUnits="objectBoundingBox">
      <stop offset="0" stop-color="#e43a15"/>
      <stop offset="1" stop-color="#7a2828"/>
    </linearGradient>
    <linearGradient id="linear-gradient-2" x1="0.5" x2="0.5" y2="1" xlink:href="#linear-gradient"/>
    <linearGradient id="linear-gradient-3" x1="0.5" x2="0.5" y2="1.002" xlink:href="#linear-gradient"/>
    <linearGradient id="linear-gradient-4" x1="0.5" x2="0.5" y2="0.999" xlink:href="#linear-gradient"/>
  </defs>
  <g id="Group_170" data-name="Group 170" transform="translate(8.258 9)">
    <path id="map-marker" d="M24.9,72.507C3.9,42.063,0,38.939,0,27.75a27.75,27.75,0,0,1,55.5,0c0,11.189-3.9,14.313-24.9,44.757a3.47,3.47,0,0,1-5.7,0Z" transform="translate(-8.258 -9)" fill="#cb0000"/>
    <g id="Слой_3" data-name="Слой 3" transform="translate(-0.007)">
      <path id="Path_65" data-name="Path 65" d="M39,19.355v-.213a.38.38,0,0,0,0-.06,19.5,19.5,0,1,0-3.033,10.873h0A19.4,19.4,0,0,0,39,19.5Z" transform="translate(-0.002 -0.004)" fill="#fff" stroke="#fff" stroke-width="1"/>
      <path id="Path_66" data-name="Path 66" d="M84.5,19.137v.213a4.151,4.151,0,0,1-7.76,2l-.072-.135L65,0A19.5,19.5,0,0,1,84.5,19.082.38.38,0,0,1,84.5,19.137Z" transform="translate(-45.501)" stroke="#fff" stroke-width="1" fill="url(#linear-gradient)"/>
      <path id="Path_67" data-name="Path 67" d="M38.994,19.5a19.4,19.4,0,0,1-3.036,10.45h0A19.5,19.5,0,1,1,19.5,0L31.159,21.216l.072.135a4.151,4.151,0,0,0,7.763-2Z" transform="translate(0.002)" fill="#fff" stroke="#fff" stroke-width="1"/>
      <path id="Path_68" data-name="Path 68" d="M43.05,29.948v0H10.13L26.589,0,38.251,21.216l.072.135Z" transform="translate(-7.089)" fill="none" stroke="#fff" stroke-width="1"/>
      <path id="Path_69" data-name="Path 69" d="M37.18,48.407,45.525,33.22l8.348,15.187Z" transform="translate(-26.026 -23.255)" stroke="#fff" stroke-width="1" fill="url(#linear-gradient-2)"/>
      <path id="Path_70" data-name="Path 70" d="M130,63.953a.4.4,0,0,1,0,.06v-.06Z" transform="translate(-91.004 -44.663)" fill="#861b2e" stroke="#fff" stroke-width="1"/>
      <path id="Path_71" data-name="Path 71" d="M29.243,104.145c-.063-.033-.123-.063-.186-.1a4.151,4.151,0,0,1,1.989-7.763H55.408a19.5,19.5,0,0,1-26.1,7.877A.3.3,0,0,1,29.243,104.145Z" transform="translate(-18.865 -67.4)" stroke="#fff" stroke-width="1" fill="url(#linear-gradient-3)"/>
      <path id="Path_72" data-name="Path 72" d="M8.718,9.142c.06-.039.117-.078.18-.114A4.151,4.151,0,0,1,14.753,14.5l-.075.132L3.052,35.88a19.5,19.5,0,0,1,5.615-26.7Z" transform="translate(0.007 -5.884)" stroke="#fff" stroke-width="1" fill="url(#linear-gradient-4)"/>
    </g>
  </g>
</svg>
