<svg xmlns="http://www.w3.org/2000/svg" viewBox="0 0 300 82"><defs><style>.cls-1{fill:none;}.cls-2{fill:#e63323;fill-rule:evenodd;}.cls-3{fill:#ffffff;}</style></defs><title>Asset 2</title><g id="Layer_2" data-name="Layer 2"><g id="Layer_1-2" data-name="Layer 1"><rect class="cls-1" width="300" height="82"/><path class="cls-2" d="M40.82,36.48c-1.59,1-1,2,.27,3.27.39.42,3.29,2.66,4.4,3.47,1.65,1.2,2,.66,5-1,7.67-4.43,11.71-12.27,11.71-19a4,4,0,0,0-1.23-3.42A12.2,12.2,0,0,0,56,17c-2.07-.63-1.77.63-1.71,1.53C54.89,25.46,47.41,32.44,40.82,36.48Zm4.12-8.34c.55-2.29-1.85-4.17-3.47-5.57-5.28-4.54-13-6.42-19.19-2.73C19,21.79,20.73,24,22.53,26a53.87,53.87,0,0,0,8.75,7.6c4.06,2.69,3.58,3,7.49.55,2.33-1.51,5.61-3.91,6.17-6Zm16.75,8.61a45.64,45.64,0,0,1-9.46,8c-2.58,1.58-2.67,2.69-1.35,4.22,3.59,4.13,6.74,10.45,6.74,13.74,0,2.4,1.85,2.55,5.06-2.51a32,32,0,0,0,4.07-12.76,22.89,22.89,0,0,0-1.53-11.41c-1.17-2.48-2.33-.71-3.53.69Z"/><path class="cls-2" d="M15.43,19.06c.18-3.33,1.22-5.39-1.68-5.36A13,13,0,0,0,6.5,16.42,6.52,6.52,0,0,0,3.84,20.7,14.74,14.74,0,0,0,8.15,34.27c7.79,7.78,17.55,13.2,27,18.92a101.45,101.45,0,0,1,9.13,5.72c3.42,2.64,7.94,6.38,7.34,11.14-.21,1.56-1.14,2.51.06,2.51s4-2.06,4.13-6C56.42,46.36,14.62,35.29,15.43,19.06Z"/><path class="cls-2" d="M37.83,59.47C25.84,51.78,14.64,47,4.74,36.17c-1.71-1.88-2.31-3.86-3.38-2a12.67,12.67,0,0,0-.9,2.48c-4.2,15,21.29,36.69,36.89,39,3.93.58,8.77-1,10.14-4C50.2,65.47,41,61.54,37.83,59.47Zm7.92-38.55c1.2,1.17,2.56,2.78,3.44.85a10.1,10.1,0,0,0,.79-2.5,8.11,8.11,0,0,0-1.87-6.87c-9.57-9.22-27-5.93-28.62-.54-.83,2.74-.67,4.9.69,4.21C29.38,11.33,38.78,14.2,45.75,20.92Z"/><path class="cls-3" d="M85.65,17.26h2.18l8.34,20.41H93.41l-2.42-6H82.43l-2.39,6H77.28Zm4.77,12.42-3.68-9.43L83,29.68Z"/><path class="cls-3" d="M97.66,19.67A6.23,6.23,0,0,1,100,17.75a7.74,7.74,0,0,1,3.32-.63,7,7,0,0,1,4.41,1.23,4.32,4.32,0,0,1,1.57,3.59,5.14,5.14,0,0,1-.87,3A4,4,0,0,1,106,26.57a4.7,4.7,0,0,1,3,1.53,4.89,4.89,0,0,1,1.15,3.36,6.08,6.08,0,0,1-2,4.56,7,7,0,0,1-2.24,1.32,8.26,8.26,0,0,1-2.82.47A7.61,7.61,0,0,1,99.5,37a5.72,5.72,0,0,1-2.41-2.36l2.07-1.52a5.11,5.11,0,0,0,1.64,1.72,4.4,4.4,0,0,0,2.44.64,5.12,5.12,0,0,0,1.74-.29,4.23,4.23,0,0,0,1.36-.79,3.59,3.59,0,0,0,1.24-2.75,3.35,3.35,0,0,0-1.45-2.86,6.81,6.81,0,0,0-4-1.05h-1.55v-2.3h1.55a5.79,5.79,0,0,0,3.39-.86,2.76,2.76,0,0,0,1.24-2.41,2.4,2.4,0,0,0-1-2.1,4,4,0,0,0-2.42-.69,5.31,5.31,0,0,0-2.33.5,3.84,3.84,0,0,0-1.61,1.42Z"/><path class="cls-3" d="M120,17.26h2.18l8.34,20.41h-2.76l-2.42-6h-8.56l-2.39,6h-2.76Zm4.77,12.42-3.68-9.43-3.8,9.43Z"/><path class="cls-3" d="M138.51,23q-.34,4-.86,6.79a20.23,20.23,0,0,1-1.35,4.62,6.67,6.67,0,0,1-2,2.66,4.61,4.61,0,0,1-2.8.85l-.46-2.5a4,4,0,0,0,1.15-.22,2.45,2.45,0,0,0,1-.67,4.83,4.83,0,0,0,.86-1.37,12.79,12.79,0,0,0,.75-2.25,32,32,0,0,0,.62-3.35c.18-1.32.35-2.87.5-4.67l.46-5.58h10.81V37.67H144.6V19.56h-5.8Z"/><path class="cls-3" d="M154.81,33.73l11.81-16.47h2.13V37.67h-2.59V21.49L154.55,37.67h-2.33V17.26h2.59Z"/><path class="cls-3" d="M184.47,37.67V29.76h-4.71l-4.69,7.91h-3l5.05-8.28a5.81,5.81,0,0,1-1.65-.91,6.26,6.26,0,0,1-1.31-1.36,6.42,6.42,0,0,1-.84-1.7A5.85,5.85,0,0,1,173,23.5a6,6,0,0,1,.46-2.27,6.64,6.64,0,0,1,1.28-2,6.37,6.37,0,0,1,2-1.42,5.54,5.54,0,0,1,2.48-.55h7.88V37.67Zm0-18.11h-5.14a3.17,3.17,0,0,0-1.42.32,3.73,3.73,0,0,0-1.18.84,4.2,4.2,0,0,0-.81,1.25,3.94,3.94,0,0,0-.3,1.53,4.45,4.45,0,0,0,.26,1.49,4.07,4.07,0,0,0,.72,1.27,3.48,3.48,0,0,0,1.1.87,3.17,3.17,0,0,0,1.46.33h5.31Z"/><path class="cls-3" d="M197.35,35.37h.26a4,4,0,0,0,1.15-.22,2.55,2.55,0,0,0,1-.67,5.31,5.31,0,0,0,.86-1.37,12.08,12.08,0,0,0,.74-2.25,32,32,0,0,0,.62-3.35c.19-1.32.35-2.87.51-4.67l.46-5.58h10.8V35.37h3.17V43h-2.3V37.67h-15V43h-2.3Zm13.83,0V19.56h-5.81L205.08,23a47.87,47.87,0,0,1-1.22,8.12,9.51,9.51,0,0,1-2.11,4.3Z"/><path class="cls-3" d="M233.77,35.37v2.3H219.92V17.26h13.59v2.3h-11v6.61h9.58v2.16H222.5v7Z"/><path class="cls-3" d="M239.92,26.14h2.59l6.7-8.88h3l-7.27,9.86,7.93,10.55h-3l-7.07-9.23h-2.88v9.23h-2.58V17.26h2.58Z"/><path class="cls-3" d="M263.49,37.81a8.78,8.78,0,0,1-3.92-.87,9.67,9.67,0,0,1-3-2.33,10.56,10.56,0,0,1-2-3.32,11,11,0,0,1-.69-3.83,10.89,10.89,0,0,1,2.76-7.21A9.76,9.76,0,0,1,259.71,18a8.84,8.84,0,0,1,3.84-.84,8.43,8.43,0,0,1,3.91.9,10.31,10.31,0,0,1,3,2.37,11,11,0,0,1,1.95,3.32,10.79,10.79,0,0,1,.69,3.78,10.82,10.82,0,0,1-2.74,7.2A9.66,9.66,0,0,1,267.33,37,8.71,8.71,0,0,1,263.49,37.81Zm-7-10.35a9.27,9.27,0,0,0,.5,3A8.45,8.45,0,0,0,258.43,33a6.85,6.85,0,0,0,2.22,1.78,6.22,6.22,0,0,0,2.87.66,6,6,0,0,0,2.93-.7,7,7,0,0,0,2.2-1.84A8,8,0,0,0,270,30.37a9.15,9.15,0,0,0,.48-2.91,9,9,0,0,0-.51-3,7.91,7.91,0,0,0-1.43-2.56,7.33,7.33,0,0,0-2.22-1.77,6.05,6.05,0,0,0-2.83-.66,6.12,6.12,0,0,0-2.93.69,7.16,7.16,0,0,0-2.2,1.81A8.23,8.23,0,0,0,257,24.53,9,9,0,0,0,256.51,27.46Z"/><path class="cls-3" d="M276.74,37.67V17.26h8.51a5.62,5.62,0,0,1,2.49.56,6,6,0,0,1,1.95,1.5A6.92,6.92,0,0,1,291,21.41a6.37,6.37,0,0,1,.46,2.38,7,7,0,0,1-.43,2.44,6.88,6.88,0,0,1-1.22,2.1,5.93,5.93,0,0,1-1.9,1.46,5.38,5.38,0,0,1-2.45.55h-6.1v7.33ZM279.33,28h5.95a3.13,3.13,0,0,0,1.45-.33,3.38,3.38,0,0,0,1.11-.92,4.36,4.36,0,0,0,.72-1.37,5.15,5.15,0,0,0,.26-1.63,4.55,4.55,0,0,0-.3-1.67,4.75,4.75,0,0,0-.81-1.35,3.51,3.51,0,0,0-1.18-.89,3.17,3.17,0,0,0-1.42-.32h-5.78Z"/><path class="cls-3" d="M84.12,51.06H79.54v9H78.25V49.91h5.87Z"/><path class="cls-3" d="M85.69,60.11V49.91h4.25a2.76,2.76,0,0,1,1.25.28,3,3,0,0,1,1,.75A3.33,3.33,0,0,1,92.8,52,3,3,0,0,1,93,53.17a3.6,3.6,0,0,1-.21,1.22,3.33,3.33,0,0,1-.61,1,3,3,0,0,1-.95.73,2.65,2.65,0,0,1-1.23.28H87v3.66ZM87,55.3h3a1.53,1.53,0,0,0,.72-.17,1.65,1.65,0,0,0,.56-.46A2.31,2.31,0,0,0,91.6,54a2.76,2.76,0,0,0,.13-.82,2.27,2.27,0,0,0-.15-.83,2.2,2.2,0,0,0-.41-.68,1.61,1.61,0,0,0-.59-.44,1.57,1.57,0,0,0-.71-.16H87Z"/><path class="cls-3" d="M95.94,60.21a3.48,3.48,0,0,1-.61-.05,2.07,2.07,0,0,1-.56-.15V58.9a2.39,2.39,0,0,0,.54.15,3.62,3.62,0,0,0,.54,0,1.35,1.35,0,0,0,.87-.3,3,3,0,0,0,.76-1.19l-3.71-7.69h1.36l3,6.28,2.79-6.28h1.36l-3.59,7.76A10.26,10.26,0,0,1,98,58.84a3.75,3.75,0,0,1-.62.79,1.89,1.89,0,0,1-.67.45A2.22,2.22,0,0,1,95.94,60.21Z"/><path class="cls-3" d="M103.77,49.91h8.14v10.2h-1.3v-9h-5.55v9h-1.29Z"/><path class="cls-3" d="M114.48,49.91h8.13v10.2h-1.29v-9h-5.55v9h-1.29Z"/><path class="cls-3" d="M128.26,49.91h1.09l4.17,10.2h-1.38l-1.21-3h-4.28l-1.19,3h-1.38Zm2.39,6.21-1.84-4.72-1.9,4.72Z"/><path class="cls-3" d="M140,54.35h1.29l3.35-4.44h1.48l-3.63,4.93,4,5.27H145l-3.53-4.61H140v4.61H138.7V49.91H140Z"/><path class="cls-3" d="M151.85,60.18a4.34,4.34,0,0,1-2-.43,4.87,4.87,0,0,1-1.52-1.17,5.21,5.21,0,0,1-1-1.66,5.46,5.46,0,0,1-.34-1.91,5.35,5.35,0,0,1,.36-1.95,5.5,5.5,0,0,1,1-1.66A4.79,4.79,0,0,1,150,50.26a4.42,4.42,0,0,1,1.92-.42,4.21,4.21,0,0,1,2,.45,5.14,5.14,0,0,1,1.51,1.18,5.48,5.48,0,0,1,1,1.67,5.3,5.3,0,0,1,.34,1.88,5.32,5.32,0,0,1-1.37,3.6,4.75,4.75,0,0,1-1.52,1.14A4.42,4.42,0,0,1,151.85,60.18ZM148.35,55a4.46,4.46,0,0,0,.26,1.5,4,4,0,0,0,.71,1.29,3.4,3.4,0,0,0,1.1.89,3.14,3.14,0,0,0,1.44.33,3.07,3.07,0,0,0,1.47-.35,3.63,3.63,0,0,0,1.1-.92,4.21,4.21,0,0,0,.69-1.29,4.83,4.83,0,0,0,.23-1.45,4.46,4.46,0,0,0-.25-1.5,4.12,4.12,0,0,0-.72-1.28,3.78,3.78,0,0,0-1.1-.89,3.22,3.22,0,0,0-2.88,0,3.36,3.36,0,0,0-1.1.91,3.94,3.94,0,0,0-.7,1.27A4.63,4.63,0,0,0,148.35,55Z"/><path class="cls-3" d="M167.37,60.11V52.22L164,58.27h-.74l-3.4-6.05v7.89h-1.3V49.91h1.37l3.69,6.62,3.71-6.62h1.35v10.2Z"/><path class="cls-3" d="M171.24,49.91h8.13v10.2h-1.29v-9h-5.55v9h-1.29Z"/><path class="cls-3" d="M185,49.91h1.09l4.17,10.2H188.9l-1.21-3h-4.28l-1.19,3h-1.38Zm2.39,6.21-1.84-4.72-1.9,4.72Z"/><path class="cls-3" d="M200,49.91v10.2h-1.29V55.47H193v4.64h-1.29V49.91H193v4.41h5.62V49.91Z"/><path class="cls-3" d="M203.82,58.14l5.91-8.23h1.06v10.2H209.5V52l-5.81,8.09h-1.17V49.91h1.3Z"/><path class="cls-3" d="M214.66,58.14l5.9-8.23h1.07v10.2h-1.3V52l-5.8,8.09h-1.17V49.91h1.3ZM219.92,47a1.52,1.52,0,0,1-.63,1.24,3,3,0,0,1-3.12,0,1.52,1.52,0,0,1-.62-1.24h.76a.85.85,0,0,0,.41.68,1.71,1.71,0,0,0,1,.29,1.58,1.58,0,0,0,1-.28,1,1,0,0,0,.46-.69Z"/><path class="cls-3" d="M227.23,56.09l3.64-2.6v1.06l-2.62,1.84,2.62,1.8v1.06l-3.64-2.5Zm3.48,0,3.64-2.6v1.06l-2.62,1.84,2.62,1.8v1.06l-3.64-2.5Z"/><path class="cls-3" d="M239.62,49.91h1.09l4.17,10.2H243.5l-1.21-3H238l-1.19,3h-1.38ZM242,56.12l-1.84-4.72-1.9,4.72Z"/><path class="cls-3" d="M245.7,51.12a3.05,3.05,0,0,1,1.16-1,3.87,3.87,0,0,1,1.66-.31,3.47,3.47,0,0,1,2.2.61,2.16,2.16,0,0,1,.79,1.8,2.62,2.62,0,0,1-.43,1.5,2,2,0,0,1-1.21.82,2.3,2.3,0,0,1,1.52.76A2.45,2.45,0,0,1,252,57a3,3,0,0,1-.27,1.27,3.07,3.07,0,0,1-.74,1,3.57,3.57,0,0,1-1.12.66,4,4,0,0,1-1.41.23,3.8,3.8,0,0,1-1.81-.41,2.87,2.87,0,0,1-1.21-1.18l1-.76a2.6,2.6,0,0,0,.82.86,2.19,2.19,0,0,0,1.22.32,2.49,2.49,0,0,0,.87-.15,2.16,2.16,0,0,0,.68-.39,1.83,1.83,0,0,0,.45-.61,1.77,1.77,0,0,0,.17-.77,1.67,1.67,0,0,0-.73-1.43,3.37,3.37,0,0,0-2-.52h-.77V54h.77a2.91,2.91,0,0,0,1.7-.43,1.4,1.4,0,0,0,.62-1.21,1.21,1.21,0,0,0-.48-1.05,2,2,0,0,0-1.22-.34,2.57,2.57,0,0,0-1.16.25,1.87,1.87,0,0,0-.81.71Z"/><path class="cls-3" d="M257,49.91h1.1l4.16,10.2h-1.38l-1.2-3h-4.29l-1.19,3h-1.38Zm2.39,6.21L257.5,51.4l-1.9,4.72Z"/><path class="cls-3" d="M266.27,52.75c-.12,1.33-.26,2.46-.43,3.4a10.17,10.17,0,0,1-.68,2.31,3.32,3.32,0,0,1-1,1.33,2.32,2.32,0,0,1-1.4.42L262.53,59a1.92,1.92,0,0,0,.58-.11,1.28,1.28,0,0,0,.5-.33,2.84,2.84,0,0,0,.43-.69,6.36,6.36,0,0,0,.37-1.12,14.69,14.69,0,0,0,.31-1.68c.09-.65.18-1.43.25-2.33l.23-2.79h5.41v10.2h-1.3v-9h-2.9Z"/><path class="cls-3" d="M274.49,58.14l5.91-8.23h1.06v10.2h-1.29V52l-5.81,8.09H273.2V49.91h1.29Z"/><path class="cls-3" d="M289.39,60.11v-4H287l-2.35,4h-1.51L285.71,56a2.75,2.75,0,0,1-.82-.45,3.27,3.27,0,0,1-.66-.68,3.21,3.21,0,0,1-.42-.85,3.11,3.11,0,0,1-.15-1,3.05,3.05,0,0,1,.23-1.14,3.11,3.11,0,0,1,.64-1,3.21,3.21,0,0,1,1-.71,2.82,2.82,0,0,1,1.24-.27h3.94v10.2Zm0-9h-2.57a1.57,1.57,0,0,0-.71.16,1.77,1.77,0,0,0-.59.42,2.05,2.05,0,0,0-.4.63A1.91,1.91,0,0,0,285,53a2.06,2.06,0,0,0,.13.74,1.92,1.92,0,0,0,.36.64,1.7,1.7,0,0,0,.55.44,1.55,1.55,0,0,0,.72.16h2.66Z"/><path class="cls-3" d="M296.52,56.75l-3.63,2.5V58.19l2.61-1.8-2.61-1.84V53.49l3.63,2.6Zm3.48,0-3.64,2.5V58.19l2.62-1.8-2.62-1.84V53.49l3.64,2.6Z"/></g></g></svg>
