<svg xmlns="http://www.w3.org/2000/svg" width="22.851" height="20" viewBox="0 0 22.851 20">
  <g id="heart" transform="translate(-1439 -65)">
    <path id="heart-2" data-name="heart" d="M20.459,33.421a6.723,6.723,0,0,0-9.033.669,6.718,6.718,0,0,0-9.033-.669,6.753,6.753,0,0,0-.473,9.872l7.828,7.976a2.344,2.344,0,0,0,3.356,0L20.932,43.3A6.758,6.758,0,0,0,20.459,33.421Zm-1.053,8.368-7.828,7.976a.183.183,0,0,1-.3,0L3.445,41.789a4.6,4.6,0,0,1,.326-6.726,4.525,4.525,0,0,1,6.092.469l1.562,1.593,1.562-1.593a4.522,4.522,0,0,1,6.092-.473A4.622,4.622,0,0,1,19.405,41.789Z" transform="translate(1439 33.022)" fill="#1c1c1c"/>
  </g>
</svg>
