<svg xmlns="http://www.w3.org/2000/svg" width="32.36" height="29.248" viewBox="0 0 32.36 29.248">
  <path id="_1325596" data-name="1325596" d="M32.36,10.146a3.427,3.427,0,0,0-3.423-3.423H22.845l.76-.217A3.062,3.062,0,0,0,22.764.5h-.582A3.047,3.047,0,0,0,19.79,1.649L17.113,5V1.433a.933.933,0,0,0-1.867,0V5L12.57,1.649A3.046,3.046,0,0,0,10.179.5H9.6a3.062,3.062,0,0,0-.841,6.006l.76.217H3.423A3.422,3.422,0,0,0,2.8,13.51V26.948a2.8,2.8,0,0,0,2.8,2.8H26.759a2.8,2.8,0,0,0,2.8-2.8V13.51a3.427,3.427,0,0,0,2.8-3.365ZM21.248,2.815a1.189,1.189,0,0,1,.933-.448h.583a1.195,1.195,0,0,1,.328,2.344L18.736,5.955ZM8.4,3.562A1.2,1.2,0,0,1,9.6,2.367h.582a1.189,1.189,0,0,1,.933.448l2.512,3.14L9.268,4.711A1.2,1.2,0,0,1,8.4,3.562ZM4.667,19.169h2.8a1.556,1.556,0,1,1,0,3.112h-2.8Zm0,7.779v-2.8h2.8a3.423,3.423,0,1,0,0-6.845h-2.8V13.568h8.09V27.881H5.6a.934.934,0,0,1-.933-.933Zm9.957.933V13.568h3.112V27.881Zm12.135,0H19.6V13.568h8.09V17.3h-2.8a3.423,3.423,0,1,0,0,6.845h2.8v2.8a.934.934,0,0,1-.933.933Zm.933-5.6h-2.8a1.556,1.556,0,0,1,0-3.112h2.8ZM28.937,11.7H3.423a1.556,1.556,0,0,1,0-3.111H28.937a1.556,1.556,0,0,1,0,3.111Zm0,0" transform="translate(0 -0.5)" fill="#CB0000"/>
</svg>
