<svg xmlns="http://www.w3.org/2000/svg" width="30" height="25.962" viewBox="0 0 30 25.962">
  <g id="_1325593" data-name="1325593" transform="translate(-0.001 -0.001)">
    <path id="Path_18" data-name="Path 18" d="M28.707,221.652a30.142,30.142,0,0,1-9.589,3.046,28.256,28.256,0,0,1-8.232,0A30.142,30.142,0,0,1,1.3,221.652a.865.865,0,0,0-.858,1.5A29.608,29.608,0,0,0,7.484,225.8l-.493.854a2.85,2.85,0,0,0-3.722,2.124.851.851,0,0,0-.014.093l-.127,1.361a2.665,2.665,0,0,0,4.195,2.422l1.115-.791a.825.825,0,0,0,.074-.058,2.851,2.851,0,0,0-.022-4.285l.77-1.334q.669.127,1.376.23a30.793,30.793,0,0,0,3.5.305v1.22a2.85,2.85,0,0,0-2.161,3.7.865.865,0,0,0,.034.087l.571,1.242a2.665,2.665,0,0,0,4.843,0l.57-1.242a.925.925,0,0,0,.035-.087,2.851,2.851,0,0,0-2.161-3.7v-1.22a30.794,30.794,0,0,0,3.5-.305q.707-.1,1.377-.23l.77,1.334a2.851,2.851,0,0,0-.022,4.285.859.859,0,0,0,.074.058l1.115.791a2.665,2.665,0,0,0,4.195-2.422l-.127-1.361a.909.909,0,0,0-.014-.093,2.851,2.851,0,0,0-3.722-2.124l-.493-.854a29.615,29.615,0,0,0,7.047-2.641.865.865,0,0,0-.858-1.5ZM7.59,230.228a1.113,1.113,0,0,1-.2.251l-1.071.759a.934.934,0,0,1-1.471-.849l.122-1.307a1.12,1.12,0,0,1,1.649-.706l.558.322a1.13,1.13,0,0,1,.41,1.53Zm8.853.508a1.123,1.123,0,0,1-.045.316l-.548,1.193a.934.934,0,0,1-1.7,0l-.548-1.193a1.12,1.12,0,0,1,1.075-1.436h.644A1.121,1.121,0,0,1,16.443,230.736Zm6.378-2.038.558-.322a1.12,1.12,0,0,1,1.649.706l.122,1.307a.934.934,0,0,1-1.471.849l-1.071-.759a1.12,1.12,0,0,1,.213-1.781Zm0,0" transform="translate(0 -208.557)" fill="#CB0000"/>
    <path id="Path_19" data-name="Path 19" d="M.438,1.618A29.6,29.6,0,0,0,7.485,4.259l-.493.854A2.85,2.85,0,0,0,3.27,7.236a.846.846,0,0,0-.014.093L3.129,8.69a2.665,2.665,0,0,0,4.195,2.422l1.115-.79a.827.827,0,0,0,.074-.059,2.85,2.85,0,0,0-.022-4.285l.77-1.333q.669.126,1.376.23a30.741,30.741,0,0,0,3.5.305V6.4a2.85,2.85,0,0,0-2.161,3.7.845.845,0,0,0,.034.087l.571,1.242a2.665,2.665,0,0,0,4.843,0l.57-1.242a.9.9,0,0,0,.035-.087,2.851,2.851,0,0,0-2.161-3.7V5.18a30.742,30.742,0,0,0,3.5-.305q.707-.1,1.377-.23l.77,1.333a2.85,2.85,0,0,0-.022,4.285.862.862,0,0,0,.074.059l1.115.79A2.665,2.665,0,0,0,26.875,8.69l-.127-1.361a.9.9,0,0,0-.014-.093,2.851,2.851,0,0,0-3.722-2.124l-.493-.854a29.591,29.591,0,0,0,7.047-2.641.865.865,0,0,0-.858-1.5,30.147,30.147,0,0,1-9.59,3.046,28.756,28.756,0,0,1-4.116.3,28.758,28.758,0,0,1-4.116-.3A30.141,30.141,0,0,1,1.3.115a.865.865,0,0,0-.858,1.5ZM22.823,7.16l.558-.322a1.12,1.12,0,0,1,1.649.706l.122,1.307a.934.934,0,0,1-1.471.849l-1.071-.759a1.12,1.12,0,0,1,.213-1.781Zm-7.5.918A1.12,1.12,0,0,1,16.4,9.514l-.548,1.193a.934.934,0,0,1-1.7,0l-.548-1.193A1.12,1.12,0,0,1,14.68,8.078ZM7.591,8.69a1.108,1.108,0,0,1-.2.251L6.323,9.7a.934.934,0,0,1-1.471-.849l.122-1.307a1.12,1.12,0,0,1,1.649-.706l.558.322a1.13,1.13,0,0,1,.41,1.53Zm0,0" transform="translate(-0.001 0)" fill="#CB0000"/>
  </g>
</svg>
