<svg xmlns="http://www.w3.org/2000/svg" width="24.719" height="28.214" viewBox="0 0 24.719 28.214">
  <path id="_110020" data-name="110020" d="M35.893,0H13.314a1.07,1.07,0,0,0-1.07,1.07A6.066,6.066,0,0,0,18.3,7.13h1.363v3.45a4.945,4.945,0,0,0,3.868,4.82V26.073H19.868a1.07,1.07,0,0,0,0,2.14h9.472a1.07,1.07,0,0,0,0-2.14H25.674V15.4a4.946,4.946,0,0,0,3.867-4.819V7.13H30.9A6.066,6.066,0,0,0,36.963,1.07,1.07,1.07,0,0,0,35.893,0ZM30.9,4.989H29.521a2.122,2.122,0,0,0-2.12,2.12v3.47a2.8,2.8,0,1,1-5.594,0V7.109a2.122,2.122,0,0,0-2.12-2.12H18.3a3.926,3.926,0,0,1-3.77-2.849H34.674A3.926,3.926,0,0,1,30.9,4.989Z" transform="translate(-12.244)" fill="#4a4a4a"/>
</svg>
