<svg xmlns="http://www.w3.org/2000/svg" width="27.023" height="27.026" viewBox="0 0 27.023 27.026">
  <path id="_1324633" data-name="1324633" d="M27,10.239A2.621,2.621,0,0,0,25.947,8.5L22.811,6.192a.8.8,0,0,0,.017-.162v-4.4a.792.792,0,0,0-.792-.792H19.1a.792.792,0,0,0-.792.792V2.884L15.1.523a2.668,2.668,0,0,0-3.174,0L1.08,8.5a2.629,2.629,0,0,0-.548,3.7,2.683,2.683,0,0,0,2.8.977V26.234a.792.792,0,0,0,.792.792H22.9a.792.792,0,0,0,.792-.792V13.177A2.687,2.687,0,0,0,26.5,12.2a2.61,2.61,0,0,0,.5-1.962ZM19.9,2.421h1.349V5.04L19.9,4.049ZM10.032,25.442H4.916v-1.2h5.115Zm0-2.787H4.916V21.422h5.115Zm0-2.817H4.916V18.6h5.115Zm5.375,5.474H11.615V18.6h3.792Zm6.7.129H16.991v-1.2h5.115Zm0-2.787H16.991V21.422h5.115Zm0-2.817H16.991V18.6h5.115Zm0-2.817H4.917V15.787h17.19Zm0-2.817H4.917V12.97h17.19ZM6.1,11.387,9.644,8.782a.793.793,0,0,0-.019.172v2.433Zm4.386-3.224,2.4-1.762A1.106,1.106,0,0,1,14.1,6.371l2.438,1.791Zm5.328,1.583v1.637H11.208V9.746Zm1.563-.967,3.549,2.608H17.4V8.954A.789.789,0,0,0,17.378,8.779Zm7.852,2.47a1.1,1.1,0,0,1-1.519.219L15.1,5.138a2.668,2.668,0,0,0-3.174,0l-8.61,6.33a1.1,1.1,0,0,1-1.52-.219,1.038,1.038,0,0,1-.2-.78,1.048,1.048,0,0,1,.421-.7L12.864,1.8a1.105,1.105,0,0,1,1.3,0l2.02,1.485,8.826,6.489a1.049,1.049,0,0,1,.421.7,1.038,1.038,0,0,1-.2.78Zm0,0" transform="translate(-0.002 0)" fill="#4a4a4a"/>
</svg>
