<svg xmlns="http://www.w3.org/2000/svg" width="20" height="30.214" viewBox="0 0 20 30.214">
  <path id="_110026" data-name="110026" d="M56.553,6.668H48.592V2.039h1.432a1.019,1.019,0,1,0,0-2.039H47.572a1.019,1.019,0,0,0-1.019,1.019V6.668H38.591a1.019,1.019,0,0,0-1.019,1.019V11.51a1.019,1.019,0,0,0,1.019,1.019h1.438L41.16,29.263a1.019,1.019,0,0,0,1.017.951h10.79a1.019,1.019,0,0,0,1.017-.951L55.115,12.53h1.438a1.019,1.019,0,0,0,1.019-1.019V7.687A1.019,1.019,0,0,0,56.553,6.668ZM52.014,28.175H43.13L42.073,12.53h11Zm3.519-17.684H39.611V8.707H55.533v1.784Z" transform="translate(-37.572)" fill="#4a4a4a"/>
</svg>
