<svg xmlns="http://www.w3.org/2000/svg" width="31.25" height="25" viewBox="0 0 31.25 25">
  <path id="tags" d="M30.564,14.347,20.6,24.314a2.344,2.344,0,0,1-3.315,0l-.087-.087,1.1-1.1.087.087a.781.781,0,0,0,1.1,0l9.967-9.967a.782.782,0,0,0,0-1.1L19.113,1.791a.776.776,0,0,0-.552-.229h-.955L16.043,0H18.56a2.344,2.344,0,0,1,1.657.686L30.563,11.032A2.344,2.344,0,0,1,30.564,14.347ZM12.31,1.562H2.344a.782.782,0,0,0-.781.781V12.31a.776.776,0,0,0,.229.552L12.137,23.209a.781.781,0,0,0,1.1,0l9.967-9.967a.782.782,0,0,0,0-1.1L12.863,1.791a.776.776,0,0,0-.552-.229M12.31,0a2.344,2.344,0,0,1,1.657.686L24.314,11.032a2.344,2.344,0,0,1,0,3.315l-9.967,9.967a2.344,2.344,0,0,1-3.315,0L.686,13.968A2.344,2.344,0,0,1,0,12.31V2.344A2.344,2.344,0,0,1,2.344,0ZM7.031,6.055a.977.977,0,1,0,.977.977.978.978,0,0,0-.977-.977m0-1.367A2.344,2.344,0,1,1,4.687,7.031,2.344,2.344,0,0,1,7.031,4.687Z" fill="#4a4a4a"/>
</svg>
