<svg xmlns="http://www.w3.org/2000/svg" width="31" height="30.879" viewBox="0 0 31 30.879">
  <g id="_1324628" data-name="1324628" transform="translate(0 0)">
    <path id="Path_20" data-name="Path 20" d="M31,15.4a4.867,4.867,0,0,0-1.426-3.436,2.608,2.608,0,0,0,.16-.24,2.571,2.571,0,0,0-2.046-3.871,4.856,4.856,0,0,0-2.6-3.941,3.572,3.572,0,0,0-.4-1.2A3.432,3.432,0,0,0,21.762.9l-.13,0H21.3a6.665,6.665,0,0,0-2.479.476,4.826,4.826,0,0,0-6.714-.025A6.666,6.666,0,0,0,9.7.9H9.368L9.239.9A3.432,3.432,0,0,0,6.315,2.715a3.582,3.582,0,0,0-.389,1.133,4.858,4.858,0,0,0-2.735,4,2.578,2.578,0,0,0-1.829,4.183A4.876,4.876,0,0,0,0,15.4,4.825,4.825,0,0,0,1.324,18.74,2.532,2.532,0,0,0,1.15,19a2.573,2.573,0,0,0,2.03,3.871,4.847,4.847,0,0,0,4.791,4.654,2.577,2.577,0,0,0,3.9,1.757,4.826,4.826,0,0,0,7.154.023q.054.035.11.068a2.569,2.569,0,0,0,3.848-1.849A4.842,4.842,0,0,0,27.7,22.783a2.574,2.574,0,0,0,1.783-3.856A4.872,4.872,0,0,0,31,15.4Zm-4.9,5.718a.908.908,0,0,0-.289.883,3.067,3.067,0,0,1,.075.671,3.015,3.015,0,0,1-3.706,2.951.908.908,0,0,0-1.046,1.232.756.756,0,0,1-1.381.618.908.908,0,0,0-.8-.522h-.02a.908.908,0,0,0-.8.486,3.011,3.011,0,0,1-5.339,0,.908.908,0,0,0-.8-.485h0a.909.909,0,0,0-.8.485l-.018.032A.756.756,0,0,1,9.8,26.823a.908.908,0,0,0-1.067-1.2,3.016,3.016,0,0,1-3.742-2.943,3.071,3.071,0,0,1,.085-.714.908.908,0,0,0-1.334-1,.757.757,0,0,1-1.027-1.043.749.749,0,0,1,.377-.321.908.908,0,0,0,.151-1.617,3.038,3.038,0,0,1,.063-5.192.908.908,0,0,0-.176-1.644.758.758,0,0,1-.416-1.105.752.752,0,0,1,1.008-.284.908.908,0,0,0,1.322-.968,3.081,3.081,0,0,1-.053-.566,3.033,3.033,0,0,1,1.183-2.4,3.638,3.638,0,0,0,.216.416l.192.318a3.424,3.424,0,0,1,.466,1.675A3.815,3.815,0,0,0,9.8,11.618a1.713,1.713,0,0,1,.066.471,1.643,1.643,0,0,1-1.34,1.643A.908.908,0,0,0,7.792,14.8a3.074,3.074,0,0,1,.059.6c0,.081,0,.167-.012.263a.908.908,0,0,0,.728.968,1.653,1.653,0,0,1,1.3,1.636,1.707,1.707,0,0,1-.225.85.908.908,0,0,0,.226,1.166,3.031,3.031,0,0,1,.715.8.909.909,0,0,0,1.065.386,1.7,1.7,0,0,1,.546-.09,1.659,1.659,0,0,1,1.574,1.093.908.908,0,0,0,1.049.587,2.975,2.975,0,0,1,1.023-.043.909.909,0,0,0,.965-.58,1.667,1.667,0,0,1,1.562-1.058,1.691,1.691,0,0,1,.714.156.908.908,0,0,0,1.169-.374,3.036,3.036,0,0,1,.7-.838.908.908,0,0,0,.2-1.173,1.7,1.7,0,0,1-.247-.887,1.639,1.639,0,0,1,1.443-1.658.908.908,0,0,0,.811-.973c-.007-.092-.01-.167-.01-.237a3.08,3.08,0,0,1,.055-.578.908.908,0,0,0-.819-1.076A1.65,1.65,0,0,1,20.9,12.089a1.726,1.726,0,0,1,.051-.418,3.8,3.8,0,0,0,3-3.445,3.418,3.418,0,0,1,.466-1.675l.192-.318a3.628,3.628,0,0,0,.183-.345,3.032,3.032,0,0,1,1.093,2.333,3.078,3.078,0,0,1-.054.569.908.908,0,0,0,1.324.967.749.749,0,0,1,.743.013.76.76,0,0,1,.269,1.039.749.749,0,0,1-.382.323.908.908,0,0,0-.128,1.637,3.038,3.038,0,0,1,.016,5.26.908.908,0,0,0-.012,1.563.762.762,0,0,1,.263,1.035.753.753,0,0,1-.913.327.909.909,0,0,0-.914.167Zm-6.817-1.7q-.1.107-.187.221a3.514,3.514,0,0,0-3.678,1.537c-.089,0-.177,0-.266.009a3.508,3.508,0,0,0-3.4-1.593q-.109-.133-.227-.258a3.539,3.539,0,0,0,.166-1.07,3.5,3.5,0,0,0-1.844-3.09,3.48,3.48,0,0,0,1.844-3.092,3.563,3.563,0,0,0-.021-.377h.644a4.078,4.078,0,0,0,2.806-1.118,3.8,3.8,0,0,0,.771,0,4.077,4.077,0,0,0,2.806,1.118h.416a3.556,3.556,0,0,0-.02.377,3.51,3.51,0,0,0,1.846,3.087,3.481,3.481,0,0,0-1.846,3.095,3.539,3.539,0,0,0,.193,1.154ZM15.5,4.917a1.941,1.941,0,1,1-1.936,1.941A1.941,1.941,0,0,1,15.5,4.917Zm7.553.378-.192.318a5.238,5.238,0,0,0-.726,2.564A1.952,1.952,0,0,1,20.484,9.9H18.692a2.267,2.267,0,0,1-.8-.146,3.753,3.753,0,0,0,.078-5.718A4.868,4.868,0,0,1,21.3,2.712h.4a1.613,1.613,0,0,1,1.389.868,1.709,1.709,0,0,1-.035,1.714ZM16.269,3.18a3.751,3.751,0,0,0-1.538,0,6.8,6.8,0,0,0-.925-.872,3.012,3.012,0,0,1,3.347.032,6.775,6.775,0,0,0-.884.84Zm-8.358.4A1.613,1.613,0,0,1,9.3,2.713H9.7a4.868,4.868,0,0,1,3.335,1.32,3.753,3.753,0,0,0,.078,5.718,2.265,2.265,0,0,1-.8.146H10.516A1.952,1.952,0,0,1,8.864,8.178a5.238,5.238,0,0,0-.726-2.564l-.192-.318a1.71,1.71,0,0,1-.036-1.714Zm0,0" fill="#cb0000"/>
    <path id="Path_21" data-name="Path 21" d="M417.3,238.111a1.208,1.208,0,1,0-1.208,1.212A1.21,1.21,0,0,0,417.3,238.111Zm0,0" transform="translate(-389.767 -222.555)" fill="#cb0000"/>
    <path id="Path_22" data-name="Path 22" d="M83.451,178.044a1.208,1.208,0,1,0-1.208,1.212A1.21,1.21,0,0,0,83.451,178.044Zm0,0" transform="translate(-76.129 -166.125)" fill="#cb0000"/>
    <path id="Path_23" data-name="Path 23" d="M346.669,356.728a1.208,1.208,0,1,0-1.208,1.212A1.21,1.21,0,0,0,346.669,356.728Zm0,0" transform="translate(-323.41 -333.99)" fill="#cb0000"/>
    <path id="Path_24" data-name="Path 24" d="M108.814,308.677a1.208,1.208,0,1,0-1.208,1.212A1.21,1.21,0,0,0,108.814,308.677Zm0,0" transform="translate(-99.957 -288.849)" fill="#cb0000"/>
    <path id="Path_25" data-name="Path 25" d="M211.393,408.294a1.208,1.208,0,1,0-1.208,1.212A1.21,1.21,0,0,0,211.393,408.294Zm0,0" transform="translate(-196.324 -382.434)" fill="#cb0000"/>
  </g>
</svg>
