<svg xmlns="http://www.w3.org/2000/svg" width="24" height="30.039" viewBox="0 0 24 30.039">
  <path id="_110015" data-name="110015" d="M40.506,6.669H35.752a9.623,9.623,0,0,1,.216-1.111h0a9.008,9.008,0,0,1,.9-2.236,1.14,1.14,0,0,0-.842-1.695L23.665.01a1.139,1.139,0,0,0-1.01,1.875,9.179,9.179,0,0,1,2.213,5.924,8.959,8.959,0,0,1-2.02,5.7,8.9,8.9,0,0,1-.6.674c-.027.027-.053.056-.077.086A10.39,10.39,0,0,0,25.277,29.9a1.14,1.14,0,0,0,.548.141h8.892a1.138,1.138,0,0,0,.548-.141,10.406,10.406,0,0,0,5.322-7.835h2.147a1.139,1.139,0,0,0,1.139-1.139V10.037A3.371,3.371,0,0,0,40.506,6.669ZM34.415,27.76H26.128a8.125,8.125,0,0,1-3.975-6.981,8.021,8.021,0,0,1,1.76-5.041c.247-.254.487-.523.71-.8a11.25,11.25,0,0,0,2.16-9.944h0a11.319,11.319,0,0,0-.915-2.4L34.18,3.683a11.49,11.49,0,0,0-.42,1.31h0a11.247,11.247,0,0,0,2.159,9.942c.228.282.467.552.711.8a8.026,8.026,0,0,1,1.76,5.041A8.124,8.124,0,0,1,34.415,27.76Zm7.18-7.975h-.977a10.432,10.432,0,0,0-2.247-5.518,1.153,1.153,0,0,0-.077-.086c-.206-.208-.408-.435-.6-.677a8.94,8.94,0,0,1-1.947-4.555h4.762A1.09,1.09,0,0,1,41.6,10.037Z" transform="translate(-19.874 0)" fill="#4a4a4a"/>
</svg>
