<svg xmlns="http://www.w3.org/2000/svg" width="41.214" height="41.214" viewBox="0 0 41.214 41.214">
  <g id="info_1_" data-name="info (1)" transform="translate(0 0)">
    <g id="Group_138" data-name="Group 138" transform="translate(0)">
      <path id="Path_133" data-name="Path 133" d="M20.607,0A20.607,20.607,0,1,0,41.214,20.607,20.63,20.63,0,0,0,20.607,0Zm0,38.678A18.071,18.071,0,1,1,38.678,20.607,18.091,18.091,0,0,1,20.607,38.678Z"/>
      <circle id="Ellipse_24" data-name="Ellipse 24" cx="2.121" cy="2.121" r="2.121" transform="translate(18.008 10.269)" fill="#cb0000"/>
      <path id="Path_134" data-name="Path 134" d="M31.405,28.342a1.269,1.269,0,0,0-1.268,1.268V40.389a1.268,1.268,0,0,0,2.536,0V29.61A1.268,1.268,0,0,0,31.405,28.342Z" transform="translate(-11.07 -10.371)"/>
    </g>
  </g>
</svg>
