<svg xmlns="http://www.w3.org/2000/svg" width="20.74" height="20.735" viewBox="0 0 20.74 20.735">
  <path id="instagram" d="M10.3,36.876a5.316,5.316,0,1,0,5.316,5.316A5.308,5.308,0,0,0,10.3,36.876Zm0,8.773a3.456,3.456,0,1,1,3.456-3.456A3.463,3.463,0,0,1,10.3,45.649Zm6.774-8.99a1.24,1.24,0,1,1-1.24-1.24A1.237,1.237,0,0,1,17.071,36.659Zm3.521,1.259a6.137,6.137,0,0,0-1.675-4.345A6.177,6.177,0,0,0,14.573,31.9c-1.712-.1-6.843-.1-8.555,0a6.168,6.168,0,0,0-4.345,1.67A6.157,6.157,0,0,0,0,37.913c-.1,1.712-.1,6.843,0,8.555a6.137,6.137,0,0,0,1.675,4.345,6.185,6.185,0,0,0,4.345,1.675c1.712.1,6.843.1,8.555,0a6.137,6.137,0,0,0,4.345-1.675,6.177,6.177,0,0,0,1.675-4.345C20.69,44.756,20.69,39.63,20.592,37.918ZM18.381,48.305a3.5,3.5,0,0,1-1.971,1.971c-1.365.541-4.6.416-6.112.416s-4.752.12-6.112-.416a3.5,3.5,0,0,1-1.971-1.971C1.673,46.94,1.8,43.7,1.8,42.193s-.12-4.752.416-6.112A3.5,3.5,0,0,1,4.185,34.11c1.365-.541,4.6-.416,6.112-.416s4.752-.12,6.112.416a3.5,3.5,0,0,1,1.971,1.971c.541,1.365.416,4.6.416,6.112S18.922,46.945,18.381,48.305Z" transform="translate(0.075 -31.825)" fill="#fff"/>
</svg>
