<svg xmlns="http://www.w3.org/2000/svg" width="191.212" height="95" viewBox="0 0 191.212 95">
  <path id="Intersection_2" data-name="Intersection 2" d="M167.155,95A118.462,118.462,0,0,0,166.8,0h15.533a133.884,133.884,0,0,1,.332,95ZM73.662,95l-.178-.176a25.58,25.58,0,1,1,36.205,0l-.178.176Zm9.945-26.2a11.255,11.255,0,0,0,7.979,19.234,11.114,11.114,0,0,0,7.979-3.275,11.255,11.255,0,0,0-7.979-19.234A11.113,11.113,0,0,0,83.607,68.8ZM7.091,95a7.153,7.153,0,0,1,1.6-7.68L96.075,0h10.936a7.155,7.155,0,0,1-.417,9.67L21.262,95ZM7.5,36.942A25.589,25.589,0,0,1,7.5.737Q7.88.36,8.271,0H42.933q.394.36.776.737a25.589,25.589,0,0,1,0,36.205,25.59,25.59,0,0,1-36.206,0ZM17.627,10.86a11.367,11.367,0,0,0-3.275,7.979,11.113,11.113,0,0,0,3.275,7.979,11.363,11.363,0,0,0,7.98,3.275A11.183,11.183,0,0,0,36.861,18.84a11.114,11.114,0,0,0-3.275-7.979,11.363,11.363,0,0,0-7.979-3.275A11.115,11.115,0,0,0,17.627,10.86Z" fill="#ebebeb" opacity="0.5"/>
</svg>
