<svg xmlns="http://www.w3.org/2000/svg" width="75.217" height="75.217" viewBox="0 0 75.217 75.217">
  <g id="libra" transform="translate(0 0)">
    <path id="Path_235" data-name="Path 235" d="M306,453.469A1.469,1.469,0,1,0,307.469,452,1.47,1.47,0,0,0,306,453.469Zm0,0" transform="translate(-261.046 -385.598)" fill="#cb0000"/>
    <path id="Path_236" data-name="Path 236" d="M199.222,452H187.469a1.469,1.469,0,1,0,0,2.938h11.753a1.469,1.469,0,1,0,0-2.938Zm0,0" transform="translate(-158.675 -385.598)" fill="#cb0000"/>
    <path id="Path_237" data-name="Path 237" d="M75.212,42.506q0-.059-.012-.115c0-.017,0-.034-.007-.05-.009-.05-.021-.1-.034-.147a.144.144,0,0,1,0-.015,1.513,1.513,0,0,0-.061-.164l0-.007L63.747,16.485l5.163-5.163a1.469,1.469,0,0,0-2.077-2.077l-5.219,5.219L44.865,8.476a7.345,7.345,0,1,0-14.514,0L13.6,14.463,8.384,9.245a1.469,1.469,0,1,0-2.077,2.077l5.162,5.163L.127,42.006l0,.007a1.427,1.427,0,0,0-.061.164.1.1,0,0,1,0,.014c-.014.048-.025.1-.034.147,0,.017-.005.034-.007.05-.006.038-.01.076-.012.115q0,.03,0,.06c0,.013,0,.025,0,.038a13.222,13.222,0,1,0,26.443,0c0-.013,0-.025,0-.038s0-.04,0-.06q0-.059-.012-.115c0-.017,0-.034-.007-.05-.009-.05-.021-.1-.034-.147a.143.143,0,0,1,0-.015,1.513,1.513,0,0,0-.061-.164l0-.007-11.109-25,16.169-5.78A7.388,7.388,0,0,0,33.2,13.22V52.7a10.373,10.373,0,0,0-2.865,2.019A10.213,10.213,0,0,0,27.421,60.6,13.241,13.241,0,0,0,15.572,73.748a1.469,1.469,0,0,0,1.469,1.469H58.176a1.469,1.469,0,0,0,1.469-1.469A13.241,13.241,0,0,0,47.8,60.6a10.212,10.212,0,0,0-2.916-5.874A10.351,10.351,0,0,0,42.016,52.7V13.22a7.391,7.391,0,0,0,1.825-1.99L60.01,17.01l-11.109,25,0,.007a1.512,1.512,0,0,0-.061.164.143.143,0,0,1,0,.015c-.014.048-.025.1-.034.147,0,.017-.005.033-.007.05q-.009.057-.012.115c0,.02,0,.04,0,.06s0,.025,0,.038a13.222,13.222,0,1,0,26.443,0c0-.013,0-.025,0-.038s0-.04,0-.06Zm-37.6,9.206a10.344,10.344,0,0,0-1.469.106V14.541a7.307,7.307,0,0,0,2.938,0V51.818A10.344,10.344,0,0,0,37.608,51.711Zm0-48.774a4.408,4.408,0,1,1-4.128,5.956h0a4.41,4.41,0,0,1,4.128-5.955ZM20.494,49.875a10.283,10.283,0,0,1-17.449-5.8H23.4a10.207,10.207,0,0,1-2.907,5.8Zm-5.8-8.74V36.727a1.469,1.469,0,0,0-2.938,0v4.407H3.729l9.492-21.357,9.492,21.357ZM56.6,72.279H18.615a10.3,10.3,0,0,1,10.179-8.814H46.423A10.3,10.3,0,0,1,56.6,72.279ZM44.807,60.526H30.41a7.3,7.3,0,0,1,2-3.726,7.412,7.412,0,0,1,2.745-1.734,7.352,7.352,0,0,1,9.648,5.459ZM62,19.777l9.492,21.357H63.464V36.727a1.469,1.469,0,1,0-2.938,0v4.407H52.5Zm7.272,30.1a10.283,10.283,0,0,1-17.449-5.8H72.174a10.207,10.207,0,0,1-2.907,5.8Zm0,0" transform="translate(0)"/>
  </g>
</svg>
