<svg xmlns="http://www.w3.org/2000/svg" width="17.231" height="14" viewBox="0 0 17.231 14">
  <path id="list" d="M4.308,50.288V48.942a.538.538,0,0,1,.538-.538H16.692a.538.538,0,0,1,.538.538v1.346a.538.538,0,0,1-.538.538H4.846A.538.538,0,0,1,4.308,50.288Zm.538,5.923H16.692a.538.538,0,0,0,.538-.538V54.327a.538.538,0,0,0-.538-.538H4.846a.538.538,0,0,0-.538.538v1.346A.538.538,0,0,0,4.846,56.212Zm0,5.385H16.692a.538.538,0,0,0,.538-.538V59.712a.538.538,0,0,0-.538-.538H4.846a.538.538,0,0,0-.538.538v1.346A.538.538,0,0,0,4.846,61.6ZM.538,51.231H2.692a.538.538,0,0,0,.538-.538V48.538A.538.538,0,0,0,2.692,48H.538A.538.538,0,0,0,0,48.538v2.154A.538.538,0,0,0,.538,51.231Zm0,5.385H2.692a.538.538,0,0,0,.538-.538V53.923a.538.538,0,0,0-.538-.538H.538A.538.538,0,0,0,0,53.923v2.154A.538.538,0,0,0,.538,56.615ZM.538,62H2.692a.538.538,0,0,0,.538-.538V59.308a.538.538,0,0,0-.538-.538H.538A.538.538,0,0,0,0,59.308v2.154A.538.538,0,0,0,.538,62Z" transform="translate(0 -48)" fill="#000000"/>
</svg>
