<svg xmlns="http://www.w3.org/2000/svg" xmlns:xlink="http://www.w3.org/1999/xlink" width="170" height="47" viewBox="0 0 170 47">
  <defs>
    <linearGradient id="linear-gradient" x1="0.669" y1="0.192" x2="0.263" y2="0.776" gradientUnits="objectBoundingBox">
      <stop offset="0" stop-color="#c32e45"/>
      <stop offset="1" stop-color="#700e19"/>
    </linearGradient>
    <linearGradient id="linear-gradient-2" x1="0.5" y1="0" x2="0.5" y2="1" xlink:href="#linear-gradient"/>
    <linearGradient id="linear-gradient-3" x1="0.5" y1="0" x2="0.5" y2="1" xlink:href="#linear-gradient"/>
    <linearGradient id="linear-gradient-4" x1="0.833" y1="0.01" x2="-0.098" y2="0.904" xlink:href="#linear-gradient"/>
  </defs>
  <g id="Ресурс_1" data-name="Ресурс 1" transform="translate(0.006 0)">
    <g id="Слой_1" data-name="Слой 1" transform="translate(-0.006 0)">
      <g id="Group_62" data-name="Group 62">
        <g id="Group_58" data-name="Group 58">
          <path id="Path_91" data-name="Path 91" d="M46.988,23.368v-.255a.477.477,0,0,0,0-.075A23.465,23.465,0,1,0,43.34,36.144h0a23.419,23.419,0,0,0,3.651-12.6C46.992,23.488,46.992,23.424,46.988,23.368Z" transform="translate(-0.045 -0.046)" fill="#fff"/>
          <path id="Path_92" data-name="Path 92" d="M86.018,23.041V23.3a5,5,0,0,1-9.34,2.409l-.086-.161L62.55,0A23.469,23.469,0,0,1,86.015,22.967.476.476,0,0,1,86.018,23.041Z" transform="translate(-39.076 0)" fill="url(#linear-gradient)"/>
          <path id="Path_93" data-name="Path 93" d="M46.95,23.5a23.419,23.419,0,0,1-3.651,12.6h0A23.48,23.48,0,1,1,23.478,0L37.532,25.571l.086.162a5,5,0,0,0,9.34-2.412A1.389,1.389,0,0,0,46.95,23.5Z" transform="translate(-0.004 0)" fill="#fff"/>
          <path id="Path_94" data-name="Path 94" d="M49.38,36.054v0H9.75L29.563,0,43.605,25.543l.086.161Z" transform="translate(-6.089 0)" fill="none"/>
          <path id="Path_95" data-name="Path 95" d="M35.78,50.252,45.826,31.97,55.875,50.252Z" transform="translate(-22.351 -19.952)" fill="url(#linear-gradient-2)"/>
          <path id="Path_96" data-name="Path 96" d="M28.7,102.128c-.075-.041-.15-.079-.225-.124a5,5,0,0,1,2.394-9.344H60.206a23.476,23.476,0,0,1-31.439,9.509Z" transform="translate(-16.209 -57.838)" fill="url(#linear-gradient-3)"/>
          <path id="Path_97" data-name="Path 97" d="M10.5,8.992c.075-.045.143-.094.218-.135a5,5,0,0,1,7.043,6.582l-.09.161-14,25.566A23.476,23.476,0,0,1,10.428,9.033Z" transform="translate(0.006 -5.07)" fill="url(#linear-gradient-4)"/>
        </g>
        <g id="Group_61" data-name="Group 61" transform="translate(52.964 7.686)">
          <g id="Group_59" data-name="Group 59">
            <path id="Path_98" data-name="Path 98" d="M140.6,39.383a4.349,4.349,0,0,1-1.373-.158.664.664,0,0,1-.432-.7c0-.244.173-.492.522-.751a3.216,3.216,0,0,0,.514-.375,1.178,1.178,0,0,0,.244-.424l.889-2.792c.221-.683.458-1.366.72-2.049s.563-1.411.882-2.191.627-1.471.889-2.068.608-1.373,1.032-2.334a41.681,41.681,0,0,1,1.854-3.753,1.471,1.471,0,0,1,.675-.724,3.2,3.2,0,0,1,1.126-.154,2.533,2.533,0,0,1,1.426.293,3,3,0,0,1,.822,1.235L155.5,34.426l.878,2.6a1.422,1.422,0,0,0,.263.458,2.754,2.754,0,0,0,.492.349.818.818,0,0,1,.465.717c0,.57-.424.856-1.268.856h-4.218a3.587,3.587,0,0,1-1.1-.143.615.615,0,0,1-.424-.683.653.653,0,0,1,.131-.428,1.978,1.978,0,0,1,.428-.3,3,3,0,0,0,.4-.255.353.353,0,0,0,.116-.281,4.091,4.091,0,0,0-.173-.788c-.113-.405-.255-.882-.428-1.426s-.311-.957-.4-1.216l-.12-.4h-7c-.068.236-.188.608-.375,1.126s-.319.942-.42,1.317a3.588,3.588,0,0,0-.15.9.822.822,0,0,0,.158.552,1.775,1.775,0,0,0,.488.375,2.6,2.6,0,0,1,.488.375.649.649,0,0,1,.158.469.623.623,0,0,1-.465.649,5.077,5.077,0,0,1-1.463.154Zm9.239-7.974-.131-.4-2.672-6.233-2.792,6.634Z" transform="translate(-138.789 -20.72)" fill="#010101"/>
            <path id="Path_99" data-name="Path 99" d="M203.144,28.983a9.077,9.077,0,0,1,2.758.623,4.454,4.454,0,0,1,1.929,1.463,3.933,3.933,0,0,1,.713,2.413,5.13,5.13,0,0,1-.514,2.252,5.8,5.8,0,0,1-1.561,1.906,7.6,7.6,0,0,1-2.533,1.321,11.07,11.07,0,0,1-3.415.488,11.3,11.3,0,0,1-4.766-.949,7.7,7.7,0,0,1-2.049-1.5,2.762,2.762,0,0,1-.927-1.955,1.478,1.478,0,0,1,.345-.957,1.1,1.1,0,0,1,.886-.42,1.7,1.7,0,0,1,1.388.927c.4.6.69,1.013.878,1.246a3.947,3.947,0,0,0,.829.724,5.711,5.711,0,0,0,3.193.9,4.263,4.263,0,0,0,1.854-.42,3.7,3.7,0,0,0,1.441-1.175,2.908,2.908,0,0,0,.548-1.726,3.835,3.835,0,0,0-.514-2.041,3.122,3.122,0,0,0-1.448-1.246A5.347,5.347,0,0,0,200,30.443h-2.252a1.126,1.126,0,0,1-.837-.315,1,1,0,0,1-.311-.728.968.968,0,0,1,.293-.7,1.073,1.073,0,0,1,.807-.3h2.3a3.238,3.238,0,0,0,2.394-.916,3.13,3.13,0,0,0,.919-2.327,2.5,2.5,0,0,0-.469-1.452,3.343,3.343,0,0,0-1.193-1.073,3.04,3.04,0,0,0-1.445-.375,4.627,4.627,0,0,0-2.251.469,3.989,3.989,0,0,0-1.366,1.227c-.349.5-.638.927-.863,1.265a.987.987,0,0,1-.781.5c-.612,0-.916-.341-.916-1.024a9.453,9.453,0,0,1,.173-2.252,1.291,1.291,0,0,1,.668-.732,11.351,11.351,0,0,1,2.754-.949,14.031,14.031,0,0,1,3-.341,12.95,12.95,0,0,1,3.779.492,5.254,5.254,0,0,1,2.5,1.542,3.929,3.929,0,0,1,.893,2.627,2.942,2.942,0,0,1-.615,1.752,4.878,4.878,0,0,1-1.689,1.433A6.034,6.034,0,0,1,203.144,28.983Z" transform="translate(-172.52 -20.414)" fill="#010101"/>
            <path id="Path_100" data-name="Path 100" d="M241.786,39.383a4.349,4.349,0,0,1-1.373-.158.664.664,0,0,1-.42-.7c0-.244.173-.492.522-.751a3.216,3.216,0,0,0,.514-.375,1.179,1.179,0,0,0,.244-.424l.889-2.792c.221-.683.458-1.366.72-2.049s.544-1.411.863-2.191.627-1.471.889-2.068.608-1.373,1.032-2.334a41.685,41.685,0,0,1,1.854-3.753,1.471,1.471,0,0,1,.675-.724,3.186,3.186,0,0,1,1.126-.154,2.533,2.533,0,0,1,1.426.293,3,3,0,0,1,.829,1.235l5.107,11.986.878,2.6a1.422,1.422,0,0,0,.263.458,2.754,2.754,0,0,0,.492.349.818.818,0,0,1,.465.717c0,.57-.424.856-1.268.856h-4.218a3.587,3.587,0,0,1-1.1-.143.615.615,0,0,1-.424-.683.653.653,0,0,1,.131-.428,1.978,1.978,0,0,1,.428-.3,3,3,0,0,0,.4-.255.349.349,0,0,0,.113-.281,3.973,3.973,0,0,0-.169-.788c-.113-.405-.255-.882-.428-1.426s-.311-.957-.4-1.216l-.12-.4h-7c-.068.236-.188.608-.375,1.126s-.319.942-.42,1.317a3.621,3.621,0,0,0-.154.9.822.822,0,0,0,.161.552,1.775,1.775,0,0,0,.488.375,2.6,2.6,0,0,1,.488.375.649.649,0,0,1,.158.469.623.623,0,0,1-.465.649,5.077,5.077,0,0,1-1.463.154Zm9.239-7.974-.131-.4-2.672-6.233-2.792,6.634Z" transform="translate(-202.012 -20.72)" fill="#010101"/>
            <path id="Path_101" data-name="Path 101" d="M297.855,24.063a.582.582,0,0,0-.128-.409,2.627,2.627,0,0,0-.42-.341,1.733,1.733,0,0,1-.447-.42,1.062,1.062,0,0,1-.15-.612c0-.559.465-.841,1.4-.841h10.56c.822,0,1.231.281,1.231.841a.634.634,0,0,1-.139.454,2.709,2.709,0,0,1-.469.353l-.27.158a.634.634,0,0,0-.375.42,3.981,3.981,0,0,0-.079.946V36.548a3.853,3.853,0,0,0,.079.931.675.675,0,0,0,.375.435l.27.158a2.251,2.251,0,0,1,.462.334.645.645,0,0,1,.146.458c0,.57-.409.856-1.231.856h-4.743c-.814,0-1.22-.285-1.22-.856a.645.645,0,0,1,.135-.45,2.207,2.207,0,0,1,.462-.341l.27-.158a.676.676,0,0,0,.375-.435,3.853,3.853,0,0,0,.079-.931V24.784a1.7,1.7,0,0,0-.334-1.216,2.2,2.2,0,0,0-1.434-.323h-.5a1.831,1.831,0,0,0-1.441.848,12.448,12.448,0,0,0-1.28,2.188q-.856,1.779-1.621,3.824a38.653,38.653,0,0,0-1.242,3.846,11.363,11.363,0,0,0-.488,2.792,1.043,1.043,0,0,0,.229.72,2.671,2.671,0,0,0,.672.473,3.722,3.722,0,0,1,.657.42.728.728,0,0,1,.221.582c0,.518-.477.781-1.426.781h-2.856c-.916,0-1.377-.278-1.377-.829a1.186,1.186,0,0,1,.514-.878,2.447,2.447,0,0,0,.6-.63,4.706,4.706,0,0,0,.33-.908q.326-1.227.751-2.54t.946-2.694c.341-.923.668-1.764.987-2.525s.683-1.6,1.1-2.529A9.311,9.311,0,0,0,297.855,24.063Z" transform="translate(-234.388 -21.055)" fill="#010101"/>
            <path id="Path_102" data-name="Path 102" d="M352.658,36.51a3.589,3.589,0,0,0,.086.931.709.709,0,0,0,.375.435l.27.158a2.094,2.094,0,0,1,.458.334.661.661,0,0,1,.139.458c0,.57-.405.856-1.22.856h-4.754c-.818,0-1.231-.285-1.231-.856a.646.646,0,0,1,.139-.443,2.188,2.188,0,0,1,.473-.349l.266-.158a.675.675,0,0,0,.375-.435,3.853,3.853,0,0,0,.079-.931V24.573a3.753,3.753,0,0,0-.083-.946.709.709,0,0,0-.375-.432l-.266-.146a2.9,2.9,0,0,1-.477-.375.645.645,0,0,1-.135-.443c0-.559.413-.841,1.231-.841h4.743c.814,0,1.22.281,1.22.841a.649.649,0,0,1-.135.454,2.458,2.458,0,0,1-.462.353l-.27.146a.668.668,0,0,0-.375.428,3.753,3.753,0,0,0-.086.949v8.256l7.438-7.505v-.751a3.534,3.534,0,0,0-.086-.946.69.69,0,0,0-.375-.432l-.27-.146a2.824,2.824,0,0,1-.473-.375.645.645,0,0,1-.124-.443c0-.559.409-.841,1.22-.841h4.743c.814,0,1.22.281,1.22.841a.649.649,0,0,1-.135.454,2.338,2.338,0,0,1-.462.353l-.27.146a.668.668,0,0,0-.375.428,3.755,3.755,0,0,0-.086.949V36.51a3.587,3.587,0,0,0,.086.931.709.709,0,0,0,.375.435l.27.158a2.094,2.094,0,0,1,.458.334.679.679,0,0,1,.139.458c0,.57-.405.856-1.22.856h-4.721c-.811,0-1.22-.285-1.22-.856a.645.645,0,0,1,.135-.45,2.208,2.208,0,0,1,.462-.341l.27-.158a.675.675,0,0,0,.375-.435,3.853,3.853,0,0,0,.079-.931V27.939l-7.437,7.505Z" transform="translate(-268.728 -21.018)" fill="#010101"/>
            <path id="Path_103" data-name="Path 103" d="M414.708,32.11l-2.462-.4a14.415,14.415,0,0,0-1.291,1.767,21.115,21.115,0,0,0-1.268,2.315,4.733,4.733,0,0,0-.537,1.745.477.477,0,0,0,.124.353,2.17,2.17,0,0,0,.394.293,1.936,1.936,0,0,1,.409.319.563.563,0,0,1,.146.4.642.642,0,0,1-.413.683,3.332,3.332,0,0,1-1.084.146h-4.9c-.867,0-1.3-.244-1.3-.751a.533.533,0,0,1,.135-.42,3.32,3.32,0,0,1,.473-.323,2.15,2.15,0,0,0,.709-.574,5.5,5.5,0,0,0,.488-.953,19.21,19.21,0,0,1,3.475-6.094,8.052,8.052,0,0,1-2.743-2,4.188,4.188,0,0,1-1.051-2.826,3.9,3.9,0,0,1,.634-2.158,4.154,4.154,0,0,1,1.7-1.5,9.669,9.669,0,0,1,4.128-.672l8.89.026c.822,0,1.231.281,1.231.841a.645.645,0,0,1-.135.45,2.309,2.309,0,0,1-.462.353l-.281.146a.7.7,0,0,0-.375.435,3.534,3.534,0,0,0-.086.946v11.9a3.855,3.855,0,0,0,.079.931.675.675,0,0,0,.375.435l.281.158a2.323,2.323,0,0,1,.45.334.646.646,0,0,1,.146.458c0,.57-.409.856-1.231.856H414.6q-1.216,0-1.216-.856a.645.645,0,0,1,.131-.45,2.15,2.15,0,0,1,.465-.341l.266-.158a.675.675,0,0,0,.375-.435,3.854,3.854,0,0,0,.083-.931Zm.026-6.755a2.456,2.456,0,0,0-.375-1.644,2.616,2.616,0,0,0-1.854-.488,4.259,4.259,0,0,0-2.6.75,2.675,2.675,0,0,0-1.017,2.3,3.073,3.073,0,0,0,1.82,2.908,9.156,9.156,0,0,0,4.019.983Z" transform="translate(-303.554 -21.068)" fill="#010101"/>
          </g>
          <g id="Group_60" data-name="Group 60" transform="translate(0.338 20.986)">
            <path id="Path_104" data-name="Path 104" d="M144.515,92.435h-4.469a1.014,1.014,0,0,1-.2,0c-.105-.038-.158-.135-.158-.3s.079-.206.236-.27a.491.491,0,0,0,.251-.064.341.341,0,0,0,.184-.319V87.133a.375.375,0,0,0-.124-.263.435.435,0,0,0-.311-.116.552.552,0,0,1-.2-.12.252.252,0,0,1-.038-.146q0-.225.113-.27a.567.567,0,0,1,.206-.049h1.674c.229,0,.341.105.341.3a.2.2,0,0,1-.064.173.856.856,0,0,1-.2.109.484.484,0,0,0-.27.09.311.311,0,0,0-.139.278v4.36c0,.248.135.375.409.375h2.578a.552.552,0,0,0,.315-.071.338.338,0,0,0,.109-.3V87.136a.323.323,0,0,0-.146-.293.537.537,0,0,0-.278-.09c-.15-.064-.225-.154-.225-.274a.3.3,0,0,1,.079-.248.375.375,0,0,1,.24-.064h1.636c.221,0,.334.105.334.308a.206.206,0,0,1-.056.158.716.716,0,0,1-.176.113c-.086.041-.165.071-.244.1a.293.293,0,0,0-.173.278v4.357a.334.334,0,0,0,.236.3c.1.045.2.09.3.131a.75.75,0,0,1,.191.439,2.629,2.629,0,0,1,.06.462.27.27,0,0,1-.071.18.233.233,0,0,1-.18.086.315.315,0,0,1-.2-.068l-.154-.116a2.293,2.293,0,0,0-.645-.375A2.6,2.6,0,0,0,144.515,92.435Z" transform="translate(-139.689 -82.479)" fill="#08080d"/>
            <path id="Path_105" data-name="Path 105" d="M163.7,92.459a.75.75,0,0,1-.251-.026.274.274,0,0,1-.064-.454.6.6,0,0,1,.251-.105.544.544,0,0,0,.244-.105.345.345,0,0,0,.086-.27V87.183a.375.375,0,0,0-.1-.274.338.338,0,0,0-.218-.12.435.435,0,0,1-.255-.068.251.251,0,0,1-.1-.229q0-.191.1-.236a.751.751,0,0,1,.323-.049h3.145a4.684,4.684,0,0,1,.7.045,1.82,1.82,0,0,1,.589.218,1.445,1.445,0,0,1,.488.465,1.126,1.126,0,0,1,.191.645,1.235,1.235,0,0,1-.375.874,2.95,2.95,0,0,1-.833.567,2.567,2.567,0,0,1,1.148.57,1.5,1.5,0,0,1,.514,1.126,1.373,1.373,0,0,1-.221.751,1.876,1.876,0,0,1-.6.574,2.431,2.431,0,0,1-.792.315,4.435,4.435,0,0,1-.931.086Zm1.257-3.377c.548-.105.931-.184,1.152-.236a3.5,3.5,0,0,0,1.021-.375,1.711,1.711,0,0,0,.439-.4.751.751,0,0,0,.15-.45.687.687,0,0,0-.529-.7,3.752,3.752,0,0,0-1.069-.105h-.6a.991.991,0,0,0-.458.086.176.176,0,0,0-.079.124.807.807,0,0,0-.026.218v1.839Zm0,2.221v.3a.221.221,0,0,0,.128.184,1.572,1.572,0,0,0,.375.06h.57a6.309,6.309,0,0,0,.8-.045,2.274,2.274,0,0,0,.668-.191,1.013,1.013,0,0,0,.675-.912,1.077,1.077,0,0,0-.492-.9,2.687,2.687,0,0,0-1.084-.409l-1.651.375Z" transform="translate(-154.431 -82.503)" fill="#08080d"/>
            <path id="Path_106" data-name="Path 106" d="M186.141,89.994l-.266.026a1.992,1.992,0,0,0,.751,1.272,2.3,2.3,0,0,0,1.441.469,2.353,2.353,0,0,0,1.268-.341l1.006-.751a.259.259,0,0,1,.173.068.206.206,0,0,1,.079.169.878.878,0,0,1-.3.567,2.626,2.626,0,0,1-.529.447,3.377,3.377,0,0,1-.9.45,3.231,3.231,0,0,1-1,.154,3.122,3.122,0,0,1-2.221-.844,2.837,2.837,0,0,1-.9-2.165,3.485,3.485,0,0,1,3.5-3.516,2.469,2.469,0,0,1,1.347.345,1.876,1.876,0,0,1,.589.578,1.37,1.37,0,0,1,.233.751,1.561,1.561,0,0,1-.492,1.126,3,3,0,0,1-1.1.66,6.829,6.829,0,0,1-1.321.345C187.192,89.863,186.741,89.923,186.141,89.994Zm-.345-.574a9.607,9.607,0,0,0,2.2-.394c.908-.311,1.362-.784,1.362-1.43a.889.889,0,0,0-.33-.751,1.381,1.381,0,0,0-.848-.251,2.131,2.131,0,0,0-1.8.859A3.22,3.22,0,0,0,185.8,89.42Z" transform="translate(-167.832 -82.373)" fill="#08080d"/>
            <path id="Path_107" data-name="Path 107" d="M208.54,91.477a.375.375,0,0,0,.131.3.413.413,0,0,0,.263.105.375.375,0,0,1,.244.075.263.263,0,0,1,.1.229.229.229,0,0,1-.12.214.619.619,0,0,1-.289.064h-1.655a1.272,1.272,0,0,1-.3-.026c-.075,0-.113-.105-.113-.255a.244.244,0,0,1,.124-.233.48.48,0,0,1,.206-.068.375.375,0,0,0,.409-.42v-4.2a.92.92,0,0,0-.038-.375c-.026-.034-.116-.053-.266-.053a2.9,2.9,0,0,0-.811.094,1.921,1.921,0,0,0-.683.375.921.921,0,0,1-.12.105.3.3,0,0,1-.21.094c-.184,0-.278-.1-.278-.293a2.046,2.046,0,0,1,.068-.529q.116-.462.375-.462h4.878c.143,0,.255.1.338.289a1.722,1.722,0,0,1,.128.7.274.274,0,0,1-.075.18.225.225,0,0,1-.176.086.345.345,0,0,1-.214-.075c-.06-.049-.105-.086-.131-.113a1.779,1.779,0,0,0-.7-.375,3.831,3.831,0,0,0-.792-.071c-.158,0-.251,0-.278.06a1.155,1.155,0,0,0-.038.417Z" transform="translate(-180.579 -82.513)" fill="#08080d"/>
            <path id="Path_108" data-name="Path 108" d="M227.278,86.779a.645.645,0,0,0-.135.041.375.375,0,0,0-.169.334v1.355a8.676,8.676,0,0,1,1.25.086,4.128,4.128,0,0,1,1.126.349,2.826,2.826,0,0,1,.953.7,1.662,1.662,0,0,1,.435,1.126,1.433,1.433,0,0,1-.938,1.388,2.585,2.585,0,0,1-.75.229,5.85,5.85,0,0,1-.9.06h-2.462a.668.668,0,0,1-.27-.053.218.218,0,0,1-.124-.225.244.244,0,0,1,.071-.18.75.75,0,0,1,.338-.124c.176-.034.263-.165.263-.375V87.136a.323.323,0,0,0-.105-.27.529.529,0,0,0-.236-.113.552.552,0,0,1-.233-.105.255.255,0,0,1-.1-.2c0-.116.034-.191.105-.225a.589.589,0,0,1,.278-.056h1.535a.6.6,0,0,1,.323.068.244.244,0,0,1,.1.214.266.266,0,0,1-.131.251A.987.987,0,0,1,227.278,86.779Zm2.379,3.884a1.319,1.319,0,0,0-.927-1.2,4.2,4.2,0,0,0-1.756-.345v2.432a.285.285,0,0,0,.15.165.751.751,0,0,0,.338.086h.45a3.816,3.816,0,0,0,.672-.049,1.5,1.5,0,0,0,.529-.191,1.013,1.013,0,0,0,.544-.9Zm2.961-3.542v4.36a.319.319,0,0,0,.139.281.5.5,0,0,0,.27.09,1.043,1.043,0,0,1,.2.105.21.21,0,0,1,.068.173.285.285,0,0,1-.094.225.375.375,0,0,1-.251.079h-1.692a.375.375,0,0,1-.225-.06c-.053-.038-.079-.124-.079-.255s.079-.2.236-.266a.48.48,0,0,0,.251-.064.345.345,0,0,0,.188-.319V87.132a.353.353,0,0,0-.128-.263.435.435,0,0,0-.311-.116.525.525,0,0,1-.2-.12.251.251,0,0,1-.041-.146q0-.225.113-.27a.567.567,0,0,1,.206-.049h1.677c.229,0,.345.105.345.3a.2.2,0,0,1-.068.173.856.856,0,0,1-.2.109.5.5,0,0,0-.27.09A.311.311,0,0,0,232.618,87.121Z" transform="translate(-193.171 -82.479)" fill="#08080d"/>
            <path id="Path_109" data-name="Path 109" d="M270.3,86a3.208,3.208,0,0,1,2.312.938,3.047,3.047,0,0,1,.964,2.282,3.164,3.164,0,0,1-.964,2.36,3.25,3.25,0,0,1-2.379.953,3.107,3.107,0,0,1-2.293-.957A3.163,3.163,0,0,1,267,89.257a3.122,3.122,0,0,1,.979-2.308A3.2,3.2,0,0,1,270.3,86Zm-.053,5.884a2.045,2.045,0,0,0,1.719-.859,2.462,2.462,0,0,0,.417-.829,3.583,3.583,0,0,0,.139-.987,2.785,2.785,0,0,0-.57-1.794,2.045,2.045,0,0,0-1.677-.751,1.974,1.974,0,0,0-1.681.829,3.047,3.047,0,0,0-.54,1.846,2.833,2.833,0,0,0,.54,1.782,1.97,1.97,0,0,0,1.655.747Z" transform="translate(-219.225 -82.374)" fill="#08080d"/>
            <path id="Path_110" data-name="Path 110" d="M292.77,91.477a.375.375,0,0,0,.131.3.413.413,0,0,0,.263.105.375.375,0,0,1,.244.075.263.263,0,0,1,.1.229.229.229,0,0,1-.12.214.619.619,0,0,1-.289.064h-1.655a1.272,1.272,0,0,1-.3-.026c-.075,0-.113-.105-.113-.255a.244.244,0,0,1,.124-.233.48.48,0,0,1,.206-.068.375.375,0,0,0,.409-.42v-4.2a.92.92,0,0,0-.038-.375c-.026-.034-.116-.053-.266-.053a2.9,2.9,0,0,0-.811.094,1.921,1.921,0,0,0-.683.375.921.921,0,0,1-.12.105.3.3,0,0,1-.21.094c-.184,0-.278-.1-.278-.293a2.045,2.045,0,0,1,.068-.529q.116-.462.375-.462h4.878c.143,0,.255.1.338.289a1.789,1.789,0,0,1,.128.7.274.274,0,0,1-.075.18.229.229,0,0,1-.176.086.345.345,0,0,1-.214-.075c-.06-.049-.105-.086-.131-.113a1.779,1.779,0,0,0-.7-.375,3.831,3.831,0,0,0-.792-.071c-.158,0-.251,0-.278.06a1.156,1.156,0,0,0-.038.417Z" transform="translate(-233.202 -82.513)" fill="#08080d"/>
            <path id="Path_111" data-name="Path 111" d="M324.1,83.8q.608-1.734,1.295-3.343.78-1.812,1.546-3.216c.176-.315.281-.507.319-.567.139-.221.255-.33.341-.33s.2.079.319.236a5.321,5.321,0,0,1,.424.664,28.381,28.381,0,0,1,1.584,3.2q.724,1.7,1.257,3.377l.514,1.43a.856.856,0,0,0,.161.278,1.351,1.351,0,0,0,.3.2.5.5,0,0,1,.2.128.416.416,0,0,1,.022.165c0,.131-.045.214-.143.244a1.336,1.336,0,0,1-.375.045h-1.64a.908.908,0,0,1-.353-.053c-.083-.034-.124-.12-.124-.251s.113-.244.338-.338.338-.21.338-.353a8.337,8.337,0,0,0-.338-1.16,10.338,10.338,0,0,0-.458-1.242h-4.3c-.12.353-.244.705-.375,1.058a3.984,3.984,0,0,0-.24,1.017.713.713,0,0,0,.353.668q.349.2.349.349a.24.24,0,0,1-.124.244.863.863,0,0,1-.375.06H323.6a1.261,1.261,0,0,1-.432-.064.251.251,0,0,1-.169-.278.4.4,0,0,1,.214-.319,2.03,2.03,0,0,0,.278-.218.886.886,0,0,0,.131-.285Zm1.441-1.58h3.873q-.439-1.175-.859-2.116a24.216,24.216,0,0,0-1.126-2.2,23.858,23.858,0,0,0-1.069,2.173C326.072,80.764,325.794,81.466,325.539,82.216Z" transform="translate(-254.207 -76.34)" fill="#08080d"/>
            <path id="Path_112" data-name="Path 112" d="M372.22,91.608a.278.278,0,0,0,.259.293.777.777,0,0,1,.3.094.811.811,0,0,1,.191.443,2.629,2.629,0,0,1,.06.458.27.27,0,0,1-.071.18.233.233,0,0,1-.18.086.334.334,0,0,1-.206-.068l-.15-.124a2.142,2.142,0,0,0-.649-.375,2.327,2.327,0,0,0-.777-.113h-2.724a2.548,2.548,0,0,0-.822.12,2.086,2.086,0,0,0-.634.375,1.953,1.953,0,0,1-.165.131.315.315,0,0,1-.2.068.229.229,0,0,1-.218-.1.375.375,0,0,1-.06-.191,2.207,2.207,0,0,1,.09-.717.33.33,0,0,1,.319-.251.409.409,0,0,0,.435-.33c.255-.867.533-1.662.826-2.394a16.029,16.029,0,0,1,.987-2.019.24.24,0,0,0,0-.206.221.221,0,0,0-.236-.139.413.413,0,0,1-.24-.071.27.27,0,0,1-.105-.233c0-.124.038-.2.113-.233a.867.867,0,0,1,.311-.045h3.809a.619.619,0,0,1,.289.06.221.221,0,0,1,.094.221.266.266,0,0,1-.068.2.7.7,0,0,1-.2.128l-.259.1a.3.3,0,0,0-.12.266Zm-4,.3h2.657a.337.337,0,0,0,.375-.375V87.172a.263.263,0,0,0-.12-.251.469.469,0,0,0-.236-.064h-.874a.3.3,0,0,0-.161.049,1.271,1.271,0,0,0-.214.233,9.889,9.889,0,0,0-1.242,2.48,7.039,7.039,0,0,0-.529,2.068.188.188,0,0,0,.1.184A.48.48,0,0,0,368.216,91.9Z" transform="translate(-281.18 -82.53)" fill="#08080d"/>
            <path id="Path_113" data-name="Path 113" d="M393.3,86a3.208,3.208,0,0,1,2.312.938,3.047,3.047,0,0,1,.964,2.282,3.163,3.163,0,0,1-.964,2.36,3.257,3.257,0,0,1-2.379.953,3.107,3.107,0,0,1-2.293-.957A3.163,3.163,0,0,1,390,89.257a3.122,3.122,0,0,1,.979-2.308A3.2,3.2,0,0,1,393.3,86Zm-.053,5.884a2.049,2.049,0,0,0,1.719-.859,2.462,2.462,0,0,0,.417-.829,3.579,3.579,0,0,0,.135-.987,2.781,2.781,0,0,0-.567-1.794,2.045,2.045,0,0,0-1.677-.751,1.97,1.97,0,0,0-1.681.829,3.047,3.047,0,0,0-.54,1.846,2.833,2.833,0,0,0,.54,1.782,1.97,1.97,0,0,0,1.655.747Z" transform="translate(-296.069 -82.375)" fill="#08080d"/>
            <path id="Path_114" data-name="Path 114" d="M433.732,85.858V82.63l-2.128-.375a10.638,10.638,0,0,0-1.246,1.7,4.529,4.529,0,0,0-.814,1.8.469.469,0,0,0,.323.413c.214.105.323.218.323.341a.21.21,0,0,1-.15.225,1.126,1.126,0,0,1-.375.053h-1.955a1.092,1.092,0,0,1-.33-.038c-.079-.026-.12-.1-.12-.225a.24.24,0,0,1,.105-.214l.274-.116a1,1,0,0,0,.375-.293,2.514,2.514,0,0,0,.263-.477q.518-1.126.912-1.824a10.34,10.34,0,0,1,1.163-1.666,4.657,4.657,0,0,1-1.5-.976,2.278,2.278,0,0,1-.675-1.629,2,2,0,0,1,.259-1,2.1,2.1,0,0,1,.705-.751,2.672,2.672,0,0,1,.9-.375,5.677,5.677,0,0,1,1.088-.09h4.094a.874.874,0,0,1,.349.053c.086.034.128.116.128.251a.263.263,0,0,1-.116.236.619.619,0,0,1-.2.079l-.259.068c-.143.053-.218.135-.218.251v7.325a1.577,1.577,0,0,0,.056.555c.034.071.169.143.409.225a1.126,1.126,0,0,1,.251.124.244.244,0,0,1,.079.206.251.251,0,0,1-.1.218.675.675,0,0,1-.375.071h-1.771a1.3,1.3,0,0,1-.375-.038c-.071-.026-.109-.113-.109-.251a.263.263,0,0,1,.105-.225,2.225,2.225,0,0,0,.236-.12,2.6,2.6,0,0,0,.27-.1A.2.2,0,0,0,433.732,85.858Zm0-3.914v-3.16a3.675,3.675,0,0,0-.026-.537.4.4,0,0,0-.191-.278,1.126,1.126,0,0,0-.514-.143c-.233-.023-.465-.034-.694-.034a3.8,3.8,0,0,0-2.18.488,1.392,1.392,0,0,0-.582,1.2q0,1.253,1.557,1.876a14.158,14.158,0,0,0,2.631.589Z" transform="translate(-319.347 -76.825)" fill="#08080d"/>
          </g>
        </g>
      </g>
    </g>
  </g>
</svg>
