<svg xmlns="http://www.w3.org/2000/svg" width="22.5" height="15" viewBox="0 0 22.5 15">
  <path id="newspaper" d="M21.563,64H4.375a1.878,1.878,0,0,0-1.768,1.25H.938A.937.937,0,0,0,0,66.188V76.813A2.187,2.187,0,0,0,2.188,79H21.563a.937.937,0,0,0,.938-.937V64.938A.938.938,0,0,0,21.563,64ZM1.875,76.813V67.125H2.5v9.688a.313.313,0,1,1-.625,0Zm18.75.313H4.352a2.2,2.2,0,0,0,.023-.312V65.875h16.25ZM6.719,72.438h5.313a.469.469,0,0,0,.469-.469v-3.75a.469.469,0,0,0-.469-.469H6.719a.469.469,0,0,0-.469.469v3.75A.469.469,0,0,0,6.719,72.438Zm1.094-3.125h3.125v1.563H7.813ZM6.25,74.781v-.937a.469.469,0,0,1,.469-.469h5.313a.469.469,0,0,1,.469.469v.938a.469.469,0,0,1-.469.469H6.719A.469.469,0,0,1,6.25,74.781Zm7.5,0v-.937a.469.469,0,0,1,.469-.469h4.063a.469.469,0,0,1,.469.469v.938a.469.469,0,0,1-.469.469H14.219A.469.469,0,0,1,13.75,74.781Zm0-5.625v-.937a.469.469,0,0,1,.469-.469h4.063a.469.469,0,0,1,.469.469v.938a.469.469,0,0,1-.469.469H14.219A.469.469,0,0,1,13.75,69.156Zm0,2.813v-.937a.469.469,0,0,1,.469-.469h4.063a.469.469,0,0,1,.469.469v.938a.469.469,0,0,1-.469.469H14.219A.469.469,0,0,1,13.75,71.969Z" transform="translate(0 -64)" fill="#fff"/>
</svg>
