<svg xmlns="http://www.w3.org/2000/svg" width="20" height="20" viewBox="0 0 20 20">
  <g id="poll" transform="translate(-1322 -63)">
    <path id="poll-2" data-name="poll" d="M17.857,32H2.143A2.143,2.143,0,0,0,0,34.143V49.857A2.143,2.143,0,0,0,2.143,52H17.857A2.143,2.143,0,0,0,20,49.857V34.143A2.143,2.143,0,0,0,17.857,32Zm0,17.857H2.143V34.143H17.857Zm-12.5-2.143h.714A.714.714,0,0,0,6.786,47V41.286a.714.714,0,0,0-.714-.714H5.357a.714.714,0,0,0-.714.714V47A.714.714,0,0,0,5.357,47.714Zm4.286,0h.714A.714.714,0,0,0,11.071,47V37a.714.714,0,0,0-.714-.714H9.643A.714.714,0,0,0,8.929,37V47A.714.714,0,0,0,9.643,47.714Zm4.286,0h.714A.714.714,0,0,0,15.357,47V44.143a.714.714,0,0,0-.714-.714h-.714a.714.714,0,0,0-.714.714V47A.714.714,0,0,0,13.929,47.714Z" transform="translate(1322 31)" fill="#1c1c1c"/>
  </g>
</svg>
