<svg xmlns="http://www.w3.org/2000/svg" width="14.107" height="15.048" viewBox="0 0 14.107 15.048">
  <path id="poll-2" d="M5.583,51.333h.94a.94.94,0,0,0,.94-.94V42.869a.94.94,0,0,0-.94-.94h-.94a.94.94,0,0,0-.94.94v7.524A.94.94,0,0,0,5.583,51.333Zm5.643,0h.94a.94.94,0,0,0,.94-.94V37.226a.94.94,0,0,0-.94-.94h-.94a.94.94,0,0,0-.94.94V50.393A.94.94,0,0,0,11.226,51.333Zm5.643,0h.94a.94.94,0,0,0,.94-.94V46.631a.94.94,0,0,0-.94-.94h-.94a.94.94,0,0,0-.94.94v3.762A.94.94,0,0,0,16.869,51.333Z" transform="translate(-4.643 -36.286)" fill="#4a4a4a"/>
</svg>
