<svg xmlns="http://www.w3.org/2000/svg" width="16.55" height="15" viewBox="0 0 16.55 15">
  <path id="repeat-alt" d="M15.954,29.058a5.14,5.14,0,0,1,.6,2.449,5.205,5.205,0,0,1-5.223,5.133H6.207v1.535a.776.776,0,0,1-1.324.565L2.3,36.154a.776.776,0,0,1,0-1.1l2.586-2.586a.776.776,0,0,1,1.324.549v1.552h5.136A3.127,3.127,0,0,0,14.482,31.5a3.085,3.085,0,0,0-.3-1.359.775.775,0,0,1,.155-.882l.384-.381A.775.775,0,0,1,15.954,29.058ZM2.069,31.435a3.127,3.127,0,0,1,3.139-3.071h5.136V29.9a.776.776,0,0,0,1.324.565l2.586-2.586a.776.776,0,0,0,0-1.1L11.669,24.2a.776.776,0,0,0-1.324.566V26.3H5.224A5.205,5.205,0,0,0,0,31.428a5.139,5.139,0,0,0,.6,2.449.774.774,0,0,0,1.231.18l.384-.381a.775.775,0,0,0,.155-.882A3.085,3.085,0,0,1,2.069,31.435Z" transform="translate(0 -23.967)"/>
</svg>
