<svg xmlns="http://www.w3.org/2000/svg" width="12.708" height="12.402" viewBox="0 0 12.708 12.402">
  <path id="Sale" d="M.468-9.162A2.879,2.879,0,0,0,3.51-6.21,2.884,2.884,0,0,0,6.57-9.162a2.93,2.93,0,0,0-3.06-3.024A2.926,2.926,0,0,0,.468-9.162ZM2.34,0H3.69l7.686-12.006H10.008ZM4.932-9.162A1.416,1.416,0,0,1,3.51-7.614,1.426,1.426,0,0,1,2.088-9.162a1.434,1.434,0,0,1,1.422-1.6A1.425,1.425,0,0,1,4.932-9.162ZM7.074-2.754A2.893,2.893,0,0,0,10.116.216a2.908,2.908,0,0,0,3.06-2.97,2.941,2.941,0,0,0-3.06-3.024A2.926,2.926,0,0,0,7.074-2.754Zm4.482,0a1.426,1.426,0,0,1-1.44,1.566A1.413,1.413,0,0,1,8.694-2.754a1.434,1.434,0,0,1,1.422-1.6A1.447,1.447,0,0,1,11.556-2.754Z" transform="translate(13.176 0.216) rotate(180)" fill="#fff"/>
</svg>
