<svg xmlns="http://www.w3.org/2000/svg" width="71.051" height="71.065" viewBox="0 0 71.051 71.065">
  <g id="search_1_" data-name="search (1)" transform="translate(-0.5)">
    <path id="Path_238" data-name="Path 238" d="M81.888,82.776A1.388,1.388,0,1,0,80.5,81.388,1.389,1.389,0,0,0,81.888,82.776Zm0,0" transform="translate(-68.896 -68.896)" fill="#cb0000"/>
    <path id="Path_239" data-name="Path 239" d="M114.664,132.208h13.88a4.169,4.169,0,0,0,4.164-4.164V111.388A1.388,1.388,0,0,0,131.32,110H111.888a1.388,1.388,0,0,0-1.388,1.388v16.656A4.169,4.169,0,0,0,114.664,132.208Zm-1.388-19.432h16.656v15.268a1.39,1.39,0,0,1-1.388,1.388h-13.88a1.39,1.39,0,0,1-1.388-1.388Zm0,0" transform="translate(-94.732 -94.732)"/>
    <path id="Path_240" data-name="Path 240" d="M155.892,158.328h.319a5.4,5.4,0,0,0,5.393-5.393v-1.547a1.388,1.388,0,0,0-2.776,0v1.547a2.62,2.62,0,0,1-2.617,2.617h-.319a2.619,2.619,0,0,1-2.616-2.617v-1.547a1.388,1.388,0,0,0-2.776,0v1.547A5.4,5.4,0,0,0,155.892,158.328Zm0,0" transform="translate(-129.18 -129.18)" fill="#cb0000"/>
    <path id="Path_241" data-name="Path 241" d="M53.3,26.269a26.4,26.4,0,1,0-10.91,21.35L46.671,51.9l-.981.971a1.388,1.388,0,0,0-.01,1.964l14.077,14.2a6.944,6.944,0,0,0,10.563-.884,7.156,7.156,0,0,0-.955-9.136L55.5,45.031a1.388,1.388,0,0,0-2.074.115c-.061.067-.256.271-.858.878l-4.3-4.295A26.428,26.428,0,0,0,53.3,26.269ZM48.642,49.947l-4.084-4.084A26.588,26.588,0,0,0,46.521,43.9l4.09,4.089C50.031,48.567,49.369,49.225,48.642,49.947ZM3.276,26.269a23.624,23.624,0,1,1,23.651,23.6,23.6,23.6,0,0,1-23.651-23.6ZM54.531,47.993,67.4,60.972a4.364,4.364,0,0,1,.67,5.556,4.166,4.166,0,0,1-6.344.547L48.63,53.868c1.665-1.648,4.262-4.223,5.9-5.875Zm0,0" transform="translate(0 0)"/>
    <path id="Path_242" data-name="Path 242" d="M263.82,320.259Zm0,0" transform="translate(-226.771 -275.799)"/>
    <path id="Path_243" data-name="Path 243" d="M82.416,60.783a20.83,20.83,0,0,0-21.1-21.521,20.472,20.472,0,0,0-9.761,2.581,1.388,1.388,0,1,0,1.309,2.449,17.5,17.5,0,0,1,8.5-2.254,18.069,18.069,0,1,1-15.642,9.481A1.388,1.388,0,1,0,43.283,50.2a20.807,20.807,0,0,0-1.237,2.749h0a20.187,20.187,0,0,0-.754,2.57,20.82,20.82,0,1,0,41.125,5.26Zm0,0" transform="translate(-34.681 -33.811)" fill="#000a0a"/>
  </g>
</svg>
