<svg id="_041-shield" data-name="041-shield" xmlns="http://www.w3.org/2000/svg" width="44" height="53.638" viewBox="0 0 44 53.638">
  <path id="Path_35" data-name="Path 35" d="M201.446,274.1a1.048,1.048,0,1,0-1.048-1.048A1.048,1.048,0,0,0,201.446,274.1Zm0,0" transform="translate(-179.456 -243.505)"/>
  <path id="Path_36" data-name="Path 36" d="M21.892,53.442a1.047,1.047,0,0,0,1.218,0C33.784,45.818,44.5,42.472,44.5,26.785V7.363a1.048,1.048,0,0,0-.96-1.044l-2.723-.228A39.927,39.927,0,0,1,23.056.158a1.048,1.048,0,0,0-1.111,0A39.936,39.936,0,0,1,4.184,6.092l-2.723.227A1.048,1.048,0,0,0,.5,7.363V26.785c0,16.13,12.222,20.108,21.391,26.657ZM2.6,8.326,4.358,8.18A42.024,42.024,0,0,0,22.5,2.276a42.022,42.022,0,0,0,18.142,5.9l1.763.147V26.785c0,14.146-9.426,17.181-19.906,24.523C13.3,44.923,2.6,41.3,2.6,26.785Zm0,0" transform="translate(-0.501 0.001)"/>
  <path id="Path_37" data-name="Path 37" d="M75.6,107.843a1.04,1.04,0,0,0,1.221-.027c9.484-6.564,15.1-8.724,15.1-19.014V75.061a1.048,1.048,0,0,0-.892-1.036A46.16,46.16,0,0,1,76.7,69.387a1.066,1.066,0,0,0-1.007.023,46.131,46.131,0,0,1-14.3,4.614,1.047,1.047,0,0,0-.892,1.036V88.8c0,10.387,6.155,12.936,15.1,19.041ZM62.6,75.954a48.194,48.194,0,0,0,12.561-3.947v15.36a1.048,1.048,0,0,0,2.1,0V72a48.231,48.231,0,0,0,12.582,3.957V88.8c0,8.516-3.989,10.373-12.582,16.184V95.748a1.048,1.048,0,0,0-2.1,0v9.268C67.128,99.671,62.6,97.387,62.6,88.8Zm0,0" transform="translate(-54.215 -62.014)" fill="#cb0000"/>
</svg>
