<svg xmlns="http://www.w3.org/2000/svg" width="81.718" height="75.95" viewBox="0 0 81.718 75.95">
  <g id="shopping" transform="translate(0 0)">
    <path id="Path_244" data-name="Path 244" d="M216.017,302.02a1.6,1.6,0,1,0-2.258,0A1.6,1.6,0,0,0,216.017,302.02Zm0,0" transform="translate(-179.25 -251.526)" fill="#cb0000"/>
    <path id="Path_245" data-name="Path 245" d="M225.6,64.2v3.192a9.577,9.577,0,0,0,19.153,0V64.2a1.6,1.6,0,0,0,0-3.192h-3.192a1.6,1.6,0,0,0,0,3.192v3.192a6.385,6.385,0,0,1-12.769,0V64.2a1.6,1.6,0,0,0,0-3.192H225.6a1.6,1.6,0,0,0,0,3.192Zm0,0" transform="translate(-188.255 -51.268)" fill="#cb0000"/>
    <path id="Path_246" data-name="Path 246" d="M18.549,75.483a1.6,1.6,0,0,0,2.256,0l4.9-4.9a7.389,7.389,0,0,0,2.143-5.989l1.758-1.7a7.405,7.405,0,0,1,5.162-2.085H55.784A14.283,14.283,0,0,0,65.8,56.74a1.5,1.5,0,0,0,.113-.122l14.3-17.17A6.385,6.385,0,0,0,70.5,31.163l-1.544,1.6V1.6a1.6,1.6,0,0,0-1.6-1.6H26.335a1.6,1.6,0,0,0-1.6,1.6v35.76A19.2,19.2,0,0,0,11.016,48.1,7.371,7.371,0,0,0,5.4,50.264L.47,55.166a1.6,1.6,0,0,0,0,2.261ZM65.76,3.192V36.061L61.14,40.837a6.413,6.413,0,0,0-4.958-2.371H37.677a.881.881,0,0,1-.325-.069,20.625,20.625,0,0,0-7.824-1.527c-.534,0-1.067.019-1.6.054V3.192Zm-39.2,37.08a18.135,18.135,0,0,1,9.589,1.084,4.061,4.061,0,0,0,1.524.3H56.183a3.192,3.192,0,0,1,0,6.384H42.3a1.6,1.6,0,1,0,0,3.192H56.183a6.391,6.391,0,0,0,6.384-6.384,6.456,6.456,0,0,0-.057-.838c.333-.341,9.98-10.319,10.314-10.665.024-.026.049-.052.071-.079A3.192,3.192,0,1,1,77.767,37.4L63.517,54.509a11.106,11.106,0,0,1-7.733,3.11H34.769A10.58,10.58,0,0,0,27.391,60.6l-.7.68a7.43,7.43,0,0,0-.98-1.208l-9.8-9.8a7.453,7.453,0,0,0-1.761-1.3,15.98,15.98,0,0,1,12.421-8.693ZM7.651,52.524a4.232,4.232,0,0,1,6,0l9.8,9.8a4.234,4.234,0,0,1,0,6L19.676,72.1,3.857,56.3Zm0,0"/>
  </g>
</svg>
