<svg xmlns="http://www.w3.org/2000/svg" width="16" height="14" viewBox="0 0 16 14">
  <path id="th" d="M4.667,32.75v2.5a.75.75,0,0,1-.75.75H.75A.75.75,0,0,1,0,35.25v-2.5A.75.75,0,0,1,.75,32H3.917a.75.75,0,0,1,.75.75Zm5.667,7.5v-2.5a.75.75,0,0,0-.75-.75H6.417a.75.75,0,0,0-.75.75v2.5a.75.75,0,0,0,.75.75H9.583A.75.75,0,0,0,10.333,40.25Zm1-7.5v2.5a.75.75,0,0,0,.75.75H15.25a.75.75,0,0,0,.75-.75v-2.5a.75.75,0,0,0-.75-.75H12.083A.75.75,0,0,0,11.333,32.75Zm-1,2.5v-2.5a.75.75,0,0,0-.75-.75H6.417a.75.75,0,0,0-.75.75v2.5a.75.75,0,0,0,.75.75H9.583A.75.75,0,0,0,10.333,35.25ZM3.917,37H.75a.75.75,0,0,0-.75.75v2.5A.75.75,0,0,0,.75,41H3.917a.75.75,0,0,0,.75-.75v-2.5a.75.75,0,0,0-.75-.75ZM0,42.75v2.5A.75.75,0,0,0,.75,46H3.917a.75.75,0,0,0,.75-.75v-2.5a.75.75,0,0,0-.75-.75H.75A.75.75,0,0,0,0,42.75ZM12.083,41H15.25a.75.75,0,0,0,.75-.75v-2.5a.75.75,0,0,0-.75-.75H12.083a.75.75,0,0,0-.75.75v2.5A.75.75,0,0,0,12.083,41Zm0,5H15.25a.75.75,0,0,0,.75-.75v-2.5a.75.75,0,0,0-.75-.75H12.083a.75.75,0,0,0-.75.75v2.5A.75.75,0,0,0,12.083,46ZM5.667,42.75v2.5a.75.75,0,0,0,.75.75H9.583a.75.75,0,0,0,.75-.75v-2.5a.75.75,0,0,0-.75-.75H6.417A.75.75,0,0,0,5.667,42.75Z" transform="translate(0 -32)"/>
</svg>
