<svg xmlns="http://www.w3.org/2000/svg" width="130.716" height="16" viewBox="0 0 130.716 16">
  <g id="Group_79" data-name="Group 79" transform="translate(-1530 -239)">
    <path id="star" d="M27.961.544l-2.04,4.137-4.565.666A1,1,0,0,0,20.8,7.052l3.3,3.218-.781,4.546a1,1,0,0,0,1.45,1.053l4.084-2.147,4.084,2.147a1,1,0,0,0,1.45-1.053l-.781-4.546,3.3-3.218a1,1,0,0,0-.553-1.706L31.8,4.681,29.755.544A1,1,0,0,0,27.961.544Z" transform="translate(1509.5 239.013)" fill="#efcb3b"/>
    <path id="star-2" data-name="star" d="M27.961.544l-2.04,4.137-4.565.666A1,1,0,0,0,20.8,7.052l3.3,3.218-.781,4.546a1,1,0,0,0,1.45,1.053l4.084-2.147,4.084,2.147a1,1,0,0,0,1.45-1.053l-.781-4.546,3.3-3.218a1,1,0,0,0-.553-1.706L31.8,4.681,29.755.544A1,1,0,0,0,27.961.544Z" transform="translate(1538.501 239.013)" fill="#efcb3b"/>
    <path id="star-3" data-name="star" d="M27.961.544l-2.04,4.137-4.565.666A1,1,0,0,0,20.8,7.052l3.3,3.218-.781,4.546a1,1,0,0,0,1.45,1.053l4.084-2.147,4.084,2.147a1,1,0,0,0,1.45-1.053l-.781-4.546,3.3-3.218a1,1,0,0,0-.553-1.706L31.8,4.681,29.755.544A1,1,0,0,0,27.961.544Z" transform="translate(1566.5 239.013)" fill="#efcb3b"/>
    <path id="star-4" data-name="star" d="M27.961.544l-2.04,4.137-4.565.666A1,1,0,0,0,20.8,7.052l3.3,3.218-.781,4.546a1,1,0,0,0,1.45,1.053l4.084-2.147,4.084,2.147a1,1,0,0,0,1.45-1.053l-.781-4.546,3.3-3.218a1,1,0,0,0-.553-1.706L31.8,4.681,29.755.544A1,1,0,0,0,27.961.544Z" transform="translate(1595.5 239.013)" fill="#efcb3b"/>
    <path id="star-5" data-name="star" d="M27.961.544l-2.04,4.137-4.565.666A1,1,0,0,0,20.8,7.052l3.3,3.218-.781,4.546a1,1,0,0,0,1.45,1.053l4.084-2.147,4.084,2.147a1,1,0,0,0,1.45-1.053l-.781-4.546,3.3-3.218a1,1,0,0,0-.553-1.706L31.8,4.681,29.755.544A1,1,0,0,0,27.961.544Z" transform="translate(1623.5 239.013)" fill="#9f9f9f"/>
  </g>
</svg>
