<svg xmlns="http://www.w3.org/2000/svg" width="55.554" height="55.554" viewBox="0 0 55.554 55.554">
  <g id="Group_169" data-name="Group 169" transform="translate(-183.446 -2941)">
    <path id="envelope-open-text" d="M53.665,17.851c-.165-.137-1.5-1.215-3.319-2.676V10.416a5.208,5.208,0,0,0-5.208-5.208H37.962C35.507,3.13,31.875,0,27.777,0S20.084,3.106,17.594,5.208H10.416a5.208,5.208,0,0,0-5.208,5.208v4.758C3.384,16.641,2.045,17.72,1.9,17.839A5.208,5.208,0,0,0,0,21.861V50.346a5.208,5.208,0,0,0,5.208,5.208H50.346a5.208,5.208,0,0,0,5.208-5.208V21.865a5.205,5.205,0,0,0-1.889-4.014ZM10.416,10.416H45.138v17C41.2,30.6,36.6,34.323,35.742,35c-1.97,1.574-5.4,4.925-7.965,4.925s-6.061-3.4-7.965-4.925c-.857-.681-5.461-4.41-9.4-7.592ZM50.346,49.695a.652.652,0,0,1-.651.651H5.859a.652.652,0,0,1-.651-.651V29.9c4.227,3.416,10.411,8.425,11.356,9.177,2.393,1.912,6.5,6.061,11.213,6.061,4.688,0,8.75-4.093,11.213-6.061.977-.776,7.144-5.771,11.356-9.175Z" transform="translate(183.446 2941)" fill="#4a4a4a"/>
    <g id="Ресурс_2" data-name="Ресурс 2" transform="translate(203.007 2960)">
      <g id="Слой_1" data-name="Слой 1" transform="translate(-0.007)">
        <path id="Path_55" data-name="Path 55" d="M16.754,8.317V8.225a.163.163,0,0,0,0-.026,8.374,8.374,0,1,0-1.3,4.67h0a8.331,8.331,0,0,0,1.3-4.49Z" transform="translate(-0.004 -0.006)" fill="none"/>
        <path id="Path_56" data-name="Path 56" d="M73.374,8.22v.091a1.783,1.783,0,0,1-3.333.859l-.031-.058L65,0a8.375,8.375,0,0,1,8.374,8.2A.163.163,0,0,1,73.374,8.22Z" transform="translate(-56.625)" fill="#4a4a4a"/>
        <path id="Path_57" data-name="Path 57" d="M16.748,8.374a8.331,8.331,0,0,1-1.3,4.489h0A8.374,8.374,0,1,1,8.374,0l5.009,9.113.031.058a1.783,1.783,0,0,0,3.334-.859Z" transform="translate(0.001)" fill="none"/>
        <path id="Path_58" data-name="Path 58" d="M24.27,12.863H10.13L17.2,0l5.009,9.113.031.058Z" transform="translate(-8.824)" fill="none"/>
        <path id="Path_59" data-name="Path 59" d="M37.18,39.743l3.584-6.523,3.585,6.523Z" transform="translate(-32.389 -28.94)" fill="#4a4a4a"/>
        <path id="Path_60" data-name="Path 60" d="M130,63.866a.173.173,0,0,1,0,.026v-.026Z" transform="translate(-113.251 -55.58)" fill="#4a4a4a"/>
        <path id="Path_61" data-name="Path 61" d="M27.936,99.658c-.027-.014-.053-.027-.08-.044a1.783,1.783,0,0,1,.854-3.334H39.174a8.374,8.374,0,0,1-11.209,3.383A.129.129,0,0,1,27.936,99.658Z" transform="translate(-23.478 -83.876)" fill="#4a4a4a"/>
        <path id="Path_62" data-name="Path 62" d="M3.741,8.722c.026-.017.05-.033.077-.049a1.783,1.783,0,0,1,2.515,2.35L6.3,11.08,1.307,20.206A8.374,8.374,0,0,1,3.719,8.74Z" transform="translate(0.007 -7.323)" fill="#4a4a4a"/>
      </g>
    </g>
  </g>
</svg>
