<svg id="_046-telephone" data-name="046-telephone" xmlns="http://www.w3.org/2000/svg" width="53.463" height="53.52" viewBox="0 0 53.463 53.52">
  <path id="Path_38" data-name="Path 38" d="M229.863,387.7a1.045,1.045,0,1,0,1.478,0A1.045,1.045,0,0,0,229.863,387.7Zm0,0" transform="translate(-205.562 -346.897)" fill="#cb0000"/>
  <path id="Path_39" data-name="Path 39" d="M51.108,38.985l-7.936-6.748a1.071,1.071,0,0,0-.116-.085,5.2,5.2,0,0,0-6.5.713l-4.327,4.327a1.043,1.043,0,0,1-1.139.227,28.356,28.356,0,0,1-11.93-9.043,21.042,21.042,0,0,1-3.254-5.785,1.039,1.039,0,0,0-.063-.216,1.04,1.04,0,0,1,.227-1.138L20.4,16.909a5.194,5.194,0,0,0,.713-6.5l-.033-.049L15.345,2.394a5.226,5.226,0,0,0-8.088-.863L6.39,2.4l0,0L3.295,5.493C-.394,9.182-1,14.726,1.55,21.525c2.182,5.824,6.55,12.2,12.3,17.948C19.735,45.359,26.282,49.808,32.284,52c5.94,2.17,12.259,2.438,16.731-2.035l2.917-2.917a5.227,5.227,0,0,0-.825-8.064Zm-9.231-5.106,7.929,6.743a1.029,1.029,0,0,0,.116.085,3.137,3.137,0,0,1,.533,4.864l-.216.217L36.713,35.662l1.319-1.319a3.116,3.116,0,0,1,3.844-.464ZM13.6,3.543c.011.017.022.033.033.049l5.729,7.961a3.116,3.116,0,0,1-.443,3.877L17.639,16.71,8.489,3.255l.245-.245a3.136,3.136,0,0,1,4.864.534ZM33,50.037C27.279,47.947,21,43.67,15.328,38c-5.543-5.543-9.741-11.653-11.821-17.2C1.946,16.625.9,10.845,4.773,6.972L6.985,4.759l9.15,13.455-1.543,1.544a3.123,3.123,0,0,0-.716,3.328,23.216,23.216,0,0,0,3.38,6.235A30.662,30.662,0,0,0,30.29,39.35a3.127,3.127,0,0,0,3.416-.68l1.514-1.515L48.744,47.281l-1.207,1.207c-4.153,4.153-10.2,3.135-14.536,1.55Zm0,0" transform="translate(-0.001 0)"/>
  <path id="Path_40" data-name="Path 40" d="M106.5,264.126c-1.1-.968-3.014-2.633-4.02-3.668a68.718,68.718,0,0,1-6.592-7.826,1.045,1.045,0,0,0-1.718,1.191,70.792,70.792,0,0,0,6.812,8.093c1.062,1.093,2.988,2.773,4.14,3.782a1.045,1.045,0,1,0,1.378-1.572Zm0,0" transform="translate(-84.157 -225.821)" fill="#cb0000"/>
</svg>
