<svg xmlns="http://www.w3.org/2000/svg" width="60.281" height="60.281" viewBox="0 0 60.281 60.281">
  <g id="wishlist" transform="translate(0)">
    <path id="Path_228" data-name="Path 228" d="M201.177,312a1.177,1.177,0,1,0,1.177,1.177A1.178,1.178,0,0,0,201.177,312Zm0,0" transform="translate(-176.453 -275.266)" fill="#cb0000"/>
    <path id="Path_229" data-name="Path 229" d="M201.177,372a1.177,1.177,0,1,0,1.177,1.177A1.178,1.178,0,0,0,201.177,372Zm0,0" transform="translate(-176.453 -328.202)" fill="#cb0000"/>
    <path id="Path_230" data-name="Path 230" d="M256.719,312H241.177a1.177,1.177,0,0,0,0,2.355h15.541a1.177,1.177,0,0,0,0-2.355Zm0,0" transform="translate(-211.743 -275.266)" fill="#1c1c1c"/>
    <path id="Path_231" data-name="Path 231" d="M256.719,372H241.177a1.177,1.177,0,0,0,0,2.355h15.541a1.177,1.177,0,0,0,0-2.355Zm0,0" transform="translate(-211.743 -328.202)" fill="#1c1c1c"/>
    <path id="Path_232" data-name="Path 232" d="M3.532,57.141V59.1a1.177,1.177,0,0,0,2.355,0V57.141l.471-.628A15.4,15.4,0,0,0,9.419,47.33v-33.2H10.6a1.178,1.178,0,0,1,1.177,1.177V26.138a1.177,1.177,0,0,0,2.355,0V15.306A3.536,3.536,0,0,0,10.6,11.774H9.419V9.419A4.672,4.672,0,0,0,8.242,6.306V3.532a3.532,3.532,0,1,0-7.064,0V6.307A4.708,4.708,0,0,0,0,9.419V47.33a15.4,15.4,0,0,0,3.061,9.183ZM7.064,46.153H2.355V14.128H7.064ZM2.355,11.774V9.419a2.355,2.355,0,0,1,4.709,0v2.355ZM4.709,2.355A1.178,1.178,0,0,1,5.887,3.532V4.86a4.677,4.677,0,0,0-2.355,0V3.532A1.178,1.178,0,0,1,4.709,2.355Zm2.3,46.153a13.049,13.049,0,0,1-2.3,6.269,13.05,13.05,0,0,1-2.3-6.269Zm0,0" transform="translate(0 0)" fill="#1c1c1c"/>
    <path id="Path_233" data-name="Path 233" d="M148.508,82.6V76.709A4.715,4.715,0,0,0,143.8,72H110.6a5.893,5.893,0,0,0-5.887,5.887v36.5h-3.532A1.177,1.177,0,0,0,100,115.563a8.251,8.251,0,0,0,8.242,8.242h27.315a6.007,6.007,0,0,0,5.887-6.139V83.774h5.887a1.177,1.177,0,0,0,1.177-1.177Zm-40.266,38.853a5.9,5.9,0,0,1-5.769-4.709h27.2v1.177a5.858,5.858,0,0,0,1.18,3.532Zm30.847-44.74v40.956a3.642,3.642,0,0,1-3.532,3.784,3.536,3.536,0,0,1-3.532-3.532v-2.355a1.177,1.177,0,0,0-1.177-1.177H107.064v-36.5a3.546,3.546,0,0,1,3.532-3.544h29.122a4.75,4.75,0,0,0-.63,2.367Zm7.064,4.709h-4.709V76.709a2.355,2.355,0,0,1,4.709,0Zm0,0" transform="translate(-88.226 -63.523)" fill="#1c1c1c"/>
    <path id="Path_234" data-name="Path 234" d="M222.994,146.405c.671.567,1.365,1.153,2.1,1.791a1.178,1.178,0,0,0,1.542,0c.736-.638,1.43-1.224,2.1-1.79,3.748-3.163,6.455-5.448,6.455-8.8a5.378,5.378,0,0,0-5.253-5.6,4.946,4.946,0,0,0-4.075,2.142A4.947,4.947,0,0,0,221.791,132a5.377,5.377,0,0,0-5.252,5.6c0,3.355,2.708,5.64,6.455,8.8Zm-1.2-12.05c2.15,0,2.912,2.565,2.943,2.674a1.176,1.176,0,0,0,1.128.855h.006a1.181,1.181,0,0,0,1.132-.855c.031-.109.793-2.674,2.942-2.674a3.02,3.02,0,0,1,2.9,3.247c0,2.261-2.115,4.046-5.62,7-.439.371-.889.75-1.354,1.147-.466-.4-.915-.777-1.354-1.148-3.5-2.957-5.619-4.742-5.619-7A3.019,3.019,0,0,1,221.791,134.355Zm0,0" transform="translate(-191.044 -116.459)" fill="#cb0000"/>
  </g>
</svg>
